<?xml version="1.0" encoding="UTF-8" standalone="no"?>
<svg
   width="1000"
   height="1024"
   viewBox="0 0 1000 1024"
   version="1.1"
   id="svg107"
   sodipodi:docname="bib.svg"
   inkscape:version="1.4.2 (f4327f4, 2025-05-13)"
   xmlns:inkscape="http://www.inkscape.org/namespaces/inkscape"
   xmlns:sodipodi="http://sodipodi.sourceforge.net/DTD/sodipodi-0.dtd"
   xmlns="http://www.w3.org/2000/svg"
   xmlns:svg="http://www.w3.org/2000/svg">
  <sodipodi:namedview
     id="namedview107"
     pagecolor="#ffffff"
     bordercolor="#000000"
     borderopacity="0.25"
     inkscape:showpageshadow="2"
     inkscape:pageopacity="0.0"
     inkscape:pagecheckerboard="0"
     inkscape:deskcolor="#d1d1d1"
     inkscape:zoom="0.80957031"
     inkscape:cx="468.76719"
     inkscape:cy="488.53076"
     inkscape:window-width="1920"
     inkscape:window-height="1009"
     inkscape:window-x="1912"
     inkscape:window-y="-8"
     inkscape:window-maximized="1"
     inkscape:current-layer="svg107" />
  <defs
     id="defs2">
    <linearGradient
       id="gradient_0"
       gradientUnits="userSpaceOnUse"
       x1="816.80743"
       y1="704.29773"
       x2="207.64479"
       y2="335.85471">
      <stop
         offset="0"
         stop-color="#C4C4C3"
         id="stop1"
         style="stop-color:#f3eef3;stop-opacity:1;" />
      <stop
         offset="1"
         stop-color="#E9E9E8"
         id="stop2" />
    </linearGradient>
  </defs>
  <path
     fill="url(#gradient_0)"
     transform="scale(0.976562 1)"
     d="M246.498 341.241C246.481 339.035 247.467 332.427 247.789 329.986C248.872 321.387 250.201 312.82 251.774 304.297C256.274 279.216 263.131 253.998 272.594 230.267C274.659 225.086 277.93 219.974 280.526 215.028C306.423 165.674 355.414 122.818 412.643 118.136C423.07 117.283 433.235 124.422 440.27 131.35C482.072 176.484 440.568 217.697 407.884 251.241C395.17 264.29 377.876 288.038 372.637 305.288C363.443 335.563 366.626 377.285 377.769 406.671C378.572 408.169 378.829 408.827 379.375 410.393C381.146 413.325 383.814 419.085 385.489 421.446C389.653 427.312 395.264 433.949 399.928 439.404C401.89 441.297 403.762 443.039 405.551 445.104C411.259 449.316 416.142 453.776 422.299 457.916C427.427 461.364 432.877 463.703 437.545 466.741C439.526 467.311 442.663 468.925 444.725 469.804C491.19 489.615 545.796 489.153 591.53 467.526C617.114 455.428 628.904 441.2 641.744 416.684C645.293 407.901 648.443 401.504 650.722 391.975C652.573 384.821 653.896 377.099 654.951 369.788C655.428 362.388 655.9 358.502 656.1 350.687L655.88 341.711C655.092 336.462 654.231 329.105 653.879 323.866C653.405 322.932 651.865 314.208 651.211 312.263C649.242 306.407 647.348 300.801 644.771 295.164C635.819 275.316 623.813 256.994 609.189 240.863C602.262 233.194 594.513 225.297 587.302 217.844C567.74 197.623 557.602 157.215 582.283 136.668C616.982 107.779 691.809 151.576 715.588 179.509C721.376 184.42 727.304 191.593 731.966 197.485C770.373 246.017 776.823 312.015 780.152 371.682C781.644 388.293 782.688 405.116 782.697 421.808C782.662 451.925 781.808 482.037 781.267 512.143C780.982 528.048 782.216 544.41 781.662 560.371C781.485 565.454 782.132 572.998 781.475 577.824C781.625 583.667 781.641 589.512 781.524 595.355C781.692 617.042 780.621 637.139 780.148 658.549C779.009 710.041 778.379 750.505 761.068 799.617C749.353 830.78 723.566 862.488 693.035 876.517C669.811 887.188 641.13 893.784 615.837 896.502C611.952 896.919 603.461 898.098 599.717 897.979C562.515 902.14 521.065 901.932 483.776 900.15C426.488 897.413 335.363 896.996 291.658 855.08C291.356 854.892 291.021 854.696 290.768 854.459C264.932 830.152 249.019 797.071 241.97 762.595C241.218 758.919 240.247 754.987 239.993 751.219C238.999 746.702 238.432 740.434 238.438 735.838C236.075 732.287 236.298 695.135 236.559 688.975C236.413 686.414 236.477 683.525 236.506 680.928C236.715 662.355 236.007 643.346 237.524 624.829C237.472 618.125 237.809 611.183 237.965 604.45C238.055 600.564 237.892 594.975 238.425 591.32C238.326 590.308 238.461 587.875 238.495 586.743C238.268 583.499 238.521 577.34 238.525 573.873C238.536 566.211 238.483 558.287 238.663 550.64C238.551 543.462 238.933 535.066 239.1 527.84C238.265 517.545 239.854 499.372 239.858 488.063C239.866 466.263 239.026 443.888 240.037 422.223C239.865 417.01 240.052 411.538 240.145 406.304C240.192 399.712 241.28 384.405 242.471 377.854C242.38 374.008 243.657 365.504 244.096 361.141C244.305 354.829 245.151 347.441 246.498 341.241Z"
     id="path2"
     style="fill:#f0f0f0;fill-opacity:1" />
  <path
     fill="#B1B0B0"
     transform="scale(0.976562 1)"
     d="M781.524 595.355C781.692 617.042 780.621 637.139 780.148 658.549C779.009 710.041 778.379 750.505 761.068 799.617C749.353 830.78 723.566 862.488 693.035 876.517C669.811 887.188 641.13 893.784 615.837 896.502C611.952 896.919 603.461 898.098 599.717 897.979L599.626 897.441C605.333 895.559 604.062 897.356 610.356 893.538L610.119 893.51C613.56 891.676 619.167 889.88 623.081 890.383C621.2 890.87 620.472 891.087 618.687 891.832C621.952 892.585 624.184 891.292 627.372 890.816C638.305 889.185 647.299 889.156 657.63 884.9L656.371 885.184C659.918 883.564 663.281 882.641 666.751 881.49C693.641 872.568 719.473 859.394 735.702 835.203C737.782 832.103 741.899 828.556 743.657 825.467C747.184 819.267 749.812 812.555 753.133 806.173C755.209 799.75 758.63 792.82 760.637 786.198C761.578 783.094 764.233 779.407 765.059 776.214C765.906 772.938 766.354 769.574 767.276 766.299L772.267 748.215C772.763 746.349 774.178 742.741 774.394 741.096C777.771 715.288 778.602 689.02 778.951 663.008C778.99 660.088 778.217 656.801 778.153 653.567C776.736 661.447 777.005 668.201 776.965 676.164L776.482 676.151C776.796 667.241 776.115 656.898 776.938 647.99C777.206 645.09 777.519 642.576 777.727 639.552C777.138 638.962 777.399 639.274 777.393 638.006L777.84 637.591C779.681 641.01 778.411 642.355 778.767 644.923C781.183 641.997 779.344 601.891 781.524 595.355Z"
     id="path3"
     style="fill:#f0f0f0;fill-opacity:1" />
  <path
     fill="#B1B0B0"
     transform="scale(0.976562 1)"
     d="M440.27 131.35C482.072 176.484 440.568 217.697 407.884 251.241C395.17 264.29 377.876 288.038 372.637 305.288C363.443 335.563 366.626 377.285 377.769 406.671C378.572 408.169 378.829 408.827 379.375 410.393C381.146 413.325 383.814 419.085 385.489 421.446C389.653 427.312 395.264 433.949 399.928 439.404C393.817 438.012 389.688 427.318 385.636 423.723C379.04 417.872 379.022 416.354 375.399 409.262C373.893 408.833 373.748 408.954 372.689 407.87C372.81 406.506 372.661 407.175 373.718 405.886C372.946 401.977 372.193 397.792 371.195 393.929C370.852 392.216 368.737 389.002 368.625 387.472C368.076 379.971 365.885 372.377 365.084 365.037C363.505 350.572 363.811 335.698 365.955 321.31C367.041 314.027 368.133 306.587 370.964 299.707C375.857 287.208 383.515 277.469 391.146 266.848C398.507 256.602 403.221 251.552 412.352 242.719C422.039 233.347 432.447 220.3 440.064 209.26C446.984 199.23 453.873 188.04 453.975 175.641C454.584 162.838 452.739 159.223 447.522 147.368C445.195 142.08 441.611 137.122 440.36 131.814C440.33 131.659 440.3 131.504 440.27 131.35Z"
     id="path4"
     style="fill:#f0f0f0;fill-opacity:1" />
  <path
     fill="#DDDCDC"
     transform="scale(0.976562 1)"
     d="M379.375 410.393C378.789 410.701 377.975 411.189 377.781 410.242C377.292 407.852 375.325 408.852 374.12 407.365C374.695 404.024 373.121 400.438 373.66 399.556L373.76 399.588C375.478 401.542 373.792 402.955 377.769 406.671C378.572 408.169 378.829 408.827 379.375 410.393Z"
     id="path5"
     style="fill:#f0f0f0;fill-opacity:1" />
  <path
     fill="#B1B0B0"
     transform="scale(0.976562 1)"
     d="M715.588 179.509C721.376 184.42 727.304 191.593 731.966 197.485C770.373 246.017 776.823 312.015 780.152 371.682C781.644 388.293 782.688 405.116 782.697 421.808C782.662 451.925 781.808 482.037 781.267 512.143C780.982 528.048 782.216 544.41 781.662 560.371C781.485 565.454 782.132 572.998 781.475 577.824C779.954 576.086 782.196 541.306 779.443 534.944C779.706 535.552 779.191 512.513 779.293 512.021C781.718 500.331 780.25 491.801 779.113 479.85C778.761 476.351 780.883 467.455 780.978 463.112C781.272 449.685 781.895 436.191 781.227 422.766C780.747 422.759 780.267 422.753 779.788 422.746L779.601 421.119C779.446 423.108 779.278 425.097 779.097 427.084L778.66 427.301C777.638 425.45 778.302 413.073 778.169 409.837C778.248 404.368 777.378 398.745 777.338 393.313C777.225 378.045 776.139 362.915 774.685 347.722C774.325 343.958 773.64 339.992 773.382 336.242C772.423 322.296 770.971 308.715 767.877 295.047C766.812 290.276 766.567 284.923 765.456 280.031C763.653 272.087 761.307 264.299 758.88 256.521C758.264 254.465 755.384 247.092 755.237 245.556L755.911 245.97C758.274 252.873 762.263 260.132 763.603 267.118C764.089 269.648 763.999 269.35 765.151 271.867C765.603 270.202 764.386 268.27 764.007 266.496C758.574 241.086 746.213 217.592 730.44 197.105C726.679 192.219 718.051 184.368 715.588 179.509Z"
     id="path6"
     style="fill:#f0f0f0;fill-opacity:1" />
  <path
     fill="#B1B0B0"
     transform="scale(0.976562 1)"
     d="M291.658 855.08C296.313 856.789 305.09 865.354 311.767 868.407C311.908 867.473 311.412 867.231 310.668 866.173C312.619 866.666 314.877 868.898 317.721 870.002C321.585 871.503 326.458 873.262 330.216 875.064C332.706 876.258 342.434 879.816 344.631 879.961C342.388 881.374 335.606 876.761 331.92 878.026C337.119 880.663 361.905 888.175 366.817 887.49C360.583 887.102 357.597 883.997 351.636 883.459C350.033 883.314 346.537 882.042 345.282 881.101C346.343 880.712 378.092 887.329 382.893 888.164C388.414 889.125 401.584 889.519 406.277 891.291C403.226 890.993 399.648 890.552 396.65 890.303C394.34 890.111 389.631 891.307 387.19 891.113C384.137 890.87 381.55 889.614 378.434 889.898C385.476 894.401 452.986 898.094 466.8 898.713C504.737 900.412 544.138 901.282 582.123 898.633C586.996 898.293 595.291 896.875 599.626 897.441L599.717 897.979C562.515 902.14 521.065 901.932 483.776 900.15C426.488 897.413 335.363 896.996 291.658 855.08Z"
     id="path7"
     style="fill:#f0f0f0;fill-opacity:1" />
  <path
     fill="#D2D2D2"
     transform="scale(0.976562 1)"
     d="M240.037 422.223C241.541 429.806 240.422 525.604 239.286 527.673C239.246 527.746 239.162 527.784 239.1 527.84C238.265 517.545 239.854 499.372 239.858 488.063C239.866 466.263 239.026 443.888 240.037 422.223Z"
     id="path8"
     style="fill:#f0f0f0;fill-opacity:1" />
  <path
     fill="#D2D2D2"
     transform="scale(0.976562 1)"
     d="M405.551 445.104C411.259 449.316 416.142 453.776 422.299 457.916C427.427 461.364 432.877 463.703 437.545 466.741C433.25 466.288 426.546 461.978 422.81 459.588C417.36 456.101 408.055 451.094 405.551 445.104Z"
     id="path9"
     style="fill:#f0f0f0;fill-opacity:1" />
  <path
     fill="#DDDCDC"
     transform="scale(0.976562 1)"
     d="M236.559 688.975C237.013 689.804 237.425 690.501 237.43 691.494C237.501 705.806 237.315 719.986 238.601 734.262C238.656 734.869 238.561 735.252 238.438 735.838C236.075 732.287 236.298 695.135 236.559 688.975Z"
     id="path10"
     style="fill:#f0f0f0;fill-opacity:1" />
  <path
     fill="#D2D2D2"
     transform="scale(0.976562 1)"
     d="M238.663 550.64C239.534 551.588 239.774 586.89 239.181 589.608C239.091 589.536 238.579 587.075 238.495 586.743C238.268 583.499 238.521 577.34 238.525 573.873C238.536 566.211 238.483 558.287 238.663 550.64Z"
     id="path11"
     style="fill:#f0f0f0;fill-opacity:1" />
  <path
     fill="#D2D2D2"
     transform="scale(0.976562 1)"
     d="M237.524 624.829C237.472 618.125 237.809 611.183 237.965 604.45C238.055 600.564 237.892 594.975 238.425 591.32C239.204 597.881 239.583 618.986 237.524 624.829Z"
     id="path12"
     style="fill:#f0f0f0;fill-opacity:1" />
  <path
     fill="#D2D2D2"
     transform="scale(0.976562 1)"
     d="M641.744 416.684C645.293 407.901 648.443 401.504 650.722 391.975C650.898 399.282 648.163 403.861 645.632 410.576C644.573 413.385 644.115 414.896 641.744 416.684Z"
     id="path13"
     style="fill:#f0f0f0;fill-opacity:1" />
  <path
     fill="#D2D2D2"
     transform="scale(0.976562 1)"
     d="M240.145 406.304C240.192 399.712 241.28 384.405 242.471 377.854C243.154 383.594 241.958 389.494 241.849 395.25C241.822 396.687 240.522 396.21 241.205 399.006C241.706 401.057 240.737 404.285 240.145 406.304Z"
     id="path14"
     style="fill:#f0f0f0;fill-opacity:1" />
  <path
     fill="#D2D2D2"
     transform="scale(0.976562 1)"
     d="M244.096 361.141C244.305 354.829 245.151 347.441 246.498 341.241C246.73 343.486 246.669 344.442 246.533 346.748C246.361 349.433 245.995 352.103 245.437 354.735C244.907 357.243 245.546 358.665 244.096 361.141Z"
     id="path15"
     style="fill:#f0f0f0;fill-opacity:1" />
  <path
     fill="#D2D2D2"
     transform="scale(0.976562 1)"
     d="M653.879 323.866C656.259 327.626 656.714 337.344 655.88 341.711C655.092 336.462 654.231 329.105 653.879 323.866Z"
     id="path16"
     style="fill:#f0f0f0;fill-opacity:1" />
  <path
     fill="#D2D2D2"
     transform="scale(0.976562 1)"
     d="M656.1 350.687C657.216 354.39 657.553 366.773 654.951 369.788C655.428 362.388 655.9 358.502 656.1 350.687Z"
     id="path17"
     style="fill:#f0f0f0;fill-opacity:1" />
  <path
     fill="#D2D2D2"
     transform="scale(0.976562 1)"
     d="M238.438 735.838L238.789 736.653C239.878 738.971 240.287 748.412 239.993 751.219C238.999 746.702 238.432 740.434 238.438 735.838Z"
     id="path18"
     style="fill:#f0f0f0;fill-opacity:1" />
  <path
     fill="#B1B0B0"
     transform="scale(0.976562 1)"
     d="M670.153 288.486L670.117 287.062L670.919 286.87C675.454 291.606 682.487 315.93 683.245 322.53C684.119 330.141 686.481 342.692 685.924 350.127C684.71 366.326 684.478 384.021 682.049 400.003C681.687 403.184 679.043 411.949 677.885 415.138C676.352 417.026 676.171 420.794 675.157 422.972C656.825 462.363 618.371 495.74 575.352 506.491C536.597 516.387 495.964 516.287 457.258 506.2L457.037 505.675C457.612 505.616 463.335 506.598 464.302 506.887C466.384 507.509 472.876 507.158 474.03 507.674C481.009 510.791 485.606 509.888 493.095 509.679C494.052 510.508 496.564 511.652 497.977 511.534C502.714 512.183 515.963 512.221 521.125 511.985C516.818 510.92 511.013 512.7 515.98 507.072C517.019 507.015 516.936 507.802 517.238 508.618C518.094 510.931 521.345 508.004 522.373 507.702C524.021 508.351 522.6 512.251 526.944 508.261C530.032 505.425 530.26 509.937 531.111 508.501C532.007 506.987 533.247 507.479 533.1 509.226L533.127 509.23L533.186 509.039L533.146 509.219C535.881 504.063 537.103 507.634 536.839 511.548C538.278 511.551 537.934 511.56 539.353 511.238C537.33 510.389 538.033 508.542 539.285 507.297C541.669 504.928 541.858 506.695 543.311 507.592C544.514 506.299 544.623 505.494 546.356 505.647C546.795 507.449 546.656 507.786 548.552 507.703C551.384 503.488 551.569 508.059 556.411 503.689C557.38 504.629 557.423 505.112 558.011 506.393L558.588 506.162C558.819 505.011 558.781 505.191 559.215 504.115C560.679 503.058 561.765 502.083 563.491 501.592L564.97 502.537C566.68 502.472 566.351 502.564 567.922 501.023L568.479 500.466C569.361 500.911 569.669 501.128 570.421 501.73C581.084 497.193 592.547 493.713 603.206 488.34C626.241 476.73 643.562 459.273 657.624 437.844C660.304 433.759 660.68 430.722 663.632 425.878C670.871 414 674.292 395.803 677.533 382.229C678.009 380.238 678.002 374.124 678.393 371.66C679.233 366.359 680.49 355.302 679.705 350.316C678.814 344.659 680.833 336.813 678.703 332.423C678.497 333.663 678.646 334.264 677.928 334.955C678.216 327.597 673.444 324.181 676.838 317.741C675.812 317.373 675.926 317.429 675.028 316.946C674.089 312.577 672.098 312.171 671.861 308.269C671.723 306.015 671.452 305.613 670.923 303.557L671.336 303.33C673.786 307.164 670.844 306.047 672.073 309.294C673.193 309.676 673.206 309.672 674.188 310.325C674.543 313.098 674.295 315.729 676.732 317.289L677.686 316.948C678.319 315.145 678.269 314.506 677.828 312.604C676.052 308.343 670.316 292.739 670.153 288.486Z"
     id="path19"
     style="fill:#f0f0f0;fill-opacity:1" />
  <path
     fill="#DDDCDC"
     transform="scale(0.976562 1)"
     d="M678.703 332.423C677.204 328.947 675.564 322.719 676.851 319.08L677.662 318.413C685.879 321.826 683.073 369.416 681.115 378.193C680.474 380.301 680.49 380.469 680.27 382.687C680.102 385.621 678.77 388.631 678.708 390.247C675.515 406.049 667.378 426.471 659.367 440.657C655.464 447.569 643.591 460.842 637.811 466.921C633.141 471.833 622.358 478.581 618.293 483.327L617.821 483.722L617.446 483.976C615.565 485.219 613.883 485.845 612.597 487.68C608.947 489.59 605.821 491.255 602.07 493.009C599.101 494.397 593.809 496.382 591.18 497.84C587.284 498.65 581.539 500.955 577.431 502.349C576.138 502.84 576.063 502.796 574.664 502.923C565.355 503.951 558.531 508.03 548.552 507.703C551.384 503.488 551.569 508.059 556.411 503.689C557.38 504.629 557.423 505.112 558.011 506.393L558.588 506.162C558.819 505.011 558.781 505.191 559.215 504.115C560.679 503.058 561.765 502.083 563.491 501.592L564.97 502.537C566.68 502.472 566.351 502.564 567.922 501.023L568.479 500.466C569.361 500.911 569.669 501.128 570.421 501.73C581.084 497.193 592.547 493.713 603.206 488.34C626.241 476.73 643.562 459.273 657.624 437.844C660.304 433.759 660.68 430.722 663.632 425.878C670.871 414 674.292 395.803 677.533 382.229C678.009 380.238 678.002 374.124 678.393 371.66C679.233 366.359 680.49 355.302 679.705 350.316C678.814 344.659 680.833 336.813 678.703 332.423Z"
     id="path20"
     style="fill:#f0f0f0;fill-opacity:1" />
  <path
     fill="#D2D2D2"
     transform="scale(0.976562 1)"
     d="M678.708 390.247C679.164 389.607 679.631 388.976 680.11 388.354L680.707 388.358C680.285 394.195 677.06 405.261 675.201 410.669C665.956 437.562 653.434 457.54 631.37 475.872C626.57 479.86 624.55 481.851 618.293 483.327C622.358 478.581 633.141 471.833 637.811 466.921C643.591 460.842 655.464 447.569 659.367 440.657C667.378 426.471 675.515 406.049 678.708 390.247Z"
     id="path21"
     style="fill:#f0f0f0;fill-opacity:1" />
  <path
     fill="#D2D2D2"
     transform="scale(0.976562 1)"
     d="M548.552 507.703C558.531 508.03 565.355 503.951 574.664 502.923C575.017 503.265 575.405 503.434 575.577 503.822L575.517 504.064C567.147 508.73 549.104 510.44 539.353 511.238C537.33 510.389 538.033 508.542 539.285 507.297C541.669 504.928 541.858 506.695 543.311 507.592C544.514 506.299 544.623 505.494 546.356 505.647C546.795 507.449 546.656 507.786 548.552 507.703Z"
     id="path22"
     style="fill:#f0f0f0;fill-opacity:1" />
  <path
     fill="#DDDCDC"
     transform="scale(0.976562 1)"
     d="M543.311 507.592C544.514 506.299 544.623 505.494 546.356 505.647L546.408 506.553C546.644 509.964 544.204 510.961 543.311 507.592Z"
     id="path23"
     style="fill:#f0f0f0;fill-opacity:1" />
  <path
     fill="#DDDCDC"
     transform="scale(0.976562 1)"
     d="M521.125 511.985C516.818 510.92 511.013 512.7 515.98 507.072C517.019 507.015 516.936 507.802 517.238 508.618C518.094 510.931 521.345 508.004 522.373 507.702C524.021 508.351 522.6 512.251 526.944 508.261C530.032 505.425 530.26 509.937 531.111 508.501C532.007 506.987 533.247 507.479 533.1 509.226L533.127 509.23L533.186 509.039L533.146 509.219C535.881 504.063 537.103 507.634 536.839 511.548L536.377 511.578C531.208 511.95 526.356 512.298 521.125 511.985Z"
     id="path24"
     style="fill:#f0f0f0;fill-opacity:1" />
  <path
     fill="#D2D2D2"
     transform="scale(0.976562 1)"
     d="M670.153 288.486C673.364 293.225 677.3 305.922 678.742 311.822C678.769 311.93 677.902 312.548 677.828 312.604C676.052 308.343 670.316 292.739 670.153 288.486Z"
     id="path25"
     style="fill:#f0f0f0;fill-opacity:1" />
  <path
     fill="#D2D2D2"
     transform="scale(0.976562 1)"
     d="M577.431 502.349C581.539 500.955 587.284 498.65 591.18 497.84C591.914 497.915 595.121 498.029 595.33 498.1C595.184 499.319 580.719 503.79 578.846 503.665C578.455 503.403 577.847 502.702 577.431 502.349Z"
     id="path26"
     style="fill:#f0f0f0;fill-opacity:1" />
  <path
     fill="#DDDCDC"
     transform="scale(0.976562 1)"
     d="M682 391.963C681.979 394.643 681.995 397.323 682.049 400.003C681.687 403.184 679.043 411.949 677.885 415.138C677.43 407.197 680.375 399.766 682 391.963Z"
     id="path27"
     style="fill:#f0f0f0;fill-opacity:1" />
  <path
     fill="#D2D2D2"
     transform="scale(0.976562 1)"
     d="M612.597 487.68C613.883 485.845 615.565 485.219 617.446 483.976L617.821 483.722C617.623 487.645 616.15 487.61 612.319 489.739C611.669 490.1 612.6 487.669 612.597 487.68Z"
     id="path28"
     style="fill:#f0f0f0;fill-opacity:1" />
  <path
     fill="#D2D2D2"
     transform="scale(0.976562 1)"
     d="M681.115 378.193C681.738 380.168 682.601 384.271 681.242 386.083C681.03 386.103 681.047 386.007 680.92 385.814L681.413 385.668L680.763 385.34C680.486 384.234 680.431 383.807 680.27 382.687C680.49 380.469 680.474 380.301 681.115 378.193Z"
     id="path29"
     style="fill:#f0f0f0;fill-opacity:1" />
  <path
     fill="#DDDCDC"
     transform="scale(0.976562 1)"
     d="M268.064 423.767C268.495 421.928 268.772 409.928 268.878 407.265C269.235 396.491 269.834 385.726 270.673 374.979C271.188 376.4 271.061 376.361 271.884 377.59C270.602 405.049 269.086 432.02 269.027 459.555C269.001 471.643 270.023 483.806 269.889 495.864C268.984 545.632 268.668 595.409 268.941 645.184C269.024 651.209 269.733 657.698 269.643 663.463C268.986 705.625 263.668 747.623 282.816 787.101C283.368 788.238 286.53 795.439 285.744 796.245C283.138 791.979 278.43 777.69 276.972 776.302L276.203 776.457C275.429 774.877 274.454 771.603 273.857 769.809L274.369 774.244L274.291 774.037L274.758 775.47C273.721 774.485 273.403 773.179 272.88 771.807C272.6 775.723 278.933 784.306 277.951 786.223C274.746 785.575 272.822 780.607 272.674 777.686L272.137 777.453C268.012 771.916 266.573 752.08 265.102 744.961C264.256 740.87 265.33 738.252 261.663 735.75L263.277 734.478C263.602 730.728 261.893 725.311 261.826 721.468C261.583 707.449 262.167 693.51 262.854 679.508C263.242 671.614 262.748 663.773 262.683 655.8C262.631 649.525 263.034 643.976 262.737 637.455C262.482 631.861 262.544 623.845 262.462 617.99C262.688 617.726 262.914 617.462 263.139 617.198L264.909 617.268L264.68 616.24L263.04 615.978C262.493 614.154 262.454 602.931 263.103 601.161L263.544 601.317C263.492 605.95 263.492 610.584 263.543 615.217L264.042 615.325C264.743 613.961 264.426 601.256 264.58 598.753C264.684 593.92 265.861 588.664 265.865 583.859C265.877 567.814 265.954 551.833 266.899 535.806C267.048 533.274 265.057 530.39 265.073 528.488C265.135 520.746 265.383 513.03 265.054 505.278C264.947 502.644 266.899 500.712 266.945 497.801C266.474 497.012 265.27 495.067 265.51 494.744C268.396 490.849 266.236 480.672 267.273 476.543L267.871 476.851C267.474 467.396 267.489 457.695 267.4 448.214C267.975 441.787 267.89 430.49 268.064 423.767Z"
     id="path30"
     style="fill:#f0f0f0;fill-opacity:1" />
  <path
     fill="#B1B0B0"
     transform="scale(0.976562 1)"
     d="M268.064 423.767C268.495 421.928 268.772 409.928 268.878 407.265C269.235 396.491 269.834 385.726 270.673 374.979C271.188 376.4 271.061 376.361 271.884 377.59C270.602 405.049 269.086 432.02 269.027 459.555C269.001 471.643 270.023 483.806 269.889 495.864C268.984 545.632 268.668 595.409 268.941 645.184C269.024 651.209 269.733 657.698 269.643 663.463C268.986 705.625 263.668 747.623 282.816 787.101C283.368 788.238 286.53 795.439 285.744 796.245C283.138 791.979 278.43 777.69 276.972 776.302L276.203 776.457C275.429 774.877 274.454 771.603 273.857 769.809C271.489 758.316 268.262 745.99 267.412 734.298C266.222 717.935 266.508 700.621 266.592 684.246C267.446 677.189 267.094 664.605 267.027 657.312C266.953 649.337 267.183 640.58 266.945 632.687C267.383 618.733 266.225 605.821 266.481 592.749L267.079 550.105C267.642 526.017 268.415 500.907 267.871 476.851C267.474 467.396 267.489 457.695 267.4 448.214C267.975 441.787 267.89 430.49 268.064 423.767Z"
     id="path31"
     style="fill:#f0f0f0;fill-opacity:1" />
  <path
     fill="#D2D2D2"
     transform="scale(0.976562 1)"
     d="M266.592 684.246C266.206 678.93 266.844 675.03 266.009 669.505C264.969 662.624 265.971 652.996 266.108 646.001C266.192 641.745 265.728 636.696 266.945 632.687C267.183 640.58 266.953 649.337 267.027 657.312C267.094 664.605 267.446 677.189 266.592 684.246Z"
     id="path32"
     style="fill:#f0f0f0;fill-opacity:1" />
  <path
     fill="#B1B0B0"
     transform="scale(0.976562 1)"
     d="M702.806 801.304L704.468 801.168C708.049 802.854 707.19 805.139 706.125 807.954L706.455 808.174L707.225 807.042L707.727 807.476C707.38 808.266 706.802 809.472 706.769 810.266C706.489 816.929 701.409 819.438 697.303 823.642C696.309 824.66 695.783 828.239 694.578 828.945L694.364 826.729C694.136 826.844 693.908 826.958 693.679 827.073C691.801 829.07 685.113 831.16 683.205 832.61C678.477 836.206 672.868 841.538 668.443 845.593L668.784 845.915C673.024 844.255 681.678 834.355 684.824 834.78C676.76 841.889 666.998 849.506 655.989 850.635C650.951 851.152 646.244 851.272 641.183 852.109C636.634 852.862 633.959 855.994 630.626 856.321C627.559 857.617 612.076 859.846 609.954 856.726C610.914 851.958 626.101 848.594 630.258 846.982C634.607 845.295 639.399 843.56 643.861 842.074C647.061 841.008 651.208 840.339 654.1 838.894C657.284 837.302 658.38 833.486 660.445 831.108C662.278 828.997 665.509 826.135 667.741 824.424L667.894 825.183C665.981 828.22 663.76 828.858 661.627 831.622C663.71 831.236 665.221 829.801 667.042 828.876C681.029 821.777 688.537 807.607 702.806 801.304Z"
     id="path33"
     style="fill:#f0f0f0;fill-opacity:1" />
  <path
     fill="#B1B0B0"
     transform="scale(0.976562 1)"
     d="M401.789 149.52C406.736 148.821 411.06 147.623 415.485 149.913L415.668 150.462C369.761 148.993 315.473 203.027 300.447 243.995C285.184 285.61 274.344 333.248 271.884 377.59C271.061 376.361 271.188 376.4 270.673 374.979C272.064 356.426 274.458 337.962 277.842 319.668C279.124 312.7 280.754 306.405 282.144 299.569C281.069 298.017 285.372 281.91 286.344 279.165C287.626 275.541 285.753 273.541 286.919 270.223C293.59 251.23 299.559 230.631 311.943 214.452C315.747 209.484 319.003 204.44 322.466 199.268C324.619 196.052 328.288 193.477 330.435 189.929C331.608 189.861 332.51 189.787 333.675 189.618L333.898 189.342C335.332 187.53 335.638 187.512 337.459 185.991C339.477 184.419 341.093 183.031 342.989 181.351C345.842 175.788 350.848 173.225 356.432 171.6C362.134 167.763 367.956 164.209 373.701 160.458C374.278 159.526 375.139 158.921 374.412 158.261C376.003 156.371 388.254 151.857 391.213 151.041C397.084 149.423 396.114 148.936 401.789 149.52Z"
     id="path34"
     style="fill:#f0f0f0;fill-opacity:1" />
  <path
     fill="#DDDCDC"
     transform="scale(0.976562 1)"
     d="M330.435 189.929C331.608 189.861 332.51 189.787 333.675 189.618C326.425 198.08 312.766 215.61 307.167 225.059C300.173 236.86 293.165 258.955 288.627 272.514C286.473 278.951 284.388 293.919 282.144 299.569C281.069 298.017 285.372 281.91 286.344 279.165C287.626 275.541 285.753 273.541 286.919 270.223C293.59 251.23 299.559 230.631 311.943 214.452C315.747 209.484 319.003 204.44 322.466 199.268C324.619 196.052 328.288 193.477 330.435 189.929Z"
     id="path35"
     style="fill:#f0f0f0;fill-opacity:1" />
  <path
     fill="#DDDCDC"
     transform="scale(0.976562 1)"
     d="M373.701 160.458C374.278 159.526 375.139 158.921 374.412 158.261C376.003 156.371 388.254 151.857 391.213 151.041C397.084 149.423 396.114 148.936 401.789 149.52C390.128 152.588 384.229 155.644 373.701 160.458Z"
     id="path36"
     style="fill:#f0f0f0;fill-opacity:1" />
  <path
     fill="#DDDCDC"
     transform="scale(0.976562 1)"
     d="M342.989 181.351C345.842 175.788 350.848 173.225 356.432 171.6C354.599 173.351 345.393 179.858 342.989 181.351Z"
     id="path37"
     style="fill:#f0f0f0;fill-opacity:1" />
  <path
     fill="#DDDCDC"
     transform="scale(0.976562 1)"
     d="M744.622 292.289L744.435 291.624C740.245 276.322 738.703 259.096 731.341 244.785C730.213 242.592 729.12 240.518 728.388 238.151L728.77 237.529C733.914 240.676 742.359 270.402 743.977 277.147C748.184 295.157 751.223 313.419 753.075 331.82C753.609 337.413 753.39 343.115 753.85 348.728C753.857 350.529 755.052 352.699 755.141 354.392C757.232 393.979 760.051 433.199 757.751 472.916C757.538 476.579 757.496 492.683 755.986 494.882C755.29 494.174 755.427 494.38 755.286 494.111C756.695 484.115 754.998 473.308 755.761 463.498C756.94 448.327 756.657 435.398 755.871 420.223C755.991 417.943 754.234 392.245 753.773 390.954C753.19 389.147 754.002 380.376 754.395 378.229C754.617 368.828 753.369 356.555 752.839 347.126C752.71 344.838 749.051 319.377 748.658 318.731C748.185 317.184 747.838 315.601 747.622 313.997C747.335 311.713 747.099 308.943 746.727 306.751C745.784 301.183 744.31 298.118 744.622 292.289Z"
     id="path38"
     style="fill:#f0f0f0;fill-opacity:1" />
  <path
     fill="#D2D2D2"
     transform="scale(0.976562 1)"
     d="M744.622 292.289C747.074 299.988 748.418 310.624 748.658 318.731C748.185 317.184 747.838 315.601 747.622 313.997C747.335 311.713 747.099 308.943 746.727 306.751C745.784 301.183 744.31 298.118 744.622 292.289Z"
     id="path39"
     style="fill:#f0f0f0;fill-opacity:1" />
  <path
     fill="#D2D2D2"
     transform="scale(0.976562 1)"
     d="M753.773 390.954C753.19 389.147 754.002 380.376 754.395 378.229C754.486 380.385 754.485 383.252 754.776 385.359C755.211 388.5 754.41 388.433 753.773 390.954Z"
     id="path40"
     style="fill:#f0f0f0;fill-opacity:1" />
  <path
     fill="#D2D2D2"
     transform="scale(0.976562 1)"
     d="M607.933 208.68C607.853 210.05 607.983 210.129 607.239 211.235L606.34 210.695C603.236 204.966 596.628 199.434 593.287 193.926C589.141 187.164 586.641 176.72 588.938 169.187C592.139 158.689 597.9 154.584 607.726 151.625C609.007 151.24 609.266 150.035 611.11 151.286C611.246 153.31 611.398 152.303 610.217 154.322L610.51 154.712L610.997 154.749C613.287 154.947 613.91 155.163 616.093 155.89C615.566 156.38 615.031 156.863 614.488 157.336C603.89 158.055 592.111 166.992 593.429 178.753C593.538 179.73 592.929 180.699 592.536 181.52C593.616 184.285 596.002 190.789 597.608 193.192C608.729 209.837 623.894 221.632 637.578 235.814C641.871 240.263 646.999 244.624 649.806 249.835C650.899 251.864 652.175 253.379 653.695 255.029L653.793 255.879C649.171 255.848 641.415 240.872 637.227 236.495C628.499 227.374 615.633 218.338 607.933 208.68Z"
     id="path41"
     style="fill:#f0f0f0;fill-opacity:1" />
  <path
     fill="#DDDCDC"
     transform="scale(0.976562 1)"
     d="M607.933 208.68C607.853 210.05 607.983 210.129 607.239 211.235L606.34 210.695C603.236 204.966 596.628 199.434 593.287 193.926C589.141 187.164 586.641 176.72 588.938 169.187C592.139 158.689 597.9 154.584 607.726 151.625C609.007 151.24 609.266 150.035 611.11 151.286C611.246 153.31 611.398 152.303 610.217 154.322C606.652 154.127 599.896 157.623 597.309 159.888C583.457 172.014 592.366 190.335 601.764 201.935C603.377 203.926 605.921 207.188 607.933 208.68Z"
     id="path42"
     style="fill:#f0f0f0;fill-opacity:1" />
  <path
     fill="#B1B0B0"
     transform="scale(0.976562 1)"
     d="M592.536 181.52C592.072 179.869 591.546 178.492 591.55 176.75C591.53 171.068 593.842 165.627 597.946 161.696C604.326 155.528 608.345 156.421 616.093 155.89C615.566 156.38 615.031 156.863 614.488 157.336C603.89 158.055 592.111 166.992 593.429 178.753C593.538 179.73 592.929 180.699 592.536 181.52Z"
     id="path43"
     style="fill:#f0f0f0;fill-opacity:1" />
  <defs
     id="defs44">
    <linearGradient
       id="gradient_1"
       gradientUnits="userSpaceOnUse"
       x1="665.11871"
       y1="880.55811"
       x2="679.20929"
       y2="778.05573">
      <stop
         offset="0"
         stop-color="#A19FA1"
         id="stop43" />
      <stop
         offset="1"
         stop-color="#C0C0BE"
         id="stop44" />
    </linearGradient>
  </defs>
  <path
     fill="url(#gradient_1)"
     transform="scale(0.976562 1)"
     d="M736.557 785.977C737.514 786.604 737.741 786.802 738.369 787.757L738.942 787.098C739.281 789.166 739.5 788.29 738.638 789.881C737.909 794.542 737.648 791.586 736.58 794.505C730.541 805.693 721.389 822.215 712.709 831.43C709.487 834.833 706.037 838.011 702.383 840.944C701.067 841.986 695.592 845.507 695.316 845.962C694.632 846.915 693.015 848.439 693.428 849.766C693.543 850.137 694.797 853.39 693.132 851.895C693.374 852.113 692.125 848.771 691.946 848.392C687.751 851.445 683.737 854.249 678.867 856.175C657.99 864.431 635.695 868.122 613.714 872.125C611.318 872.561 609.246 873.012 606.787 872.912C605.041 871.771 604.634 872.237 602.725 871.849C606.381 870.887 610.542 871.331 614.251 870.642C633.078 867.123 652.213 864.089 670.351 857.694C701.56 846.69 725.914 817.135 736.344 786.344C736.415 786.222 736.486 786.1 736.557 785.977Z"
     id="path44"
     style="fill:#f0f0f0;fill-opacity:1" />
  <path
     fill="#B1B0B0"
     transform="scale(0.976562 1)"
     d="M691.946 848.392C692.49 847.226 694.17 846.541 695.316 845.962C694.632 846.915 693.015 848.439 693.428 849.766C693.543 850.137 694.797 853.39 693.132 851.895C693.374 852.113 692.125 848.771 691.946 848.392Z"
     id="path45"
     style="fill:#f0f0f0;fill-opacity:1" />
  <path
     fill="#DDDCDC"
     transform="scale(0.976562 1)"
     d="M736.58 794.505C736.094 791.479 735.977 791.535 738.638 789.881C737.909 794.542 737.648 791.586 736.58 794.505Z"
     id="path46"
     style="fill:#f0f0f0;fill-opacity:1" />
  <path
     fill="#D2D2D2"
     transform="scale(0.976562 1)"
     d="M273.857 769.809C274.454 771.603 275.429 774.877 276.203 776.457C278.219 783.088 282.241 796.21 285.858 802.107C290.603 809.843 296.925 819.209 301.533 827.395C302.207 828.593 303.315 828.906 302.288 830.392L301.344 830.478C299.029 826.921 296.493 824.74 293.527 821.711C293.77 820.749 293.775 820.712 293.89 819.767C291 816.843 293.562 820.076 290.559 818.921C286.77 812.846 271.109 782.709 272.137 777.453L272.674 777.686C272.822 780.607 274.746 785.575 277.951 786.223C278.933 784.306 272.6 775.723 272.88 771.807C273.403 773.179 273.721 774.485 274.758 775.47L274.291 774.037L274.369 774.244L273.857 769.809Z"
     id="path47"
     style="fill:#f0f0f0;fill-opacity:1" />
  <path
     fill="#D2D2D2"
     transform="scale(0.976562 1)"
     d="M755.286 494.111C752.334 500.233 753.051 567.936 752.621 577.987L752.206 578.018L752.18 577.777L752.44 579.114L752.211 578.547L752.454 578.922C751.571 575.741 752.113 567.253 752.047 563.559C751.529 534.579 754.087 505.761 752.471 476.774C752.399 475.477 754.295 470.986 754.347 467.688C754.52 456.872 753.765 446.273 754.938 435.494C755.506 430.517 755.129 425.166 755.871 420.223C756.657 435.398 756.94 448.327 755.761 463.498C754.998 473.308 756.695 484.115 755.286 494.111Z"
     id="path48"
     style="fill:#f0f0f0;fill-opacity:1" />
  <path
     fill="#D2D2D2"
     transform="scale(0.976562 1)"
     d="M345.531 366.187C345.331 366.039 348.124 386.765 349.072 389.767C356.063 411.914 362.714 430.32 378.437 448.051C380.56 450.445 389.545 460.095 390.816 462.134L390.441 462.743C381.992 455.811 377.077 448.979 370.145 441.009C362.216 431.893 361.226 429.464 357.062 418.24C353.242 407.947 347.709 397.72 346.705 386.322C346.389 382.734 343.884 368.508 345.531 366.187Z"
     id="path49"
     style="fill:#f0f0f0;fill-opacity:1" />
  <path
     fill="#B1B0B0"
     transform="scale(0.976562 1)"
     d="M736.557 785.977C743.268 767.419 747.24 745.601 749.979 726.122C750.568 721.927 750.578 717.442 751.203 713.375C751.805 715.447 751.172 717.724 751.338 719.767C752.115 729.3 751.712 734.194 749.631 743.633L751.318 746.184C750.801 746.862 748.966 747.816 749.022 747.583C746.706 757.295 744.515 767.03 741.947 776.687C741.154 779.669 739.466 782.24 739.458 785.246C739.468 786.154 739.32 786.315 738.942 787.098L738.369 787.757C737.741 786.802 737.514 786.604 736.557 785.977Z"
     id="path50"
     style="fill:#f0f0f0;fill-opacity:1" />
  <path
     fill="#D2D2D2"
     transform="scale(0.976562 1)"
     d="M457.4 872.55C461.156 874.097 465.233 872.708 469.25 873.356C473.278 874.005 478.924 873.973 482.999 873.437C485.62 873.092 481.912 873.345 483.532 873.25C483.894 873.524 484.143 875.753 485.256 875.177C486.524 874.521 485.61 873.224 487.649 873.225C488.263 873.566 488.746 876.662 485.811 877.266C480.444 875.373 478.815 876.525 473.244 875.653C469.718 875.1 471.478 876.62 469.325 876.754C468.399 876.295 467.86 874.78 466.711 874.694C465.973 874.838 465.541 876.596 464.477 875.549C463.07 874.165 461.185 875.009 458.515 874.237C457.831 874.43 457.408 875.258 457.192 875.245C455.452 875.14 456.201 873.7 456.88 873.064L457.4 872.55Z"
     id="path52"
     style="fill:#f0f0f0;fill-opacity:1" />
  <path
     fill="#DDDCDC"
     transform="scale(0.976562 1)"
     d="M267.4 448.214C265.861 453.722 267.647 477.31 265.906 482.099C265.227 479.985 265.005 456.505 264.992 452.968L265.478 452.509C266.331 453.741 266.258 455.255 266.398 456.813C266.455 450.471 266.758 429.406 267.499 424L268.064 423.767C267.89 430.49 267.975 441.787 267.4 448.214Z"
     id="path53"
     style="fill:#f0f0f0;fill-opacity:1" />
  <path
     fill="#DDDCDC"
     transform="scale(0.976562 1)"
     d="M350.749 289.35C351.502 291.962 347.271 300.732 346.878 304.749C346.459 309.035 345.323 314.996 344.906 319.495C344.925 319.288 344.115 324.784 344.214 324.484L344.151 324.513C343.204 322.29 345.085 318.643 344.964 316.968L344.907 316.258C344.858 315.87 344.81 315.482 344.761 315.093L344.815 315.148C344.312 316.455 343.956 322.013 342.741 322.618L342.594 322.502C342.594 322.503 343.558 314.345 343.702 313.622C345.199 306.16 348.225 296.355 350.749 289.35Z"
     id="path54"
     style="fill:#f0f0f0;fill-opacity:1" />
  <path
     fill="#DDDCDC"
     transform="scale(0.976562 1)"
     d="M494.899 509.09C495.669 506.576 499.036 507.527 499.005 507.491C500.831 509.582 509.022 506.466 504.739 510.323L504.491 510.552C503.208 511.79 500.058 511.283 497.977 511.534C496.564 511.652 494.052 510.508 493.095 509.679C493.328 509.521 493.457 509.359 493.732 509.381C493.756 509.39 493.78 509.399 493.805 509.407C494.413 509.467 494.397 509.414 494.899 509.09Z"
     id="path55"
     style="fill:#f0f0f0;fill-opacity:1" />
  <path
     fill="#D2D2D2"
     transform="scale(0.976562 1)"
     d="M493.095 509.679C493.328 509.521 493.457 509.359 493.732 509.381C493.756 509.39 493.78 509.399 493.805 509.407C494.413 509.467 494.397 509.414 494.899 509.09L495.767 509.474C496.717 509.922 503.173 510.56 504.491 510.552C503.208 511.79 500.058 511.283 497.977 511.534C496.564 511.652 494.052 510.508 493.095 509.679Z"
     id="path56"
     style="fill:#f0f0f0;fill-opacity:1" />
  <path
     fill="#DDDCDC"
     transform="scale(0.976562 1)"
     d="M460.285 500.646C459.192 502.096 459.195 502.315 458.313 503.694L458.216 503.663C457.198 502.573 458.046 502.455 457.691 501.267C457.12 499.757 456.36 500.741 455.494 501.076C454.921 501.298 454.128 498.851 453.165 499.802C452.866 500.097 451.702 501.471 451.221 500.557C450.975 500.138 450.536 497.736 450.78 497.407C452.14 496.166 453.201 497.489 454.133 498.128C455.178 498.844 456.354 497.646 458.016 498.267C458.767 499.065 459.523 499.858 460.285 500.646Z"
     id="path58"
     style="fill:#f0f0f0;fill-opacity:1" />
  <path
     fill="#DDDCDC"
     transform="scale(0.976562 1)"
     d="M330.435 189.929C330.566 188.849 335.857 183.328 336.962 183.569C337.292 183.978 337.298 184.492 337.344 184.999L337.459 185.991C335.638 187.512 335.332 187.53 333.898 189.342L333.675 189.618C332.51 189.787 331.608 189.861 330.435 189.929Z"
     id="path60"
     style="fill:#f0f0f0;fill-opacity:1" />
  <path
     fill="#D2D2D2"
     transform="scale(0.976562 1)"
     d="M430.452 494.912C433.729 495.272 435.757 497.23 438.721 496.847C439.907 496.694 440.782 499.106 444.307 500.362C443.581 501.837 432.136 495.895 430.452 494.912Z"
     id="path61"
     style="fill:#f0f0f0;fill-opacity:1" />
  <path
     fill="#D2D2D2"
     transform="scale(0.976562 1)"
     d="M616.093 155.89C618.515 156.317 622.9 156.059 624.192 157.658C623.89 159.049 615.762 157.51 614.488 157.336C615.031 156.863 615.566 156.38 616.093 155.89Z"
     id="path62"
     style="fill:#f0f0f0;fill-opacity:1" />
  <path
     fill="#D2D2D2"
     transform="scale(0.976562 1)"
     d="M696.044 191.025C696.766 191.658 696.797 191.742 696.867 192.756C696.964 194.177 698.689 193.34 699.49 193.558L699.622 193.722C699.538 194.461 698.063 195.837 697.481 196.512C694.993 193.352 691.926 192.459 696.044 191.025Z"
     id="path63"
     style="fill:#f0f0f0;fill-opacity:1" />
  <path
     fill="#D2D2D2"
     transform="scale(0.976562 1)"
     d="M705.75 201.683C706.219 201.999 709.316 204.737 709.588 205.074C708.634 206.225 708.826 205.285 707.903 206.781C705.315 204.199 703.474 204.484 705.75 201.683Z"
     id="path65"
     style="fill:#f0f0f0;fill-opacity:1" />
  <path
     fill="#DDDCDC"
     transform="scale(0.976562 1)"
     d="M302.089 830.889C304.305 831.129 307.826 832.841 308.034 835.157L308.122 835.975C306.041 835.65 303.394 832.533 302.089 830.889Z"
     id="path66"
     style="fill:#f0f0f0;fill-opacity:1" />
  <path
     fill="#B1B0B0"
     transform="scale(0.976562 1)"
     d="M717.048 795.224C718.563 798.043 717.665 799.59 716.435 802.275C715.089 799.801 715.943 797.672 717.048 795.224Z"
     id="path67"
     style="fill:#f0f0f0;fill-opacity:1" />
  <path
     fill="#D2D2D2"
     transform="scale(0.976562 1)"
     d="M648.705 257.288C649.422 257.983 652.127 260.481 650.552 261.349C647.735 261.634 646.788 260.559 648.346 257.968L648.705 257.288Z"
     id="path68"
     style="fill:#f0f0f0;fill-opacity:1" />
  <path
     fill="#D2D2D2"
     transform="scale(0.976562 1)"
     d="M458.016 498.267L458.932 497.882C461.654 496.698 465.596 499.23 460.285 500.646C459.523 499.858 458.767 499.065 458.016 498.267Z"
     id="path69"
     style="fill:#f0f0f0;fill-opacity:1" />
  <path
     fill="#D2D2D2"
     transform="scale(0.976562 1)"
     d="M496.615 873.908C498.181 874.742 498.892 876.236 497.064 877.272L496.48 877.632C494.082 876.571 493.273 876.278 495.922 874.437L496.615 873.908Z"
     id="path71"
     style="fill:#f0f0f0;fill-opacity:1" />
  <path
     fill="#DDDCDC"
     transform="scale(0.976562 1)"
     d="M445.203 496.287C449.56 493.113 449.613 501.049 444.231 497.212L445.203 496.287Z"
     id="path72"
     style="fill:#f0f0f0;fill-opacity:1" />
  <path
     fill="#DDDCDC"
     transform="scale(0.976562 1)"
     d="M467.714 501.354C469.394 502.081 470.605 501.848 469.828 503.611L469.477 504.437C466.877 503.981 466.584 504.008 467.714 501.354Z"
     id="path74"
     style="fill:#f0f0f0;fill-opacity:1" />
  <path
     fill="#DDDCDC"
     transform="scale(0.976562 1)"
     d="M755.495 595.315C757.32 596.775 756.34 599.671 756.224 602.073C755.326 600.887 755.432 596.877 755.495 595.315Z"
     id="path76"
     style="fill:#f0f0f0;fill-opacity:1" />
  <path
     fill="#DDDCDC"
     transform="scale(0.976562 1)"
     d="M477.408 507.264C476.979 507.082 476.686 506.678 476.645 506.214C476.604 505.75 476.823 505.301 477.213 505.046C477.604 504.792 478.103 504.774 478.511 504.999C479.099 505.323 479.33 506.051 479.036 506.655C478.742 507.259 478.027 507.527 477.408 507.264Z"
     id="path77"
     style="fill:#f0f0f0;fill-opacity:1" />
  <path
     fill="#D2D2D2"
     transform="scale(0.976562 1)"
     d="M666.285 169.862C666.58 169.525 667.033 169.374 667.47 169.466C667.908 169.557 668.263 169.877 668.398 170.303C668.534 170.729 668.43 171.195 668.125 171.523C667.664 172.02 666.889 172.054 666.386 171.6C665.883 171.145 665.838 170.371 666.285 169.862Z"
     id="path78"
     style="fill:#f0f0f0;fill-opacity:1" />
  <path
     fill="#D2D2D2"
     transform="scale(0.976562 1)"
     d="M677.705 177.785C680.18 178.278 680.43 178.264 681.68 180.559C679.738 180.307 679.467 180.06 678.279 178.507L677.705 177.785Z"
     id="path79"
     style="fill:#f0f0f0;fill-opacity:1" />
  <path
     fill="#D2D2D2"
     transform="scale(0.976562 1)"
     d="M420.94 144.49C422.617 145.507 422.903 146.052 424.077 147.667L423.495 147.572C421.708 147.3 421.099 147.318 421.003 145.356L420.94 144.49Z"
     id="path80"
     style="fill:#f0f0f0;fill-opacity:1" />
  <path
     fill="#DDDCDC"
     transform="scale(0.976562 1)"
     d="M670.424 172.297C672.448 172.642 673.342 172.455 672.74 174.679C670.699 173.968 669.41 174.42 670.424 172.297Z"
     id="path81"
     style="fill:#f0f0f0;fill-opacity:1" />
  <path
     fill="#D2D2D2"
     transform="scale(0.976562 1)"
     d="M344.366 857.073C346.096 857.282 347.953 857.469 349.06 858.919C346.951 858.785 345.443 858.932 344.366 857.073Z"
     id="path82"
     style="fill:#f0f0f0;fill-opacity:1" />
  <path
     fill="#D2D2D2"
     transform="scale(0.976562 1)"
     d="M425.575 148.307C426.667 149.476 426.677 149.837 425.853 151.301L425.394 152.166C423.965 150.77 424.763 150.084 425.575 148.307Z"
     id="path83"
     style="fill:#f0f0f0;fill-opacity:1" />
  <path
     fill="#DDDCDC"
     transform="scale(0.976562 1)"
     d="M695.978 187.975C697.534 188.859 696.666 189.48 696.044 191.025C693.774 190.583 694.929 189.549 695.978 187.975Z"
     id="path84"
     style="fill:#f0f0f0;fill-opacity:1" />
  <path
     fill="#D2D2D2"
     transform="scale(0.976562 1)"
     d="M637.09 156.763C637.499 156.326 638.179 156.291 638.632 156.682C639.084 157.073 639.147 157.752 638.774 158.22C638.519 158.539 638.109 158.693 637.707 158.622C637.305 158.55 636.974 158.264 636.845 157.876C636.716 157.488 636.81 157.061 637.09 156.763Z"
     id="path85"
     style="fill:#f0f0f0;fill-opacity:1" />
  <path
     fill="#D2D2D2"
     transform="scale(0.976562 1)"
     d="M350.822 858.113C352.937 858.938 352.834 858.843 351.936 861.02C350.162 860.904 350.268 860.671 350.677 858.923L350.822 858.113Z"
     id="path86"
     style="fill:#f0f0f0;fill-opacity:1" />
  <path
     fill="#D2D2D2"
     transform="scale(0.976562 1)"
     d="M479.275 501.2C479.356 503.131 479.952 503.9 478.511 504.999C477.708 502.987 478.084 502.985 479.275 501.2Z"
     id="path87"
     style="fill:#f0f0f0;fill-opacity:1" />
  <path
     fill="#D2D2D2"
     transform="scale(0.976562 1)"
     d="M439.652 493.189C439.842 493.116 440.573 492.692 440.799 493.027C440.819 493.358 440.542 493.576 440.336 493.832C438.874 494.281 439.208 493.996 439.652 493.189Z"
     id="path88"
     style="fill:#f0f0f0;fill-opacity:1" />
  <path
     fill="#D2D2D2"
     transform="scale(0.976562 1)"
     d="M428.336 153.274C428.582 153.127 429.021 152.772 429.245 152.939C429.185 153.275 428.867 153.485 428.63 153.709C428.479 153.812 428.027 154.236 427.727 154.164L427.679 154.085C427.771 153.705 428.036 153.554 428.336 153.274Z"
     id="path89"
     style="fill:#f0f0f0;fill-opacity:1" />
  <path
     fill="#D2D2D2"
     transform="scale(0.976562 1)"
     d="M393.106 464.471C394.001 464.382 394.25 464.65 394.385 465.469C393.7 465.817 392.661 466.292 392.99 464.99L393.106 464.471Z"
     id="path90"
     style="fill:#f0f0f0;fill-opacity:1" />
  <path
     fill="#DDDCDC"
     transform="scale(0.976562 1)"
     d="M327.438 850.13C327.798 850.003 327.89 849.917 328.103 850.002C328.113 850.256 328.123 850.51 328.134 850.764C327.886 850.907 327.639 851.05 327.392 851.193C327.346 851.183 327.3 851.174 327.254 851.165C327.26 850.803 327.348 850.495 327.438 850.13Z"
     id="path91"
     style="fill:#f0f0f0;fill-opacity:1" />
  <path
     fill="#D2D2D2"
     transform="scale(0.976562 1)"
     d="M633.289 156.226C633.605 156.092 633.812 155.935 634.128 156.005C634.347 156.328 633.758 156.597 633.595 156.779C633.244 156.945 633.039 157.257 632.717 157.037C632.746 156.679 633.043 156.482 633.289 156.226Z"
     id="path92"
     style="fill:#f0f0f0;fill-opacity:1" />
  <path
     fill="#D2D2D2"
     transform="scale(0.976562 1)"
     d="M642.277 159.485C643.756 158.961 643.773 158.95 643.307 160.005C643.057 160.078 642.222 160.477 641.99 160.085C641.981 159.819 642.103 159.735 642.277 159.485Z"
     id="path93"
     style="fill:#f0f0f0;fill-opacity:1" />
  <path
     fill="#D2D2D2"
     transform="scale(0.976562 1)"
     d="M316.138 843.11C316.813 842.665 317.316 842.492 316.918 843.532C315.713 844.84 316.073 843.99 316.138 843.11Z"
     id="path94"
     style="fill:#f0f0f0;fill-opacity:1" />
  <path
     fill="#DDDCDC"
     transform="scale(0.976562 1)"
     d="M312.12 840.584C312.344 840.521 313.079 840.171 313.303 840.515C313.326 840.859 313.057 841.089 312.851 841.368C312.106 841.436 311.633 841.417 312.12 840.584Z"
     id="path95"
     style="fill:#f0f0f0;fill-opacity:1" />
  <path
     fill="#B1B0B0"
     transform="scale(0.976562 1)"
     d="M712.89 210.544C713.19 210.415 713.509 210.181 713.837 210.206C713.938 210.447 713.813 210.647 713.738 210.938C713.417 211.147 713.327 211.26 713.1 211.236C712.96 211.043 712.942 210.773 712.89 210.544Z"
     id="path96"
     style="fill:#f0f0f0;fill-opacity:1" />
  <path
     fill="#D2D2D2"
     transform="scale(0.976562 1)"
     d="M435.408 491.153C435.755 491.072 435.858 490.995 436.044 491.098C436.046 491.174 436.047 491.25 436.048 491.326C436.015 491.496 435.981 491.666 435.947 491.836C435.723 491.933 435.499 492.031 435.274 492.128C435.276 491.794 435.341 491.493 435.408 491.153Z"
     id="path97"
     style="fill:#f0f0f0;fill-opacity:1" />
  <path
     fill="#DDDCDC"
     transform="scale(0.976562 1)"
     d="M444.231 497.212C443.074 495.822 443.828 495.052 445.203 496.287L444.231 497.212Z"
     id="path98"
     style="fill:#f0f0f0;fill-opacity:1" />
  <path
     fill="#D2D2D2"
     transform="scale(0.976562 1)"
     d="M396.48 868.56C396.657 868.506 396.833 868.452 397.009 868.398C397.017 868.597 397.027 868.466 396.939 868.826C396.629 869.074 396.751 869.004 396.554 869.09L396.512 869.062C396.463 868.866 396.485 869.008 396.48 868.56Z"
     id="path99"
     style="fill:#f0f0f0;fill-opacity:1" />
  <path
     fill="#D2D2D2"
     transform="scale(0.976562 1)"
     d="M424.026 486.046C424.583 485.932 424.414 485.877 424.702 486.462C424.432 486.543 424.253 486.65 424.036 486.551C423.988 486.355 424.006 486.497 424.026 486.046Z"
     id="path100"
     style="fill:#f0f0f0;fill-opacity:1" />
  <path
     fill="#DDDCDC"
     transform="scale(0.976562 1)"
     d="M397.168 467.681C397.383 467.677 397.563 467.622 397.723 467.731C397.695 467.948 397.512 468.102 397.368 468.288C397.225 468.328 396.897 468.486 396.701 468.41C396.82 468.136 396.979 467.934 397.168 467.681Z"
     id="path101"
     style="fill:#f0f0f0;fill-opacity:1" />
  <path
     fill="#D2D2D2"
     transform="scale(0.976562 1)"
     d="M399.15 869.691C399.291 869.653 399.601 869.505 399.787 869.589C399.637 869.887 399.45 870.113 399.232 870.387C399.056 870.375 398.893 870.396 398.78 870.297C398.838 870.188 398.895 870.079 398.953 869.97L399.15 869.691Z"
     id="path102"
     style="fill:#f0f0f0;fill-opacity:1" />
  <path
     fill="#D2D2D2"
     transform="scale(0.976562 1)"
     d="M628.516 155.569C628.694 155.49 628.872 155.412 629.05 155.333C629.115 155.481 629.065 155.565 629.005 155.893C628.907 155.935 628.809 155.978 628.71 156.021C628.562 155.932 628.57 155.771 628.516 155.569Z"
     id="path103"
     style="fill:#f0f0f0;fill-opacity:1" />
  <path
     fill="#DDDCDC"
     transform="scale(0.976562 1)"
     d="M418.539 483.063C418.66 483.007 419.016 482.778 419.205 482.839C419.38 483.035 419.345 483.138 419.413 483.471C419.102 483.609 419.049 483.69 418.788 483.667C418.603 483.482 418.631 483.39 418.539 483.063Z"
     id="path104"
     style="fill:#f0f0f0;fill-opacity:1" />
  <path
     fill="#D2D2D2"
     transform="scale(0.976562 1)"
     d="M508.824 508.595C509.192 508.607 509.068 508.576 509.245 508.65L509.269 508.711C509.136 508.937 509.003 509.164 508.87 509.39C508.684 509.391 508.498 509.393 508.312 509.394C508.453 509.108 508.631 508.864 508.824 508.595Z"
     id="path105"
     style="fill:#f0f0f0;fill-opacity:1" />
  <path
     fill="#DDDCDC"
     transform="scale(0.976562 1)"
     d="M755.912 621.488C756.118 621.526 755.996 621.487 756.288 621.636C755.973 621.548 756.089 621.603 755.912 621.488Z"
     id="path106"
     style="fill:#f0f0f0;fill-opacity:1" />
  <path
     fill="#D2D2D2"
     transform="scale(0.976562 1)"
     d="M410.386 476.593C410.458 476.592 410.53 476.591 410.601 476.591C410.707 476.753 410.652 476.63 410.724 477.047C410.634 477.019 410.544 476.992 410.454 476.964C410.431 476.84 410.409 476.717 410.386 476.593Z"
     id="path107"
     style="fill:#f0f0f0;fill-opacity:1" />
</svg>
