<?xml version="1.0" encoding="UTF-8" standalone="no"?>
<!-- Created with Inkscape (http://www.inkscape.org/) -->

<svg
   width="210mm"
   height="297mm"
   viewBox="0 0 210 297"
   version="1.1"
   id="svg1"
   inkscape:version="1.4.2 (f4327f4, 2025-05-13)"
   sodipodi:docname="bib.svg"
   xmlns:inkscape="http://www.inkscape.org/namespaces/inkscape"
   xmlns:sodipodi="http://sodipodi.sourceforge.net/DTD/sodipodi-0.dtd"
   xmlns="http://www.w3.org/2000/svg"
   xmlns:svg="http://www.w3.org/2000/svg">
  <sodipodi:namedview
     id="namedview1"
     pagecolor="#ffffff"
     bordercolor="#000000"
     borderopacity="0.25"
     inkscape:showpageshadow="2"
     inkscape:pageopacity="0.0"
     inkscape:pagecheckerboard="0"
     inkscape:deskcolor="#d1d1d1"
     inkscape:document-units="mm"
     inkscape:zoom="1.0167041"
     inkscape:cx="338.3482"
     inkscape:cy="568.01188"
     inkscape:window-width="1920"
     inkscape:window-height="1009"
     inkscape:window-x="1912"
     inkscape:window-y="-8"
     inkscape:window-maximized="1"
     inkscape:current-layer="layer1" />
  <defs
     id="defs1">
    <linearGradient
       id="swatch14"
       inkscape:swatch="solid">
      <stop
         style="stop-color:#000000;stop-opacity:1;"
         offset="0"
         id="stop14" />
    </linearGradient>
    <pattern
       id="EMFhbasepattern"
       patternUnits="userSpaceOnUse"
       width="6"
       height="6"
       x="0"
       y="0" />
    <pattern
       id="EMFhbasepattern-4"
       patternUnits="userSpaceOnUse"
       width="6"
       height="6"
       x="0"
       y="0" />
  </defs>
  <g
     inkscape:label="Vrstva 1"
     inkscape:groupmode="layer"
     id="layer1">
    <path
       id="path14"
       style="fill:#fcf6f6;fill-opacity:1;stroke:#2f2f2f;stroke-width:0.506084;stroke-opacity:1"
       d="m 81.291732,96.468967 c -1.616332,0.008 -3.010392,0.473133 -4.770765,1.398119 -0.736257,0.386866 -2.271959,1.017892 -3.412916,1.402567 -9.297942,3.134827 -12.850046,7.190427 -15.7159,17.944357 -3.115131,11.68933 -5.271981,39.98317 -4.086611,53.60636 1.737013,19.96308 14.410001,30.11811 39.680864,31.79662 1.178018,0.0782 2.443016,0.16425 2.811146,0.19092 1.891785,0.13703 13.93887,-0.0442 16.1197,-0.24244 4.77011,-0.43368 8.21713,-0.91604 11.15958,-1.56131 19.79856,-4.34169 27.49402,-11.64567 29.11495,-27.63365 0.82434,-8.1309 -0.34788,-42.90339 -1.65599,-49.12196 l -0.19719,-0.93783 0.34521,-0.63473 c 1.50047,-2.75685 0.65251,-7.39384 -2.04539,-11.18495 -3.86513,-5.43131 -9.6916,-9.02493 -19.98035,-12.323384 -0.92225,-0.295659 -2.29711,-0.84767 -3.05515,-1.226561 -3.15061,-1.574792 -4.22472,-1.560308 -9.41547,0.126582 -11.30665,3.674443 -17.417954,3.620373 -28.79091,-0.25499 -2.649933,-0.902966 -4.488476,-1.351787 -6.104808,-1.34372 z m 0.23328,0.631062 c 1.739538,0.09442 3.830572,0.556343 6.375487,1.375628 11.136063,3.585033 16.762881,3.624353 27.916891,0.195101 5.5609,-1.709867 6.93161,-1.710439 10.09988,-0.0051 0.58901,0.317057 1.37958,0.676852 1.75694,0.799486 l 0.68624,0.222819 0.53011,1.099197 c 0.88819,1.84132 1.15045,2.37327 1.17949,2.35269 0.007,-0.007 -0.001,-0.0496 -0.0181,-0.1156 -0.0471,-0.18406 -0.39991,-0.98219 -0.78406,-1.77367 -0.80894,-1.666693 -0.87337,-1.620037 1.22552,-0.88526 13.87742,4.85819 21.55924,12.86288 19.91837,20.7555 -1.6121,7.75417 -10.26757,5.82793 -18.1583,-4.04084 -2.47557,-3.09613 -5.13676,-8.25445 -6.81851,-13.21701 -1.40512,-4.146256 -2.39352,-5.421062 -4.16795,-5.375413 l -0.57039,0.01462 0.58295,0.114548 c 0.59618,0.117214 1.75954,0.936529 1.75954,1.239111 0,0.331814 -8.53266,3.003324 -12.05924,3.775654 -0.62423,0.13671 -0.97108,0.22865 -0.98491,0.25761 -1.6e-4,4.8e-4 -5e-4,0.002 -5e-4,0.002 6e-5,2.8e-4 1.1e-4,0.001 2.6e-4,0.002 9e-5,1.3e-4 5.1e-4,5e-4 0.001,0.001 0.01,0.009 0.0726,0.007 0.19222,-0.005 1.15454,-0.1229 5.66002,-1.31366 8.54877,-2.25933 4.77117,-1.5619 4.67113,-1.54518 4.88924,-0.81257 0.1136,0.38159 -4.63261,2.00144 -9.82319,3.35251 -1.21483,0.31621 -2.0883,0.57755 -1.94105,0.58059 0.14726,0.003 0.59906,-0.0781 1.004,-0.18098 0.40494,-0.10287 1.23863,-0.31207 1.85265,-0.46473 1.21203,-0.30133 5.28894,-1.53163 7.11613,-2.14739 1.93909,-0.65348 2.41751,-0.60677 2.2507,0.21916 -0.0472,0.23348 -2.35151,1.32554 -4.09759,1.94183 -12.35481,4.36071 -23.356351,4.39035 -34.363518,0.0926 -1.648276,-0.64357 -6.882295,-3.21408 -6.889128,-3.38337 -0.03047,-0.75491 0.891412,-0.53252 6.286574,1.51764 3.04272,1.15624 8.686386,2.7407 10.296291,2.89065 0.249985,0.0233 0.39761,0.034 0.397519,0.0191 -0.0062,-0.0284 -0.510629,-0.14428 -1.791716,-0.42864 -3.219051,-0.71445 -7.016819,-1.88083 -10.106671,-3.10397 -0.552193,-0.21859 -1.756927,-0.65696 -2.677246,-0.97418 -2.02704,-0.69871 -1.989124,-0.66837 -1.511881,-1.2025 l 0.385752,-0.431781 0.997983,0.42838 c 0.548965,0.235487 1.480185,0.598311 2.069197,0.806551 0.589006,0.20823 2.357831,0.83846 3.930736,1.40021 1.5729,0.56175 2.921938,1.00053 2.997876,0.97523 0.07594,-0.0253 -0.126764,-0.12401 -0.450344,-0.21942 -1.079792,-0.31839 -7.53766,-2.722509 -8.392902,-3.124457 -1.027897,-0.483088 -1.00319,-0.617377 0.184898,-1.004521 l 0.926327,-0.301799 -0.715801,0.0727 c -5.388653,0.54725 -6.307105,10.537387 -1.728424,18.801127 8.340881,15.05388 34.721928,15.28649 45.518908,0.40144 0.89005,-1.22705 3.37608,-4.09395 3.58553,-4.13499 0.0412,-0.008 0.44914,0.58577 0.90672,1.31992 l 0.83191,1.33483 -0.42812,0.7736 c -2.79843,5.05426 -6.74176,8.85566 -11.26708,11.45145 4.6971,-2.6153 8.70664,-6.39248 11.3573,-11.26263 0.4542,-0.83452 0.44803,-0.83396 0.99171,-0.0769 l 0.43806,0.60988 -0.78223,1.29298 c -4.91573,8.1249 -13.11388,13.23002 -23.94325,14.90963 -15.278243,2.3696 -29.625297,-5.66853 -33.843859,-18.96171 -2.156966,-6.79686 -1.421742,-14.2388 1.511097,-15.294057 0.910112,-0.327467 0.931256,-0.31568 0.489581,0.276434 -0.302826,0.405965 -0.735639,1.169703 -0.582943,1.028583 0.03983,-0.0368 0.340139,-0.43121 0.667414,-0.876637 1.41947,-1.931936 3.342099,-2.795645 6.241324,-2.638278 z m 37.455798,30.992701 c -3.77281,2.10066 -7.98908,3.45176 -12.30089,4.01783 4.28854,-0.50775 8.49999,-1.83758 12.30089,-4.01783 z m -12.30089,4.01783 c -13.973623,1.65441 -28.76546,-5.41987 -32.837242,-20.24554 -0.149108,-0.54291 -0.278129,-0.90459 -0.314091,-0.89207 -0.0054,0.002 -0.009,0.0141 -0.0097,0.035 -0.06342,1.85062 2.987887,8.29223 5.254061,11.09212 6.635372,8.19808 17.546808,11.37054 27.906952,10.01044 z m -32.9701,-32.3325 -0.221508,0.25106 c -3.586528,4.06378 -1.551472,15.7555 4.014949,23.06662 12.508237,16.42876 43.049639,13.94509 53.660489,-4.36383 0.77064,-1.32972 0.65515,-1.30769 1.45984,-0.27957 3.64295,4.65446 8.33914,7.70756 12.24492,7.9606 l 1.16249,0.0753 0.22255,1.35602 c 0.19584,1.19334 0.25611,8.74481 0.36457,11.16429 -0.16071,-3.22594 -0.13849,-11.42404 -0.37293,-12.38092 -0.0647,-0.26412 0.49219,-0.57264 1.04192,-0.57771 0.0772,-5e-4 0.15727,0.55897 0.50736,3.54682 0.0519,0.44293 0.0806,0.65643 0.0983,0.67108 1.3e-4,8e-5 5.1e-4,4.6e-4 10e-4,5.1e-4 h 2.7e-4 c 1.2e-4,2e-5 5e-4,2.6e-4 0.001,2.6e-4 1.2e-4,-2e-5 5.1e-4,-2.3e-4 5.1e-4,-2.6e-4 h 2.6e-4 c 1.1e-4,-8e-5 5e-4,-4.3e-4 10e-4,-5.1e-4 0.012,-0.0123 0.0188,-0.13555 0.0248,-0.35594 0.0171,-0.62784 -0.20059,-3.15834 -0.31592,-3.67261 -0.0479,-0.21357 0.0555,-0.34466 0.44459,-0.56333 0.27888,-0.15674 0.78149,-0.5264 1.11698,-0.82171 l 0.61014,-0.53692 0.0892,0.63159 c 0.2446,1.72952 0.34834,2.71774 0.53743,5.11624 0.27859,3.53365 0.5807,9.05358 0.74353,13.58733 0.074,2.06153 0.16391,4.2 0.19954,4.7522 0.70425,10.91155 0.28576,25.56187 -0.87167,30.52116 -3.17696,13.61245 -15.87255,21.02831 -39.08223,22.82889 -2.44835,0.18994 -12.15345,0.35779 -14.457434,0.25002 -26.605804,-1.24447 -39.127169,-9.46516 -42.28932,-27.76415 -1.152268,-6.66804 -0.99853,-23.91437 0.312522,-35.07251 0.03026,-0.25769 0.09555,-0.98073 0.145145,-1.60655 1.922648,-24.26378 7.289687,-35.41503 18.137725,-37.685421 z m 72.9083,39.23051 c 0.22529,4.52195 0.45462,8.77274 0.52306,17.35488 -0.005,-0.41765 0.0166,-0.60013 0.0102,-1.03067 -0.19357,-12.94903 -0.37466,-12.78649 -0.53325,-16.32421 z m 0.52306,17.35488 c 0.15332,11.96665 -0.12224,18.93964 -1.53594,23.47984 0.65369,-1.89454 1.11718,-4.02609 1.43054,-6.44794 l 0.29762,-2.30038 -0.009,-8.63429 c -0.004,-3.47751 -0.15954,-3.08209 -0.18358,-6.09723 z m -1.53594,23.47984 c -0.57472,1.66562 -1.29628,3.14798 -2.19238,4.48308 0.92457,-1.28218 1.6424,-2.71681 2.19238,-4.48308 z m -2.19238,4.48308 c -0.87589,1.21466 -1.93716,2.29258 -3.21652,3.38598 -4.83684,4.13381 -13.78413,6.90087 -23.88179,8.27966 6.26647,-0.79083 12.1114,-1.93403 16.45837,-3.75525 4.96742,-2.08117 8.36536,-4.52148 10.63994,-7.91039 z m -27.09831,11.66564 c -3.92395,0.49521 -7.97003,0.87429 -12.12567,0.96006 4.12093,-0.10043 8.19344,-0.42313 12.12567,-0.96006 z m -12.12567,0.96006 c -1.38548,0.0338 -2.74637,-0.0527 -4.12741,-0.069 1.41364,0.0187 2.70943,0.0983 4.12741,0.069 z m -4.12741,-0.069 c -3.417544,-0.0453 -6.734613,-0.25707 -9.967546,-0.58451 3.250459,0.35133 6.552011,0.54404 9.967546,0.58451 z m -9.967546,-0.58451 c -8.921911,-0.96434 -16.963271,-2.98542 -21.872491,-6.3768 -6.009164,-4.15123 -9.074526,-10.75592 -9.85588,-23.40791 0.893704,15.05255 5.032598,22.30175 14.956425,26.33962 4.366024,1.77648 10.352384,2.79491 16.771946,3.44509 z M 58.365553,166.51381 c -0.150864,-2.54091 -0.222616,-5.30045 -0.189346,-8.33771 -0.02419,3.02998 0.03411,5.82414 0.189346,8.33771 z m -0.189346,-8.33771 c 0.05615,-7.04002 0.534187,-15.40244 1.478672,-25.76819 0.107335,-1.17801 0.22416,-2.53343 0.259434,-3.012 l 0.06407,-0.8701 -0.127361,0.79818 c -0.546885,3.42361 -1.493369,17.26164 -1.749088,25.57309 -0.03927,1.27693 0.08736,2.08454 0.07427,3.27902 z m 20.281888,-56.87361 2.244155,1.04637 c 14.252417,6.64516 25.74672,6.96521 41.97602,1.16876 1.18043,-0.42159 1.7309,-0.56226 1.7687,-0.45218 0.6738,1.96139 1.5317,4.25313 1.93163,5.15966 0.32718,0.74165 0.4566,1.17668 0.3596,1.21034 -0.0833,0.0289 -0.30211,0.15612 -0.48617,0.28271 -4.1568,2.85872 -13.6054,5.84949 -20.28059,6.41916 -9.547023,0.81476 -19.33268,-1.36792 -27.402983,-6.11213 l -1.031718,-0.60648 -0.106182,-0.62034 c -0.379872,-2.21735 -0.02343,-5.43541 0.775427,-7.00132 z m 59.604715,3.74114 c -0.0201,0.001 -0.0306,0.01 -0.0306,0.0272 0,0.0352 0.36635,0.28257 0.8144,0.54946 2.8785,1.71472 7.14231,5.94911 8.28332,8.22658 0.16034,0.32004 0.3215,0.552 0.35829,0.51521 0.37528,-0.37529 -2.75716,-4.21057 -5.08799,-6.22956 -1.57226,-1.36191 -4.03563,-3.10485 -4.33742,-3.08889 z m -11.04399,4.56311 0.28768,0.51181 0.28768,0.51206 -0.43675,0.26885 c -3.67564,2.26166 -11.07458,5.00687 -15.7737,5.85244 -11.22455,2.01976 -21.310722,0.62994 -31.114567,-4.28746 -1.839125,-0.92247 -1.927082,-0.96137 -1.740196,-0.76706 0.741733,0.77119 7.13678,3.42545 10.50839,4.36147 11.915353,3.30793 24.774683,1.85696 36.593543,-4.12897 1.09412,-0.55414 2.00727,-1.0074 2.02919,-1.0074 0.0219,0 0.26039,0.40107 0.52985,0.89128 l 0.48983,0.89128 -0.97784,0.98439 c -2.76946,2.78806 -13.79131,6.25179 -21.86438,6.87108 -1.6052,0.12315 -6.472059,0.1522 -7.563344,0.0452 -6.800307,-0.66651 -12.046386,-2.05048 -16.884926,-4.45458 -2.113024,-1.04988 -2.487587,-1.61151 -3.473591,-5.20935 -0.355853,-1.29848 -0.318569,-1.3714 0.436488,-0.85283 1.53844,1.05659 5.830764,2.9954 8.772637,3.96265 12.362547,4.0646 25.118156,2.97539 37.402186,-3.19376 z m -1.59923,6.64773 c 0.019,-5e-5 0.0293,0.005 0.0293,0.0152 0,0.0655 -0.0495,0.13917 -0.10984,0.16372 -0.0603,0.0246 -0.49671,0.5264 -0.96974,1.11541 -4.26847,5.31501 -9.69305,8.39695 -16.99241,9.65424 -10.174678,1.75256 -20.015458,-1.3692 -25.294039,-8.02389 -1.066734,-1.34483 -2.06158,-2.86449 -1.801655,-2.75204 0.06713,0.029 0.497734,0.24855 0.957188,0.48801 8.094372,4.21862 19.979056,5.67492 30.205506,3.70112 4.55967,-0.88006 10.45394,-2.68356 13.08338,-4.00318 0.42761,-0.21461 0.78963,-0.35826 0.89232,-0.35856 z m 20.85411,66.05527 c -0.0473,0.006 -0.19314,0.25614 -0.3392,0.58634 -3.18741,7.20566 -12.70107,12.05357 -26.85091,14.17394 10.21724,-1.63161 18.56303,-4.56035 23.07185,-8.83174 1.77424,-1.68081 4.48291,-5.56991 4.12715,-5.92567 -0.003,-0.003 -0.005,-0.004 -0.009,-0.003 z m -27.19011,14.76028 c -1.18043,0.18851 -2.42397,0.32391 -3.65849,0.47258 1.25444,-0.13848 2.47003,-0.29449 3.65849,-0.47258 z m -3.65849,0.47258 c -4.96692,0.54831 -10.34801,0.84582 -16.280798,0.75058 -7.176945,-0.11521 -13.240867,-0.68533 -18.345547,-1.77079 3.931825,0.91093 8.279539,1.52823 12.923845,1.79668 7.84321,0.45335 15.01524,0.0289 21.7025,-0.77647 z m -34.626345,-1.02021 c -3.542301,-0.82069 -6.746918,-1.87983 -9.526621,-3.13701 2.723594,1.32331 5.880396,2.36167 9.526621,3.13701 z m -9.526621,-3.13701 c -5.026105,-2.44204 -8.576757,-5.85466 -11.004499,-10.37658 -0.158105,-0.2945 -0.24788,-0.38894 -0.199549,-0.21001 1.131402,4.18869 5.164666,7.85514 11.204048,10.58659 z" />
    <path
       style="fill:#fcf6f6;fill-opacity:1;stroke:#2f2f2f;stroke-width:0.257345;stroke-linecap:round;stroke-opacity:1;paint-order:fill markers stroke"
       d="m 96.548929,201.84546 c -25.068804,-1.31327 -37.317025,-8.80827 -41.230909,-25.23024 -0.946793,-3.97257 -1.183139,-7.30554 -1.186408,-16.73121 -0.0035,-10.20949 0.382959,-16.49122 1.750697,-28.45401 1.952028,-17.07325 6.257722,-26.54272 13.667808,-30.05952 1.158973,-0.55004 2.443465,-1.07972 2.854431,-1.17705 l 0.747203,-0.17698 -0.55234,1.08269 c -2.445652,4.79386 -0.153566,15.57343 4.657068,21.90195 1.466744,1.92956 4.167462,4.54053 6.0026,5.80314 3.320383,2.28448 8.037635,4.09022 12.730308,4.87308 3.251936,0.54251 10.890903,0.4085 13.729693,-0.24086 7.12843,-1.6306 12.9209,-4.70029 17.29331,-9.16452 1.83448,-1.87301 4.30152,-5.11414 4.65097,-6.11033 0.0573,-0.16327 1.13736,0.79651 2.40018,2.13286 3.58028,3.78876 6.939,5.74321 10.75399,6.2578 0.68814,0.0928 1.25832,0.19113 1.26706,0.21847 0.0332,0.1038 0.4999,14.15191 0.78923,23.75598 0.40491,13.44076 0.0996,22.37648 -0.93404,27.3337 -0.21625,1.03713 -0.89024,2.93163 -1.49775,4.21 -1.92889,4.0589 -6.05202,7.45128 -11.80689,9.71433 -4.29232,1.68791 -10.65177,3.32362 -14.81641,3.81091 -0.83302,0.0975 -1.51457,0.26228 -1.51457,0.36624 0,0.24378 5.71817,-0.60967 8.9557,-1.33664 6.02496,-1.35289 11.44038,-3.68396 14.71636,-6.33468 1.83197,-1.48232 3.93579,-4.12631 4.89257,-6.14876 0.83097,-1.75653 1.63529,-4.6485 2.12636,-7.64542 0.46958,-2.86581 0.51175,-13.47666 0.10362,-26.0769 -0.59095,-18.24486 -0.65556,-21.86147 -0.39373,-22.04262 0.47685,-0.32992 0.61658,0.0251 0.80613,2.04781 0.10344,1.10382 0.27588,1.90561 0.3832,1.78177 0.10732,-0.12384 0.12427,-1.08737 0.0376,-2.14117 l -0.15746,-1.916 0.96591,-0.77622 0.9659,-0.77623 0.16957,1.50692 c 0.4373,3.88618 0.67067,7.75238 1.22996,20.37665 0.54598,12.32394 0.57237,14.25398 0.28093,20.54543 -0.38486,8.30822 -0.62935,10.44841 -1.53021,13.39501 -3.71009,12.1351 -15.39377,18.93084 -35.96115,20.91655 -3.82454,0.36924 -14.197234,0.67306 -17.346557,0.50807 z m 16.594391,-3.8959 c 15.34973,-1.68425 25.08844,-5.13314 30.0654,-10.64742 1.59443,-1.76657 3.22813,-4.326 3.06798,-4.80645 -0.0586,-0.17578 -0.50097,0.38236 -0.98305,1.24031 -3.80853,6.77797 -12.6236,11.10047 -27.05492,13.26648 -5.05928,0.75935 -10.05815,1.06848 -17.27835,1.06848 -10.034271,0 -17.03913,-0.75952 -23.123847,-2.50725 -7.937745,-2.27998 -12.881844,-5.59787 -16.407374,-11.01067 -1.556927,-2.39037 -1.935853,-2.24819 -0.699798,0.26258 2.526449,5.13195 10.078086,9.60736 19.883682,11.7839 3.562398,0.79074 7.583445,1.41842 11.062931,1.72691 3.883115,0.34427 16.992486,0.11413 21.467346,-0.37687 z m -15.600593,-1.07983 c -0.08119,-0.0812 -1.730753,-0.26348 -3.665696,-0.40509 -7.588795,-0.55538 -15.109536,-2.00735 -19.849061,-3.8321 -9.893861,-3.8092 -13.837614,-9.91019 -15.384162,-23.79932 -0.121232,-1.08871 -0.235314,-1.53817 -0.25414,-1.00125 -0.05656,1.61254 0.70997,6.81041 1.413099,9.5822 0.372376,1.46796 1.248646,3.80899 2.011244,5.37323 1.167005,2.39374 1.661141,3.08061 3.621833,5.03457 4.975456,4.95837 11.339015,7.21549 24.001203,8.51312 3.654683,0.37453 4.677399,0.46127 7.485039,0.63478 0.42254,0.0261 0.701827,-0.0189 0.620641,-0.10014 z m 9.997793,-0.0115 c -0.0875,-0.0875 -0.31471,-0.0969 -0.50486,-0.0208 -0.21012,0.0841 -0.14771,0.1465 0.15914,0.15914 0.27767,0.0114 0.43325,-0.0508 0.34572,-0.13834 z m 5.46689,-0.38364 c 1.59128,-0.1556 2.95439,-0.35081 3.02914,-0.43378 0.0747,-0.083 -0.51602,-0.0743 -1.31281,0.0192 -0.7968,0.0935 -2.5155,0.24457 -3.81935,0.3356 -1.30384,0.091 -2.54197,0.2562 -2.7514,0.36706 -0.39508,0.20914 0.0235,0.1843 4.85442,-0.28812 z m -54.590014,-32.5796 c -0.12434,-4.57604 -0.229281,-5.02398 -0.27783,-1.1859 -0.02611,2.06443 0.0414,3.75376 0.150074,3.75408 0.108647,2.7e-4 0.166148,-1.15535 0.127756,-2.56818 z m 0.455345,-19.55825 c 0.349846,-5.26207 1.020908,-13.76714 1.1799,-14.95403 0.0635,-0.47408 0.01958,-0.80269 -0.09764,-0.73025 -0.553211,0.3419 -1.888358,19.36699 -1.821605,25.95699 l 0.03867,3.81934 0.20586,-4.87295 c 0.113226,-2.68013 0.335893,-6.82872 0.494803,-9.2191 z"
       id="path26" />
    <path
       style="fill:#fcf6f6;fill-opacity:1;stroke:#2f2f2f;stroke-width:0.181971;stroke-linecap:round;stroke-opacity:1;paint-order:fill markers stroke"
       d="m 99.965722,133.93397 c -0.06331,-0.10244 -0.478998,-0.18626 -0.92375,-0.18626 -0.444757,0 -1.774782,-0.16517 -2.955609,-0.36704 -9.269785,-1.58475 -17.362417,-7.34267 -21.294752,-15.15125 -0.934707,-1.85607 -2.034778,-5.31292 -2.401167,-7.54536 -0.427895,-2.60719 -0.30189,-6.66659 0.261397,-8.42108 0.413071,-1.28661 1.421525,-2.66872 2.071201,-2.838612 0.454246,-0.118783 0.474358,0.01807 0.08446,0.574719 -0.588849,0.840693 -0.145808,0.777943 0.483235,-0.06845 1.437264,-1.933884 3.062012,-2.691498 5.757437,-2.684681 1.863169,0.0046 3.753268,0.393066 7.581436,1.557793 10.806029,3.287741 15.54591,3.305881 26.77248,0.102488 6.34851,-1.811483 6.83474,-1.819277 10.39289,-0.166694 1.09381,0.508022 2.07779,0.923679 2.18662,0.923679 0.10883,0 0.58556,0.775278 1.0594,1.722848 0.93178,1.86338 0.9648,1.91801 1.08572,1.79709 0.0445,-0.0445 -0.2069,-0.74298 -0.55875,-1.55212 -0.35184,-0.80914 -0.597,-1.51387 -0.5448,-1.56608 0.1458,-0.145796 4.59023,1.56984 6.91776,2.67039 7.629,3.60732 12.521,8.21233 14.14822,13.31823 0.66948,2.1007 0.46176,5.21847 -0.46926,7.04343 -0.47732,0.93562 -1.83515,2.16411 -2.71171,2.4534 -1.15839,0.38231 -3.31896,0.15854 -4.8919,-0.50664 -1.89146,-0.79988 -4.15315,-2.35722 -6.14112,-4.22861 -4.54435,-4.27786 -7.47944,-9.16745 -10.5713,-17.61076 -1.34993,-3.686404 -2.3541,-4.860853 -4.13332,-4.834238 l -0.71687,0.01073 0.93127,0.424615 c 0.5122,0.233552 1.04543,0.562922 1.18496,0.731959 0.22561,0.273321 0.15344,0.350368 -0.65189,0.695974 -1.18291,0.50767 -6.82021,2.24176 -9.65041,2.96856 -1.22426,0.31439 -2.26496,0.61064 -2.31265,0.65834 -0.44815,0.44815 4.40678,-0.75953 9.74201,-2.42335 3.31746,-1.03456 4.36842,-1.17834 3.5136,-0.48068 -0.49649,0.4052 -4.53845,1.76607 -8.34451,2.80947 -1.5366,0.42124 -2.87344,0.84389 -2.97075,0.93923 -0.0973,0.0953 -0.11337,0.17332 -0.0357,0.17332 0.4057,0 5.07296,-1.26854 7.84551,-2.13239 1.74341,-0.54318 3.35533,-1.03129 3.58205,-1.08468 0.52133,-0.12274 0.91027,0.28482 0.55398,0.58052 -1.00676,0.83553 -7.27835,3.01225 -11.02392,3.82613 -7.64326,1.66082 -15.187158,1.59444 -21.698598,-0.19089 -3.652111,-1.00135 -8.551488,-2.98523 -11.361495,-4.60055 -0.953736,-0.54824 -0.989349,-0.5929 -0.516307,-0.6474 0.279454,-0.0322 1.369039,0.24851 2.421304,0.62379 7.338642,2.61729 12.083178,4.01514 13.515538,3.98201 0.479545,-0.0111 -0.05181,-0.20221 -1.739578,-0.62567 -1.336509,-0.33535 -3.306149,-0.88115 -4.376972,-1.21292 -2.584456,-0.80073 -9.163759,-3.17078 -9.389134,-3.38222 -0.112037,-0.105123 -0.07222,-0.273305 0.107169,-0.452691 0.256417,-0.256423 0.435515,-0.225213 1.761431,0.306955 2.496175,1.001846 8.320035,2.977526 8.535855,2.895696 0.120499,-0.0457 0.08965,-0.12079 -0.07534,-0.18341 -0.153657,-0.0583 -2.123296,-0.78925 -4.376971,-1.62427 -2.253674,-0.83501 -4.34903,-1.649132 -4.656349,-1.809156 l -0.558763,-0.290942 0.651887,-0.25452 c 1.353411,-0.528413 1.446445,-0.628906 0.487137,-0.526207 -3.334878,0.357048 -5.196797,4.316515 -4.629568,9.845025 0.597306,5.82166 3.129838,10.89491 7.215628,14.45458 7.878396,6.86393 21.466806,8.04027 32.023016,2.77224 3.60564,-1.79939 6.47158,-4.16859 9.198,-7.60376 1.7227,-2.17054 3.39213,-4.09759 3.5498,-4.09759 0.0646,0 0.4381,0.51294 0.82998,1.13985 0.47909,0.76643 0.67916,1.27275 0.6107,1.54551 -0.056,0.2231 -0.683,1.28169 -1.39335,2.3524 -4.65302,7.01355 -11.16207,11.26993 -20.12841,13.1623 -2.07513,0.43796 -2.75983,0.49432 -6.06433,0.49916 -3.099179,0.005 -4.100624,-0.0652 -5.960129,-0.41515 -11.085004,-2.086 -19.60227,-9.23917 -22.547018,-18.93595 -0.57311,-1.88721 -0.943958,-2.50365 -0.756363,-1.25727 0.187914,1.24852 0.611841,2.37746 1.891971,5.03845 1.721653,3.57877 2.971453,5.39909 5.274506,7.68221 5.224753,5.17956 11.940482,7.89151 20.149833,8.1369 4.82916,0.14435 8.54732,-0.36401 12.62211,-1.72573 5.08541,-1.69945 10.22631,-5.04142 13.49209,-8.77086 0.98728,-1.12745 3.54533,-4.79829 3.73411,-5.35851 0.0478,-0.14179 0.16421,-0.12825 0.37201,0.0433 0.67933,0.5607 0.57663,0.91946 -0.88711,3.09895 -3.9805,5.92693 -9.79715,10.12733 -17.16993,12.39902 -2.38617,0.73521 -6.06114,1.47527 -8.00836,1.61268 -0.84927,0.0599 -1.49991,0.18052 -1.44586,0.26797 0.0541,0.0875 -0.69797,0.159 -1.67115,0.159 -0.9787,0 -1.82085,-0.0832 -1.884523,-0.18625 z m 47.587108,-19.78949 c -0.003,-0.6927 -3.01113,-4.30864 -5.02805,-6.04276 -1.75916,-1.5125 -4.42256,-3.33301 -4.60673,-3.14886 -0.0768,0.0768 -0.0146,0.20976 0.13818,0.29544 2.4466,1.37177 6.94989,5.56184 8.37988,7.79705 0.81672,1.2766 1.11835,1.57347 1.11672,1.09913 z"
       id="path27" />
    <path
       style="fill:#fcf6f6;fill-opacity:1;stroke:#2f2f2f;stroke-width:0.181971;stroke-linecap:round;stroke-opacity:1;paint-order:fill markers stroke"
       d="M 99.034451,116.13071 C 90.96321,115.32688 84.926237,113.5081 78.885949,110.06048 l -1.336837,-0.76304 -0.126698,-1.35204 c -0.190824,-2.03639 0.448522,-5.96654 1.028981,-6.32529 0.08217,-0.0508 1.459906,0.49074 3.061622,1.2034 5.053343,2.24838 9.479298,3.62386 14.201014,4.41329 2.874145,0.48053 10.048959,0.47433 13.191889,-0.0114 3.43535,-0.53094 7.25641,-1.47593 11.4992,-2.84394 2.12454,-0.68501 3.89268,-1.20965 3.92921,-1.16588 0.0365,0.0438 0.57135,1.42062 1.1885,3.05965 l 1.1221,2.98007 -0.39495,0.32849 c -0.21722,0.18066 -1.48453,0.8708 -2.81624,1.53361 -3.95505,1.96851 -10.2903,3.89477 -15.36013,4.6703 -1.74556,0.26702 -7.57927,0.48838 -9.039159,0.343 z"
       id="path28" />
    <path
       style="fill:#fcf6f6;fill-opacity:1;stroke:#2f2f2f;stroke-width:0.0909854;stroke-linecap:round;stroke-opacity:1;paint-order:fill markers stroke"
       d="m 98.615383,120.5654 c -3.562455,-0.2223 -8.620403,-1.20502 -11.980418,-2.3277 -2.645222,-0.88384 -5.915599,-2.36733 -6.681092,-3.03061 -0.765994,-0.66373 -1.218605,-1.58451 -1.804104,-3.67017 -0.433836,-1.54543 -0.461413,-1.6763 -0.353197,-1.6763 0.05046,0 0.35391,0.16944 0.674322,0.37653 1.217867,0.78716 4.063857,2.13382 6.55863,3.10341 3.898346,1.51511 8.047241,2.49773 12.514899,2.96403 1.57041,0.16391 7.306947,0.16289 8.800497,-0.002 6.1531,-0.67748 11.38458,-2.16802 17.13538,-4.88214 0.97318,-0.45931 2.15459,-1.04245 2.62536,-1.2959 l 0.85595,-0.4608 0.12991,0.21462 c 0.0714,0.11805 0.19957,0.32829 0.2847,0.46721 l 0.1548,0.25259 -0.80087,0.47303 c -3.64019,2.1501 -10.62986,4.72429 -15.166,5.58539 -3.61222,0.68573 -7.18361,0.98523 -10.80685,0.90628 -7.332176,-0.15977 -13.800466,-1.81539 -20.812061,-5.32703 -1.361296,-0.68179 -1.659865,-0.78121 -1.397784,-0.46541 0.441037,0.53142 5.198624,2.59826 8.659861,3.76211 7.710695,2.59277 16.912704,2.99992 25.394524,1.12365 4.30092,-0.9514 8.3882,-2.40195 12.60447,-4.47319 1.24517,-0.6117 2.3174,-1.11217 2.38273,-1.11217 0.0653,0 0.31382,0.3578 0.55219,0.79509 l 0.43341,0.7951 -0.45182,0.48322 c -1.01104,1.08135 -1.83181,1.64514 -3.69854,2.54058 -4.26348,2.0451 -10.70168,3.84175 -16.50979,4.60722 -2.25145,0.29675 -6.78506,0.42979 -9.299107,0.27291 z"
       id="path29" />
    <path
       style="fill:#fcf6f6;fill-opacity:1;stroke:#2f2f2f;stroke-width:0.0909854;stroke-linecap:round;stroke-opacity:1;paint-order:fill markers stroke"
       d="m 99.220705,120.50754 c -2.677288,-0.11857 -6.569157,-0.75129 -9.918029,-1.61246 -2.857048,-0.73467 -5.475325,-1.71534 -7.896306,-2.95753 -1.689071,-0.86665 -2.192671,-1.45837 -2.826065,-3.32063 -0.279354,-0.82134 -0.282669,-0.95934 -0.01711,-0.71193 0.648881,0.60452 5.508965,2.68259 8.795648,3.76084 3.071831,1.00775 5.912093,1.60124 9.673373,2.02129 1.453975,0.16237 6.499844,0.22192 8.251634,0.0974 4.87529,-0.3466 9.67783,-1.38255 14.3082,-3.0864 1.74469,-0.642 3.16818,-1.25546 5.75078,-2.47831 l 2.23505,-1.0583 0.13969,0.20409 c 0.0768,0.11223 0.2766,0.45014 0.44393,0.75091 l 0.30424,0.54684 -0.68718,0.67832 c -0.83247,0.82173 -1.61104,1.34747 -3.08893,2.08581 -4.27575,2.13616 -11.49663,4.15512 -17.21052,4.8121 -2.07632,0.23873 -6.0254,0.36688 -8.258409,0.26799 z"
       id="path30" />
  </g>
</svg>
