<?xml version="1.0" encoding="UTF-8" standalone="no"?>
<!-- Created with Inkscape (http://www.inkscape.org/) -->

<svg
   width="210mm"
   height="297mm"
   viewBox="0 0 210 297"
   version="1.1"
   id="svg1"
   inkscape:version="1.4.2 (f4327f4, 2025-05-13)"
   sodipodi:docname="body.svg"
   xmlns:inkscape="http://www.inkscape.org/namespaces/inkscape"
   xmlns:sodipodi="http://sodipodi.sourceforge.net/DTD/sodipodi-0.dtd"
   xmlns="http://www.w3.org/2000/svg"
   xmlns:svg="http://www.w3.org/2000/svg">
  <sodipodi:namedview
     id="namedview1"
     pagecolor="#ffffff"
     bordercolor="#000000"
     borderopacity="0.25"
     inkscape:showpageshadow="2"
     inkscape:pageopacity="0.0"
     inkscape:pagecheckerboard="0"
     inkscape:deskcolor="#d1d1d1"
     inkscape:document-units="mm"
     inkscape:zoom="1.0167041"
     inkscape:cx="188.84551"
     inkscape:cy="499.16196"
     inkscape:window-width="1920"
     inkscape:window-height="1009"
     inkscape:window-x="1912"
     inkscape:window-y="-8"
     inkscape:window-maximized="1"
     inkscape:current-layer="layer1" />
  <defs
     id="defs1">
    <linearGradient
       id="swatch14"
       inkscape:swatch="solid">
      <stop
         style="stop-color:#000000;stop-opacity:1;"
         offset="0"
         id="stop14" />
    </linearGradient>
    <pattern
       id="EMFhbasepattern"
       patternUnits="userSpaceOnUse"
       width="6"
       height="6"
       x="0"
       y="0" />
    <pattern
       id="EMFhbasepattern-4"
       patternUnits="userSpaceOnUse"
       width="6"
       height="6"
       x="0"
       y="0" />
    <pattern
       id="EMFhbasepattern-7"
       patternUnits="userSpaceOnUse"
       width="6"
       height="6"
       x="0"
       y="0" />
  </defs>
  <g
     inkscape:label="Vrstva 1"
     inkscape:groupmode="layer"
     id="layer1">
    <path
       id="path34"
       style="fill:#000000;fill-opacity:1;stroke:#4b4b4b;stroke-width:0.437892;stroke-opacity:1"
       d="m 90.906561,89.758169 c -0.745121,0.003 -1.357377,0.245787 -2.205617,0.729548 -1.079516,0.615663 -1.547583,0.81213 -4.200335,1.763001 -7.284288,2.61103 -8.157452,3.836732 -19.259494,27.038322 -0.823043,1.72004 -2.032741,4.27399 -2.688287,5.6755 -0.655541,1.40151 -2.116155,4.4507 -3.245858,6.77593 -1.788748,3.68174 -2.873546,5.93939 -4.981249,10.36665 -1.306787,2.74493 -1.235156,3.04005 1.117854,4.59679 4.476785,2.96182 8.861613,4.94454 9.943722,4.49632 1.156322,-0.47897 3.850683,-4.97908 9.539797,-15.93353 1.805567,-3.47664 3.414666,-6.74974 3.640955,-7.40637 0.171404,-0.49737 0.06427,8.21524 -0.214974,17.48993 -0.335556,11.14498 -0.531561,13.39732 -1.379218,15.8437 -0.988484,2.85283 -0.924687,3.24223 0.821646,5.00478 2.424059,2.44657 3.254468,4.06573 4.854077,9.46557 2.026978,6.84256 2.176707,7.01625 7.12102,8.26106 4.498206,1.13249 7.277443,1.5491 11.46708,1.71842 5.00799,0.2024 9.65295,-0.33397 15.57871,-1.79853 4.6285,-1.14394 4.63266,-1.14855 6.49398,-7.27964 1.86228,-6.13422 2.7476,-7.71644 5.97804,-10.68391 1.04571,-0.96059 1.08882,-1.76012 0.23897,-4.43137 -0.28375,-0.89187 -0.59968,-2.09073 -0.70217,-2.66408 -0.55431,-3.10087 -1.29193,-16.04941 -1.52744,-26.81407 -0.0341,-1.56077 -0.0878,-3.17664 -0.11925,-3.59072 l -0.0573,-0.75285 0.30164,0.69492 c 1.31658,3.03443 6.85605,13.13994 9.49205,17.31614 1.57562,2.49625 1.55075,2.45906 2.49843,3.73826 1.51287,2.04211 1.92941,2.21174 3.75636,1.52902 3.65914,-1.36739 9.27952,-4.85825 9.78441,-6.07716 0.3023,-0.72981 0.19799,-0.95869 -7.10812,-15.57441 -3.91836,-7.83861 -7.44742,-14.95561 -7.84219,-15.81563 -1.37621,-2.99817 -4.84866,-9.91649 -5.87644,-11.70763 -3.57319,-6.227087 -4.84672,-7.280202 -11.75696,-9.724444 -1.41725,-0.501303 -1.86319,-0.722302 -2.93471,-1.45344 -1.47415,-1.00587 -2.1554,-0.991611 -5.19532,0.108618 -7.082,2.563166 -10.41294,2.527505 -18.331035,-0.196417 -1.37984,-0.474682 -2.257704,-0.711314 -3.002824,-0.708278 z m 0.07218,0.543314 c 0.815332,0.02049 1.860623,0.350584 3.814745,1.006977 7.322424,2.459616 10.472894,2.382303 18.580404,-0.455742 2.14721,-0.751633 2.3968,-0.739328 3.81225,0.187366 0.52929,0.346523 1.23411,0.757419 1.56636,0.913293 0.69099,0.324174 0.69034,0.323044 1.76775,2.838089 1.23386,2.880233 2.0261,4.285395 3.15308,5.591774 l 0.57726,0.6689 -0.18306,1.70552 c -0.10058,0.93801 -0.19733,1.86176 -0.2152,2.05288 l -0.0326,0.34757 -0.80875,-0.81983 c -1.97937,-2.00681 -3.46738,-4.711924 -5.48519,-9.970876 -0.86292,-2.248993 -1.45378,-3.398148 -1.74716,-3.398148 -0.18304,0 -0.40941,0.279704 -0.37858,0.467735 0.0121,0.07357 -0.7675,0.484363 -1.41022,0.743125 -0.24867,0.10012 -0.42574,0.208519 -0.39351,0.240769 0.0323,0.03225 0.52192,-0.120495 1.08822,-0.339429 1.21868,-0.471153 1.34646,-0.396688 0.75738,0.441259 -0.79158,1.125978 -0.88469,1.202899 -2.10968,1.746028 -5.41641,2.401509 -12.36995,2.691519 -17.998846,0.750594 -1.830917,-0.631327 -3.651591,-1.44777 -3.651591,-1.637412 0,-0.06045 0.06519,-0.07302 0.144824,-0.02806 0.04802,0.02711 0.07444,0.03845 0.08147,0.03598 1.14e-4,-5.5e-5 5.69e-4,-3.88e-4 6.57e-4,-4.38e-4 l 2.23e-4,-2.26e-4 2.28e-4,-2.26e-4 2.28e-4,-2.27e-4 2.23e-4,-2.26e-4 2.28e-4,-2.26e-4 v -2.27e-4 -2.26e-4 -2.26e-4 c -5e-6,-2.18e-4 0,-5.26e-4 0,-6.57e-4 -0.0027,-0.02827 -0.241178,-0.223781 -0.612107,-0.495568 -0.563567,-0.412936 -0.490579,-0.485079 0.193929,-0.191665 0.295686,0.126756 0.537656,0.182929 0.537656,0.12491 0,-0.05802 -0.311914,-0.219218 -0.693116,-0.358212 -0.788052,-0.287338 -0.962315,-0.445498 -0.908542,-0.824815 0.04918,-0.346945 0.239654,-0.311266 1.467699,0.274033 0.531526,0.253332 0.992617,0.434352 1.024627,0.402338 0.03201,-0.03201 -0.325582,-0.247982 -0.794721,-0.479954 -0.46914,-0.231972 -0.982375,-0.526777 -1.140484,-0.655101 l -0.287612,-0.233301 0.277426,0.06132 c 0.188889,0.04175 0.239505,0.0234 0.158854,-0.05725 -0.522825,-0.522826 -1.019727,0.07992 -1.935205,2.347273 -1.880092,4.656383 -3.612925,7.690112 -5.637482,9.869272 -1.113484,1.19851 -1.026112,1.25627 -1.37107,-0.90786 -0.666812,-4.183337 -1.422359,-6.351352 -2.393887,-6.868712 -0.411829,-0.219308 -0.381689,-0.04013 0.06992,0.414331 0.802752,0.807813 1.452373,3.016575 2.287984,7.780871 0.998012,5.69024 0.331116,10.06512 -2.153118,14.12618 -0.760293,1.24287 -0.855561,1.58159 -0.643105,2.28753 0.224547,0.74609 0.100733,0.79594 -0.677278,0.27199 -0.79099,-0.53269 -0.810542,-0.50312 -0.200716,0.30459 0.255903,0.33894 0.510397,0.73544 0.565716,0.88093 0.72891,1.91717 -2.153507,8.85833 -8.790337,21.16823 -1.886945,3.49988 -3.531526,6.2554 -4.476176,7.49982 -0.368526,0.48547 -0.235634,0.531 -1.838129,-0.63157 -3.265061,-2.36871 -8.373259,-5.01496 -9.680321,-5.01496 -0.122338,0 -0.22244,-0.0767 -0.22244,-0.1704 0,-0.30996 1.4943,-3.53618 1.637863,-3.53618 1.073058,0 8.524948,4.05982 11.017677,6.00248 0.366988,0.28601 0.694606,0.49249 0.728192,0.45891 0.404445,-0.40445 -8.947116,-5.774 -11.255505,-6.46275 l -0.478143,-0.14256 0.667544,-1.40479 c 0.36719,-0.77264 1.459484,-3.04672 2.427378,-5.05343 1.929057,-3.99948 4.480166,-9.35797 5.79,-12.16179 4.894021,-10.47608 9.49325,-19.52827 11.65671,-22.943209 2.350384,-3.709986 3.422093,-4.513456 8.502502,-6.373367 0.86002,-0.314848 1.641866,-0.605725 1.737427,-0.646501 0.09556,-0.04078 0.199885,-0.07925 0.231719,-0.08531 0.256447,-0.04876 1.313715,-0.514266 1.842202,-0.811238 1.034449,-0.58129 1.619967,-0.870422 2.435295,-0.849933 z m 28.624369,1.966432 c 0.004,-2.29e-4 0.008,6.57e-4 0.0127,0.0025 0.0849,0.03253 0.85796,0.307176 1.71797,0.610296 1.94735,0.686355 3.80816,1.506268 4.6029,2.028208 l 0.6069,0.398491 -0.28353,0.14867 c -0.7356,0.385422 -1.91484,3.476093 -1.91484,5.01859 0,1.08913 -2.12149,-2.051524 -3.36964,-4.988267 -0.39259,-0.923725 -0.89392,-2.038549 -1.11401,-2.477387 -0.21525,-0.429169 -0.3216,-0.737113 -0.25842,-0.74109 z m -29.441037,0.322912 h 2.28e-4 2.27e-4 c 1.36e-4,7e-6 2.81e-4,0 4.38e-4,0 0.144745,0 1.240976,1.202989 2.163526,2.374427 3.544028,4.50014 7.521581,6.463016 12.069688,5.955866 4.02664,-0.449 6.83127,-2.265064 10.39901,-6.733614 1.54725,-1.937923 1.28455,-1.93493 2.0893,-0.02376 l 0.15026,0.356628 -0.39419,0.627946 c -0.62714,0.999204 -0.64627,1.033225 -0.5836,1.033225 0.0327,0 0.28505,-0.336243 0.56074,-0.747198 l 0.50145,-0.747199 0.12242,0.458909 c 0.20453,0.766265 -0.92822,2.583872 -2.7401,4.396526 -2.05638,2.057257 -4.34995,3.306267 -7.5883,4.132447 -3.43324,0.8759 -8.141202,0.34437 -11.386531,-1.28553 -3.135597,-1.57479 -7.016591,-5.862545 -6.509587,-7.19185 l 0.132375,-0.346671 0.406862,0.665283 c 0.223776,0.365872 0.452198,0.665283 0.507788,0.665283 0.05559,0 -0.108159,-0.315153 -0.363866,-0.700131 l -0.464796,-0.699905 0.424291,-1.095228 c 0.231605,-0.597745 0.456471,-1.087836 0.502354,-1.095454 z m 2.214216,1.716385 c 0.02505,-4.03e-4 0.06945,0.01932 0.135322,0.062 0.874246,0.566437 4.342606,1.47117 7.162427,1.868223 4.113632,0.579232 9.058322,0.103683 13.015792,-1.251592 0.95478,-0.326975 1.40627,-0.437606 1.31382,-0.32178 -2.9979,3.755914 -5.89857,5.523527 -9.70589,5.914227 -3.44264,0.35328 -6.387663,-0.612727 -9.13475,-2.996259 -1.148051,-0.996121 -3.053156,-3.27054 -2.786721,-3.274822 z m 34.427501,1.17918 c 1.17048,0 5.03489,6.341598 9.21122,15.115508 2.84507,5.97707 4.63024,9.6195 8.85574,18.06922 2.48487,4.969 4.92941,9.82219 5.43223,10.78483 0.9524,1.82334 0.98417,1.89831 0.80446,1.89831 -0.1963,0 -2.10482,0.7197 -2.05107,0.77345 0.0287,0.0287 0.51019,-0.10952 1.06989,-0.30707 1.26707,-0.44722 1.17698,-0.4943 1.82387,0.95493 0.68401,1.53243 0.69297,1.70598 0.0889,1.70598 -1.72492,0 -7.21297,2.91497 -9.79709,5.20369 -0.5088,0.45064 -0.95956,0.81938 -1.00177,0.81938 -0.21006,0 -1.9588,-2.17176 -1.95127,-2.4233 0.006,-0.20004 3.39085,-2.55896 5.07063,-3.5337 0.52022,-0.30187 0.92603,-0.5713 0.91307,-0.60509 -6e-5,-1.2e-4 -1.5e-4,-3.3e-4 -2.3e-4,-4.4e-4 -4e-5,-5e-5 -3.6e-4,-3.1e-4 -4.4e-4,-4.4e-4 v -2.2e-4 c -0.12918,-0.12919 -3.6132,2.09462 -5.13851,3.2798 l -0.94905,0.73724 -0.5139,-0.72502 c -2.25546,-3.18225 -9.99606,-17.44232 -10.70471,-19.72067 -0.36455,-1.17202 -0.69156,-2.9575 -0.77843,-4.25102 l -0.0754,-1.12374 0.45732,-0.28874 c 1.33069,-0.84002 1.79501,-3.70547 0.62727,-3.87132 -0.30524,-0.0433 -0.33017,0.0576 -0.0819,0.33196 0.49477,0.54672 0.2824,1.73413 -0.44827,2.50749 l -0.48335,0.51163 0.038,-0.96194 0.038,-0.96217 -0.75354,-1.52359 c -2.67927,-5.41737 -3.07155,-8.87936 -1.92728,-17.00884 0.43685,-3.103621 1.37997,-5.386082 2.22553,-5.386082 z m -38.108505,0.572506 0.50213,0.81418 c 6.261377,10.155652 21.876665,9.907112 28.174285,-0.448501 l 0.2186,-0.359569 0.32494,0.839976 c 1.35033,3.492226 3.31288,6.559556 5.16432,8.071426 l 0.62862,0.51344 0.0186,1.98386 c 0.0392,4.18776 0.53337,6.33041 2.40476,10.42548 0.68538,1.49978 0.71174,1.67777 0.48583,3.28274 -0.34182,2.42852 0.008,17.29743 0.62568,26.60069 0.0635,0.95557 0.19266,2.90571 0.28694,4.33362 0.36064,5.4622 0.59944,7.00716 1.54644,10.00232 0.34942,1.10512 0.57836,2.28527 0.4433,2.28527 -0.0372,0 -0.19433,-0.12666 -0.34916,-0.2815 -0.76101,-0.761 -2.53761,-0.62849 -5.47547,0.40845 -3.65593,1.29039 -6.57568,3.34984 -9.34451,6.59106 -0.57141,0.6689 -1.07849,1.2599 -1.12691,1.31336 -0.0484,0.0535 -0.48246,-0.13355 -0.96443,-0.41569 -0.48196,-0.28212 -1.32265,-0.68562 -1.86822,-0.89654 -0.87881,-0.33976 -0.9743,-0.40451 -0.83794,-0.56866 6.12335,-7.3713 11.74996,-10.84415 17.67933,-10.912 0.99204,-0.0114 1.05396,-0.024 0.58767,-0.11903 -1.58822,-0.32355 -5.44919,0.59909 -8.13886,1.94493 -2.8808,1.44149 -6.07668,4.13932 -9.19901,7.76503 l -1.24639,1.44711 -0.35052,-0.0613 c -0.19279,-0.0338 -0.94983,-0.16578 -1.68244,-0.2935 -1.86626,-0.32536 -4.16697,-0.50882 -5.32815,-0.42474 -3.707338,0.26847 -5.797951,0.74658 -7.873645,1.80079 -0.351767,0.17866 -0.833452,0.45756 -1.070338,0.61958 l -0.43085,0.29439 -0.842237,-1.12328 c -3.954354,-5.27336 -11.819548,-9.38082 -14.23932,-7.43624 -0.729151,0.58596 -0.692797,0.22506 0.339655,-3.35877 0.749311,-2.60099 0.933195,-5.25553 1.403202,-20.26964 0.04886,-1.56078 0.100877,-4.24511 0.115634,-5.96514 0.05356,-6.24533 0.193596,-9.21137 0.536299,-11.35123 0.278586,-1.7395 0.300179,-2.06041 0.184878,-2.753 -0.214611,-1.28914 -0.182443,-1.45671 0.551914,-2.87679 1.060171,-2.05013 1.512232,-3.37072 2.05785,-6.01085 0.241996,-1.17095 0.339493,-4.69669 0.163154,-5.90269 l -0.136679,-0.93434 1.271733,-1.21855 c 1.623085,-1.5553 4.018891,-5.145579 4.659018,-6.981854 z m 63.619615,48.759812 -0.40075,0.41366 c -1.08847,1.12301 -6.0833,4.02162 -8.76137,5.08443 -1.43863,0.57094 -1.48186,0.53684 -0.43176,-0.34011 2.29974,-1.92051 5.50542,-3.7485 8.20539,-4.67915 z m -97.930123,0.26499 c 0.103356,0.005 0.28237,0.0499 0.547614,0.14029 2.647405,0.90205 5.982432,2.75615 9.402444,5.22768 0.584529,0.42242 0.225011,0.34288 -1.262454,-0.27946 -3.614778,-1.51239 -9.68668,-5.13926 -8.687604,-5.08851 z m 24.198202,19.08842 c 0.725556,0 4.411916,3.61734 4.411916,4.32932 0,0.13593 0.496919,0.88794 0.551008,0.83386 0.225439,-0.22544 -2.238936,-3.42582 -3.51084,-4.55945 l -0.658497,-0.58699 0.795627,0.17605 c 1.35178,0.29912 1.512994,0.42056 2.488477,1.8766 1.764782,2.63418 2.88162,5.10459 4.325244,9.56718 l 0.890211,2.75232 -0.511409,0.7687 c -0.281258,0.42283 -0.785214,1.06835 -1.120118,1.43466 -0.334904,0.3663 -0.654696,0.66618 -0.71054,0.66618 -0.301296,0 -1.090631,-1.85537 -1.723853,-4.05211 -0.257388,-0.89292 -0.681801,-2.36635 -0.943166,-3.27415 -1.140506,-3.96134 -2.256311,-6.03106 -4.390866,-8.14406 -1.423205,-1.40882 -1.400671,-1.78811 0.106806,-1.78811 z m 49.257431,0.0622 c 0.7589,-0.004 1.3316,0.22963 1.45276,0.5931 0.022,0.066 -0.61692,0.76648 -1.41995,1.55663 -2.67792,2.63492 -3.38133,3.98126 -5.14893,9.85388 -1.73298,5.75761 -1.91889,6.00898 -4.99211,6.75353 -0.66296,0.16061 -1.29412,0.29205 -1.40253,0.29213 -0.33224,2.6e-4 -1.61515,-1.65751 -2.94195,-3.80161 -2.80307,-4.52976 -4.24985,-5.23705 -10.70156,-5.23062 -6.141052,0.006 -7.096812,0.51634 -10.446302,5.57548 -0.744639,1.12472 -1.656907,2.36071 -2.027303,2.74667 l -0.673429,0.70171 -1.400714,-0.43741 c -2.57133,-0.80305 -2.717367,-0.9612 -1.73494,-1.88022 0.763162,-0.7139 1.582024,-1.87304 3.075689,-4.35398 2.745231,-4.55977 6.599325,-6.43804 13.206319,-6.43673 6.86973,0.002 10.70119,1.83356 13.62428,6.51457 0.25857,0.41409 0.82828,1.32633 1.26585,2.02708 0.7835,1.25478 2.38233,3.06935 2.70435,3.06935 0.0854,0 -0.19295,-0.36902 -0.61844,-0.82006 -0.42549,-0.45104 -1.00385,-1.1793 -1.28531,-1.6184 l -0.51186,-0.79834 0.21972,-0.51209 c 0.12075,-0.28169 0.3766,-0.99979 0.56866,-1.59577 1.46107,-4.53384 3.39935,-8.55936 4.98713,-10.35715 0.22863,-0.25886 0.57482,-0.65611 0.76916,-0.88274 0.34012,-0.39666 0.81891,-0.60044 1.96326,-0.83568 0.31729,-0.0652 0.32658,-0.0588 0.10816,0.0742 -0.42057,0.25623 -1.21049,0.93539 -1.15384,0.99204 0.0301,0.0301 0.25134,-0.0958 0.49173,-0.27991 1.14221,-0.87464 1.21022,-0.90525 2.0221,-0.90968 z m -45.878064,0.64583 0.950633,0.4055 c 3.386404,1.44459 5.94179,3.4598 8.376682,6.60599 l 0.708049,0.9151 -0.692889,0.75015 c -0.960515,1.03993 -1.607001,1.9275 -2.486891,3.41421 -0.656825,1.10981 -0.808594,1.35811 -0.837035,1.34392 -0.0039,-0.002 -0.0056,-0.0102 -0.0057,-0.0215 -0.0059,-1.55668 -3.767248,-10.26626 -5.45532,-12.63201 z m 42.201574,0.16835 c 0.16575,-0.003 -0.0381,0.2174 -0.46501,0.68837 -1.69015,1.86476 -3.47059,5.50779 -5.20731,10.65516 -0.3654,1.08299 -0.67717,1.98464 -0.69289,2.00377 -0.0157,0.0191 -0.26394,-0.3718 -0.55147,-0.86871 -0.77548,-1.34019 -1.89347,-2.87395 -2.77631,-3.80886 -0.95199,-1.00814 -0.97232,-0.784 0.19167,-2.12053 2.65407,-3.04751 5.00381,-4.80034 8.09835,-6.04118 0.82262,-0.32986 1.25673,-0.50562 1.40297,-0.50802 z m -22.23131,9.46513 c 6.5977,-0.17127 8.46812,0.61077 10.87873,4.54904 1.44531,2.36123 1.93569,3.07364 2.56813,3.73169 0.32447,0.33762 0.55893,0.63237 0.52114,0.65488 -0.48674,0.28997 -6.10438,1.27604 -8.26987,1.45163 -1.32932,0.10779 -7.23606,0.13588 -8.709556,0.0414 -2.375869,-0.15232 -8.628908,-1.2721 -8.961636,-1.60483 l -2.28e-4,-2.2e-4 v -2.3e-4 c -7.4e-5,-1.1e-4 -3.85e-4,-4.3e-4 -4.38e-4,-8.7e-4 -0.0144,-0.0335 0.259889,-0.37675 0.617309,-0.77141 0.363096,-0.40093 1.007935,-1.26414 1.433075,-1.91801 3.632618,-5.58696 4.279791,-5.98678 9.923354,-6.13328 z" />
    <path
       style="fill:#000000;fill-opacity:1;stroke:#969696;stroke-width:0.222669;stroke-linecap:round;stroke-opacity:1;paint-order:fill markers stroke"
       d="m 91.277764,170.46155 c -2.236413,-2.75642 -6.48286,-5.74067 -9.590666,-6.73996 -1.258354,-0.40462 -1.938705,-0.49483 -3.003542,-0.39828 -1.158417,0.10504 -1.356011,0.071 -1.246329,-0.21485 0.378484,-0.98631 1.047716,-4.07375 1.251507,-5.7737 0.306984,-2.56075 0.654811,-10.90844 0.944898,-22.67711 0.129771,-5.26473 0.325993,-10.13632 0.436049,-10.82575 0.110055,-0.68943 0.207589,-2.08543 0.216739,-3.10222 0.01482,-1.64699 0.112969,-2.05733 0.899453,-3.76052 1.432798,-3.10285 1.90101,-5.26641 1.953245,-9.02575 l 0.04501,-3.23946 1.133224,-1.2048 c 1.39516,-1.48328 3.024398,-3.769432 3.831187,-5.37593 l 0.606808,-1.208291 0.976945,1.322247 c 2.162518,2.926864 5.122444,4.881564 8.942146,5.905294 2.117822,0.5676 6.654162,0.56934 8.749982,0.003 3.49227,-0.9431 6.84969,-3.10501 8.98763,-5.787304 l 1.12471,-1.411085 0.67098,1.522978 c 1.05823,2.401971 2.44169,4.556501 3.8232,5.954041 l 1.27375,1.28855 0.13956,2.84888 c 0.16087,3.28411 0.64904,5.40431 1.97499,8.57768 l 0.92417,2.21179 -0.14316,3.77867 c -0.2751,7.26094 0.90153,32.45471 1.65867,35.51521 0.11843,0.47869 0.0532,0.51291 -0.98041,0.5144 -1.81488,0.003 -4.83278,0.85041 -7.26088,2.03974 -3.2116,1.5731 -5.99289,3.90073 -9.72905,8.14215 l -0.83956,0.9531 -2.12279,-0.34979 c -4.36762,-0.7197 -9.954663,-0.11069 -12.961163,1.41282 -0.611476,0.30986 -1.199836,0.56338 -1.307466,0.56338 -0.107632,0 -0.728559,-0.65677 -1.379839,-1.45949 z"
       id="path35" />
    <path
       style="fill:#ffffff;fill-opacity:1;stroke:#463c3c;stroke-width:0.222669;stroke-linecap:round;stroke-opacity:1;paint-order:fill markers stroke"
       d="m 91.151411,169.98404 c -3.678762,-4.09412 -9.424699,-7.24833 -12.56026,-6.8949 -0.96578,0.10885 -0.984108,0.0986 -0.780879,-0.43591 0.526229,-1.38409 1.126618,-5.30792 1.336872,-8.73713 0.126814,-2.06829 0.38853,-9.04235 0.581593,-15.49792 0.193064,-6.45557 0.452546,-12.87098 0.576628,-14.25648 0.124082,-1.3855 0.225604,-3.06229 0.225604,-3.72621 0,-0.87356 0.24491,-1.81488 0.88632,-3.40658 1.445768,-3.58779 1.63356,-4.44151 1.858636,-8.44952 l 0.210196,-3.74302 0.919132,-1.0431 c 1.32187,-1.50015 3.141766,-4.057723 3.789789,-5.325934 l 0.558027,-1.092086 0.864273,1.092086 c 2.031515,2.567004 4.341786,4.235304 7.551101,5.452824 1.655338,0.62798 1.84251,0.64842 5.925677,0.64702 4.21629,-0.001 4.21637,-0.001 6.04524,-0.73505 2.53285,-1.01598 5.02802,-2.71721 6.8131,-4.645272 0.83043,-0.89694 1.54945,-1.590281 1.59783,-1.540759 0.0484,0.04952 0.34673,0.67646 0.66302,1.393197 0.77777,1.762474 2.33774,4.128674 3.72365,5.648114 l 1.14336,1.25351 0.14667,2.44877 c 0.20036,3.34494 0.68118,5.52061 1.89436,8.5717 l 1.02896,2.58778 -0.15583,3.45185 c -0.15271,3.38263 0.12236,14.00583 0.58509,22.59634 0.28026,5.20285 0.86159,12.50911 1.03028,12.94872 0.0937,0.24424 -0.25418,0.35139 -1.52424,0.46943 -0.90514,0.0841 -2.57687,0.46402 -3.71497,0.84422 -4.06001,1.3563 -6.75402,3.19516 -10.77412,7.35413 l -2.71105,2.80469 -1.92706,-0.28984 c -4.69184,-0.70568 -9.621966,-0.12742 -13.46357,1.57914 l -0.82472,0.36637 z"
       id="path36" />
    <path
       style="fill:#ffffff;fill-opacity:1;stroke:#969696;stroke-width:0.222669;stroke-linecap:round;stroke-opacity:1;paint-order:fill markers stroke"
       d="m 66.793607,146.16672 c -1.078588,-0.84842 -5.277949,-3.25483 -7.925103,-4.54143 l -2.631942,-1.2792 6.628353,-13.89788 c 9.618157,-20.16673 13.17752,-26.980608 15.509962,-29.69154 0.806054,-0.936854 0.86148,-0.96249 1.273928,-0.589229 0.792809,0.717483 2.036829,5.767409 2.486582,10.093939 0.393471,3.78511 -0.43329,7.84168 -2.210444,10.84569 -0.444463,0.7513 -0.861776,1.69669 -0.927366,2.10087 -0.103455,0.63752 -0.176289,0.70434 -0.54982,0.50444 -0.658601,-0.35247 -0.788947,0.32382 -0.217174,1.1268 0.903592,1.26898 0.52285,3.21854 -1.597893,8.1819 -1.760685,4.12068 -8.738835,17.58741 -9.118868,17.59798 -0.07711,0.002 -0.401205,-0.20141 -0.720215,-0.45234 z"
       id="path37" />
    <path
       style="fill:#ffffff;fill-opacity:1;stroke:#969696;stroke-width:0.222669;stroke-linecap:round;stroke-opacity:1;paint-order:fill markers stroke"
       d="m 82.582164,102.86194 c 0,-0.91064 -0.936906,-5.113806 -1.34685,-6.042248 -0.222555,-0.504045 -0.578353,-1.090154 -0.790662,-1.302463 -0.362748,-0.362748 -0.320264,-0.419059 0.704814,-0.934197 0.599958,-0.301498 2.372829,-1.034049 3.939715,-1.627889 1.566886,-0.593841 3.229396,-1.273809 3.694468,-1.511039 0.465072,-0.237231 0.891666,-0.431328 0.947984,-0.431328 0.155093,0 -1.976825,4.749032 -3.146439,7.00897 -1.046896,2.022814 -3.212901,5.072814 -3.723392,5.242974 -0.163801,0.0546 -0.279638,-0.11225 -0.279638,-0.40278 z"
       id="path38" />
    <path
       style="fill:#ffffff;fill-opacity:1;stroke:#969696;stroke-width:0.222669;stroke-linecap:round;stroke-opacity:1;paint-order:fill markers stroke"
       d="m 100.54855,103.55823 c -4.023705,-0.73816 -6.612416,-2.16212 -9.296742,-5.113795 -1.227743,-1.350022 -1.510488,-1.803189 -1.191425,-1.909543 0.369635,-0.123211 0.339906,-0.646474 -0.07249,-1.275866 -0.273877,-0.417991 -0.292397,-0.669651 -0.09166,-1.245491 0.138363,-0.396909 0.326189,-0.721654 0.417391,-0.721654 0.0912,0 0.696901,0.65457 1.346001,1.454599 1.752161,2.159576 4.083645,4.262134 5.645,5.090722 3.601435,1.911228 8.173855,1.914308 11.807905,0.0079 1.35762,-0.712178 4.65907,-3.747151 6.2395,-5.735864 l 0.70881,-0.891924 0.279,0.612328 c 0.23997,0.526691 0.20979,0.735454 -0.21582,1.492731 -0.58682,1.044095 -0.60212,1.160208 -0.15296,1.160208 0.52314,0 0.42403,0.234321 -0.6932,1.63888 -2.63818,3.316689 -6.84088,5.362239 -11.38606,5.541869 -1.25351,0.0495 -2.75797,0.002 -3.34325,-0.10515 z"
       id="path39" />
    <path
       style="fill:#ffffff;fill-opacity:1;stroke:#969696;stroke-width:0.222669;stroke-linecap:round;stroke-opacity:1;paint-order:fill markers stroke"
       d="m 100.5037,99.99554 c -0.735295,-0.177978 -1.942191,-0.646211 -2.68199,-1.04052 -1.300723,-0.693278 -4.299836,-3.219621 -4.299836,-3.622024 0,-0.108686 0.384599,-0.06323 0.854665,0.101014 2.480747,0.866785 4.92087,1.162757 9.401311,1.14032 3.98843,-0.01997 4.67792,-0.0824 6.72247,-0.608651 1.25302,-0.322519 2.30844,-0.556178 2.34537,-0.519244 0.0369,0.03693 -0.59937,0.677906 -1.41402,1.42438 -3.14575,2.882509 -7.17215,4.033815 -10.92797,3.124725 z"
       id="path40" />
    <path
       style="fill:#ffffff;fill-opacity:1;stroke:#969696;stroke-width:0.222669;stroke-linecap:round;stroke-opacity:1;paint-order:fill markers stroke"
       d="M 100.24524,95.76987 C 98.3226,95.529714 95.210566,94.668542 93.447193,93.888695 92.48843,93.464684 92.193324,93.227754 92.29475,92.963442 c 0.07499,-0.195411 0.330485,-0.355293 0.567776,-0.355293 0.23729,0 0.431437,-0.104066 0.431437,-0.23126 0,-0.206044 -1.113013,-0.999166 -1.70933,-1.218052 -0.12535,-0.04601 -0.15092,-0.166142 -0.05682,-0.266957 0.0941,-0.100814 1.549724,0.248236 3.234721,0.775667 4.226889,1.323086 5.780686,1.615793 8.601576,1.620377 2.82352,0.0046 4.6901,-0.344447 8.55184,-1.599124 1.53021,-0.497165 2.88913,-0.903935 3.01982,-0.903935 0.56494,0 0.1636,0.520754 -0.67171,0.87159 -0.58451,0.245492 -0.91016,0.529876 -0.91165,0.79612 -0.002,0.408951 0.18806,0.406908 1.30817,-0.01404 0.42107,-0.158241 0.34575,0.271804 -0.1217,0.694838 -1.10674,1.001584 -5.00654,2.222467 -8.47594,2.653499 -2.19352,0.27252 -3.53116,0.268611 -5.8177,-0.017 z"
       id="path41" />
    <path
       style="fill:#ffffff;fill-opacity:1;stroke:#969696;stroke-width:0.222669;stroke-linecap:round;stroke-opacity:1;paint-order:fill markers stroke"
       d="m 122.61645,103.30677 c -1.39323,-1.61718 -2.57718,-3.788762 -4.1298,-7.574806 -0.79659,-1.942485 -1.56388,-3.747677 -1.70509,-4.011535 -0.33057,-0.617665 -0.24077,-0.605863 1.11863,0.147011 0.65783,0.364324 1.27332,0.913041 1.46995,1.310486 0.18605,0.376053 0.89689,1.863169 1.57964,3.304703 0.68275,1.441536 1.61001,3.082492 2.06057,3.646571 0.85221,1.06691 0.94646,1.5533 0.63784,3.29153 l -0.15952,0.89847 z"
       id="path42" />
    <path
       style="fill:#ffffff;fill-opacity:1;stroke:#969696;stroke-width:0.222669;stroke-linecap:round;stroke-opacity:1;paint-order:fill markers stroke"
       d="m 123.43957,99.303793 c -0.54098,-0.759733 -2.65315,-4.93522 -2.89702,-5.727023 -0.0951,-0.308711 -0.0618,-0.5128 0.0838,-0.5128 0.37579,0 4.24829,1.586559 4.7221,1.934645 0.41117,0.302066 0.4107,0.331217 -0.0169,1.05876 -0.24188,0.41148 -0.65797,1.46268 -0.92464,2.336001 l -0.48485,1.587856 z"
       id="path43" />
    <path
       style="fill:#ffffff;fill-opacity:1;stroke:#969696;stroke-width:0.222669;stroke-linecap:round;stroke-opacity:1;paint-order:fill markers stroke"
       d="m 140.45651,149.1111 -0.74829,-0.94479 0.55255,-0.43312 c 0.30391,-0.23822 1.54846,-1.07263 2.76568,-1.85425 2.01206,-1.29203 2.65123,-1.87468 2.36763,-2.15829 -0.22174,-0.22174 -1.14458,0.26615 -3.57569,1.89043 -1.39584,0.93259 -2.57138,1.69561 -2.61233,1.69561 -0.34206,0 -6.2038,-10.37782 -9.01135,-15.95399 -1.85719,-3.68865 -2.33499,-5.07975 -2.6024,-7.57677 -0.1445,-1.34929 -0.11582,-1.52119 0.29006,-1.73841 0.64277,-0.344 1.19356,-1.64056 1.19356,-2.80967 0,-1.07773 -0.29571,-1.54954 -0.97119,-1.54954 -0.37232,0 -0.40577,0.12293 -0.27348,1.00509 0.0882,0.58827 0.0496,1.179 -0.0931,1.42445 -0.21254,0.36561 -0.24467,0.33172 -0.25072,-0.2644 -0.004,-0.37606 -0.50736,-1.81189 -1.11901,-3.19074 -1.68124,-3.79008 -1.95736,-5.08473 -1.94431,-9.11642 0.0166,-5.13016 0.86938,-9.914381 2.03367,-11.409159 0.33193,-0.426157 0.37731,-0.405006 1.25177,0.583409 1.48099,1.673997 4.36865,6.76079 7.69809,13.56068 1.71852,3.50982 5.86139,11.88132 9.20638,18.60332 l 6.08179,12.22183 -0.89585,0.3519 c -1.06792,0.41949 -1.28687,1.17561 -0.2691,0.92932 0.34471,-0.0834 0.8413,-0.23051 1.10353,-0.32688 0.40574,-0.14909 0.55006,-0.0243 0.96862,0.83716 0.27051,0.5568 0.49184,1.04872 0.49184,1.09316 0,0.0444 -0.47153,0.19953 -1.04783,0.34465 -2.05316,0.51699 -6.4091,2.94755 -8.89846,4.96522 l -0.94382,0.76499 z"
       id="path44" />
    <path
       style="fill:#ffffff;fill-opacity:1;stroke:#969696;stroke-width:0.055667;stroke-linecap:round;stroke-opacity:1;paint-order:fill markers stroke"
       d="m 99.476038,184.70802 c -1.152564,-0.046 -2.126596,-0.15887 -4.187857,-0.48511 -2.168587,-0.34323 -4.804226,-0.88281 -4.875499,-0.99813 -0.01835,-0.0297 0.118425,-0.22631 0.303944,-0.43692 0.517395,-0.58738 1.116707,-1.40869 1.963799,-2.69123 1.993808,-3.01873 2.879203,-3.98804 4.212046,-4.61126 0.887926,-0.41519 1.895404,-0.58889 3.979519,-0.68614 3.41299,-0.15926 5.87715,-0.003 7.35012,0.46706 1.03167,0.329 1.70486,0.73225 2.4992,1.49703 0.70569,0.67942 1.12347,1.2467 2.29288,3.1134 1.1116,1.77444 1.5027,2.3355 2.08351,2.98903 l 0.40956,0.46082 -0.637,0.14953 c -1.32066,0.31001 -4.24344,0.80723 -6.2778,1.06796 -1.50872,0.19337 -6.24671,0.27858 -9.116422,0.16396 z"
       id="path45" />
    <path
       style="fill:#ffffff;fill-opacity:1;stroke:#969696;stroke-width:0.055667;stroke-linecap:round;stroke-opacity:1;paint-order:fill markers stroke"
       d="m 89.220061,182.91776 c -0.125351,-0.0425 -0.72276,-0.23567 -1.327577,-0.42923 -1.19035,-0.38096 -1.777705,-0.63838 -1.777705,-0.77912 0,-0.0486 0.21382,-0.3094 0.475156,-0.57957 0.861898,-0.89103 1.462667,-1.72024 2.688275,-3.71046 0.818198,-1.32864 1.10243,-1.74968 1.615456,-2.39306 2.644577,-3.3165 6.508395,-4.73902 12.485344,-4.59664 5.01688,0.11951 8.15939,1.22372 10.64938,3.74198 0.90546,0.91573 1.48443,1.70614 2.83039,3.86408 0.93866,1.50493 1.59024,2.36903 2.44956,3.24853 l 0.63084,0.64565 -0.28821,0.1646 c -0.15851,0.0905 -0.53213,0.24248 -0.83026,0.33766 -0.63374,0.20233 -2.1835,0.57048 -2.40278,0.57079 -0.32804,4.4e-4 -1.31454,-1.30453 -3.10099,-4.10217 -0.75499,-1.18234 -1.30053,-1.90552 -1.92234,-2.54828 -1.54806,-1.60021 -3.01415,-2.1256 -6.42022,-2.30075 -1.40295,-0.0721 -4.65684,-0.0352 -5.612297,0.0637 -2.243351,0.23223 -3.471144,0.78929 -4.786124,2.1715 -0.662157,0.69601 -1.165726,1.35974 -2.307325,3.04117 -1.157656,1.70509 -1.925395,2.73516 -2.430093,3.26043 l -0.390569,0.4065 z"
       id="path46" />
    <path
       style="fill:#ffffff;fill-opacity:1;stroke:#969696;stroke-width:0.055667;stroke-linecap:round;stroke-opacity:1;paint-order:fill markers stroke"
       d="m 88.050817,177.34816 c -0.14148,-0.54753 -0.702591,-2.13856 -1.140358,-3.23348 -1.234138,-3.08677 -2.837682,-6.45841 -3.847979,-8.09083 -0.164856,-0.26637 -0.290616,-0.49346 -0.279466,-0.50466 0.03519,-0.0353 1.762707,0.82188 2.345829,1.16399 2.235554,1.31158 4.141298,3.03792 6.033778,5.46577 0.219845,0.28204 0.419069,0.54485 0.442717,0.58402 0.02767,0.0458 -0.146987,0.27935 -0.490128,0.65524 -0.970097,1.06271 -1.650258,1.99814 -2.54788,3.50413 -0.228811,0.38388 -0.424552,0.69797 -0.43498,0.69797 -0.01043,0 -0.04712,-0.10896 -0.08153,-0.24215 z"
       id="path47" />
    <path
       style="fill:#ffffff;fill-opacity:1;stroke:#969696;stroke-width:0.055667;stroke-linecap:round;stroke-opacity:1;paint-order:fill markers stroke"
       d="m 85.289204,180.6683 c -0.480572,-0.95429 -0.852975,-2.0488 -1.742235,-5.12052 -1.019822,-3.52272 -1.447014,-4.72186 -2.190412,-6.14858 -0.667313,-1.2807 -1.387806,-2.25286 -2.637856,-3.55926 -0.836244,-0.87395 -1.09055,-1.20939 -0.991765,-1.30817 0.03467,-0.0347 0.250294,-0.0735 0.47916,-0.0864 0.380546,-0.0213 0.440478,-0.009 0.70101,0.1451 1.036526,0.61283 3.428018,3.03649 3.774622,3.8254 0.234411,0.53354 0.320894,0.68667 0.520025,0.92075 0.159312,0.18726 0.222772,0.22302 0.370354,0.20866 0.160289,-0.0156 0.179844,-0.0383 0.195544,-0.22699 0.02094,-0.2516 -0.103981,-0.51444 -0.566052,-1.19103 -0.510732,-0.74786 -1.716165,-2.22831 -2.351164,-2.88759 -0.617742,-0.64136 -0.617405,-0.64329 0.07109,-0.40739 0.563718,0.19315 0.789234,0.4375 1.73241,1.87704 1.708268,2.60728 2.701844,4.88052 4.318533,9.88058 l 0.625313,1.93395 -0.208657,0.31666 c -0.570464,0.86576 -1.701151,2.22542 -1.850651,2.22542 -0.02696,0 -0.139131,-0.17894 -0.24927,-0.39765 z"
       id="path48" />
    <path
       style="fill:#ffffff;fill-opacity:1;stroke:#969696;stroke-width:0.055667;stroke-linecap:round;stroke-opacity:1;paint-order:fill markers stroke"
       d="m 117.29286,177.11529 c -0.79573,-1.32552 -1.77006,-2.63511 -2.74349,-3.68746 -0.28355,-0.30654 -0.51554,-0.59288 -0.51554,-0.63631 0,-0.11195 1.1868,-1.46307 2.13317,-2.42853 2.04848,-2.0898 3.93328,-3.40478 6.32801,-4.41493 1.09721,-0.46283 1.07206,-0.46381 0.67735,0.0263 -1.24799,1.54966 -2.36683,3.65929 -3.67115,6.92218 -0.39953,0.99946 -1.12536,3.01326 -1.50694,4.18097 -0.11776,0.36038 -0.23015,0.67224 -0.24975,0.69302 -0.0196,0.0207 -0.22284,-0.27408 -0.45166,-0.65525 z"
       id="path49" />
    <path
       style="fill:#ffffff;fill-opacity:1;stroke:#969696;stroke-width:0.055667;stroke-linecap:round;stroke-opacity:1;paint-order:fill markers stroke"
       d="m 112.23903,171.72143 c -0.47006,-0.2487 -1.20573,-0.59923 -1.63481,-0.77897 l -0.78014,-0.32679 0.32234,-0.37291 c 1.64001,-1.89731 3.69832,-4.00293 4.98978,-5.10445 3.49705,-2.98276 6.91504,-4.67387 10.351,-5.12135 0.36085,-0.047 1.11012,-0.10317 1.66502,-0.12482 0.84113,-0.0328 1.013,-0.0261 1.03346,0.0406 0.35787,1.16641 1.07674,3.81544 1.04423,3.84795 -0.0141,0.0141 -0.11222,-0.0254 -0.21802,-0.0877 -1.18319,-0.69737 -4.28725,-0.07 -7.62669,1.5415 -2.78989,1.34629 -5.00749,3.12592 -7.46239,5.98859 -0.45014,0.5249 -0.82084,0.95351 -0.82377,0.95246 -0.003,-8.7e-4 -0.38994,-0.20539 -0.86001,-0.4541 z"
       id="path50" />
    <path
       style="fill:#ffffff;fill-opacity:1;stroke:#969696;stroke-width:0.055667;stroke-linecap:round;stroke-opacity:1;paint-order:fill markers stroke"
       d="m 119.81371,180.74479 c -0.61167,-0.70533 -1.05168,-1.28011 -1.45945,-1.90648 l -0.2076,-0.31888 0.11363,-0.25089 c 0.0625,-0.13799 0.32722,-0.87907 0.58828,-1.64685 1.3082,-3.84743 2.4253,-6.43379 3.67916,-8.51815 0.97791,-1.62564 2.37931,-3.21602 2.83631,-3.21878 0.0456,-2.3e-4 0.004,0.0835 -0.10295,0.20463 -0.27919,0.31798 -0.17184,0.66171 0.17914,0.57362 0.0784,-0.0197 0.40923,-0.23201 0.73528,-0.47187 0.32605,-0.23987 0.73049,-0.50005 0.89875,-0.57819 0.27741,-0.12883 0.35757,-0.13959 0.85966,-0.11541 0.55175,0.0266 0.9653,0.1534 1.01393,0.31097 0.0113,0.0367 -0.53479,0.6392 -1.21357,1.33897 -1.69294,1.7453 -2.29959,2.5173 -2.95828,3.76462 -0.67939,1.2865 -1.25856,2.87098 -2.33539,6.38914 -0.96298,3.14616 -1.43121,4.3931 -1.86862,4.97637 l -0.13738,0.18318 z"
       id="path51" />
    <path
       style="fill:#ffffff;fill-opacity:1;stroke:#969696;stroke-width:0.111334;stroke-linecap:round;stroke-opacity:1;paint-order:fill markers stroke"
       d="m 64.056917,149.21963 c -3.003837,-2.11902 -7.660574,-4.61158 -9.130903,-4.88742 -0.217282,-0.0408 -0.420741,-0.14105 -0.452139,-0.22287 -0.03139,-0.0818 0.253128,-0.79722 0.632253,-1.5898 0.634281,-1.32595 0.710099,-1.43513 0.949335,-1.36683 0.476169,0.13592 3.97397,1.87328 5.431636,2.69789 2.83985,1.60652 5.597144,3.42067 5.597144,3.68261 0,0.16675 -1.582358,2.56539 -1.692354,2.56539 -0.04894,0 -0.649667,-0.39554 -1.334972,-0.87897 z"
       id="path52" />
    <path
       style="fill:#ffffff;fill-opacity:1;stroke:#969696;stroke-width:0.0278336;stroke-linecap:round;stroke-opacity:1;paint-order:fill markers stroke"
       d="m 62.526028,149.67444 c -1.759478,-0.79583 -4.011797,-1.99163 -5.892475,-3.12844 -0.648856,-0.39221 -1.528943,-0.97235 -1.493165,-0.98428 0.01613,-0.005 0.245446,0.0755 0.509604,0.17974 2.020682,0.79728 4.329065,2.04966 6.762077,3.66864 0.970944,0.64609 0.974095,0.65339 0.113959,0.26434 z"
       id="path53" />
    <path
       style="fill:#ffffff;fill-opacity:1;stroke:#969696;stroke-width:0.0196813;stroke-linecap:round;stroke-opacity:1;paint-order:fill markers stroke"
       d="m 142.8769,150.15658 c 0,-0.0152 0.58806,-0.48322 0.91658,-0.72949 1.93368,-1.44953 4.24473,-2.75419 6.37656,-3.59975 0.45434,-0.18021 1.18803,-0.44309 1.20085,-0.43027 0.004,0.004 -0.12629,0.10738 -0.28984,0.22943 -1.82797,1.36411 -5.64932,3.50758 -7.8797,4.41987 -0.27618,0.11297 -0.32445,0.12936 -0.32445,0.11021 z"
       id="path54" />
  </g>
</svg>
