<?xml version="1.0" encoding="UTF-8" standalone="no"?>
<!-- Created with Inkscape (http://www.inkscape.org/) -->

<svg
   width="100mm"
   height="100mm"
   viewBox="0 0 100 100"
   version="1.1"
   id="svg1"
   xml:space="preserve"
   inkscape:version="1.4.2 (f4327f4, 2025-05-13)"
   sodipodi:docname="hviezda.svg"
   xmlns:inkscape="http://www.inkscape.org/namespaces/inkscape"
   xmlns:sodipodi="http://sodipodi.sourceforge.net/DTD/sodipodi-0.dtd"
   xmlns="http://www.w3.org/2000/svg"
   xmlns:svg="http://www.w3.org/2000/svg"><sodipodi:namedview
     id="namedview1"
     pagecolor="#ffffff"
     bordercolor="#000000"
     borderopacity="0.25"
     inkscape:showpageshadow="2"
     inkscape:pageopacity="0.0"
     inkscape:pagecheckerboard="0"
     inkscape:deskcolor="#d1d1d1"
     inkscape:document-units="mm"
     inkscape:zoom="0.52221046"
     inkscape:cx="237.45216"
     inkscape:cy="614.6947"
     inkscape:window-width="958"
     inkscape:window-height="1000"
     inkscape:window-x="2873"
     inkscape:window-y="0"
     inkscape:window-maximized="0"
     inkscape:current-layer="layer1" /><defs
     id="defs1" /><g
     inkscape:label="Vrstva 1"
     inkscape:groupmode="layer"
     id="layer1"><path
       style="fill:#000000;stroke-width:1.53887"
       d="m 18.985991,96.457575 c 0.142237,-0.615823 0.516913,-1.661206 0.832608,-2.323041 0.315694,-0.661851 0.860462,-2.310838 1.210594,-3.664425 0.350132,-1.353587 0.787063,-2.644295 0.970961,-2.868231 0.183896,-0.223936 0.641949,-1.598097 1.017895,-3.05368 0.375947,-1.455598 0.826136,-2.829759 1.000422,-3.053695 0.174286,-0.223935 0.632074,-1.414879 1.017306,-2.646526 0.38523,-1.231662 0.933502,-2.789041 1.218378,-3.460848 0.284877,-0.671808 0.755247,-2.137578 1.045266,-3.257272 0.290019,-1.119679 0.659979,-2.219014 0.822134,-2.44295 0.162155,-0.223936 0.601959,-1.506473 0.977343,-2.850103 0.375384,-1.343615 0.947166,-3.020302 1.270627,-3.725964 0.747572,-1.630875 0.742757,-2.177834 -0.01917,-2.177834 -0.334008,0 -0.836134,-0.366435 -1.115837,-0.814306 -0.279703,-0.447887 -0.67324,-0.814322 -0.87453,-0.814322 -0.201288,0 -1.577179,-0.977749 -3.057536,-2.172787 C 23.822097,55.936554 22.37931,54.882185 22.09626,54.788529 21.81321,54.694809 19.980998,53.380067 18.024678,51.8667 12.638937,47.700451 7.4071542,43.832357 7.1578164,43.832357 c -0.1223861,0 -0.5734508,-0.320638 -1.0023728,-0.712526 C 5.7265192,42.727944 4.1660767,41.491203 2.6877912,40.371509 L 0,38.335727 19.109617,38.132151 c 10.510289,-0.11203 19.185262,-0.295201 19.277717,-0.407169 0.09245,-0.112029 0.503285,-1.486129 0.912957,-3.053679 0.409672,-1.567566 0.867086,-2.941728 1.016476,-3.053695 0.149393,-0.11203 0.598482,-1.577738 0.997983,-3.257257 0.3995,-1.679533 0.86959,-3.236912 1.044644,-3.460848 0.175052,-0.223936 0.641459,-1.598097 1.036458,-3.053695 0.394999,-1.455583 0.850633,-2.829744 1.012522,-3.05368 0.161888,-0.223935 0.598346,-1.506488 0.969905,-2.850118 0.371561,-1.343615 0.845426,-2.809385 1.053034,-3.257256 0.207609,-0.447872 0.674988,-2.005267 1.038622,-3.4608497 0.363634,-1.455598 0.81008,-2.8297592 0.992101,-3.053695 0.182022,-0.2239358 0.550388,-1.2275843 0.818589,-2.2303402 l 0.487642,-1.8232024 0.695055,1.4289603 c 0.382281,0.7859297 1.024953,2.6140872 1.428159,4.0625603 0.403207,1.4484884 0.868194,2.8168327 1.033305,3.0407687 0.16511,0.223936 0.537489,1.323272 0.827509,2.442951 0.290019,1.119679 0.760389,2.585449 1.045265,3.257272 0.284877,0.671807 0.833147,2.229186 1.218379,3.460848 0.38523,1.231647 0.843018,2.42259 1.017304,2.646526 0.174286,0.223936 0.624477,1.598097 1.000422,3.05368 0.375946,1.455598 0.833999,2.829759 1.017896,3.053695 0.183896,0.223936 0.641949,1.598097 1.017896,3.05368 0.375946,1.455598 0.833863,2.829759 1.017593,3.053695 0.18373,0.223935 0.499579,1.048429 0.701889,1.832204 l 0.367836,1.425052 19.314254,0.203592 c 12.433437,0.131111 19.024151,0.339074 18.49994,0.583923 -0.447872,0.209178 -1.053723,0.713049 -1.346354,1.119678 -0.292616,0.406646 -0.714634,0.739349 -0.937816,0.739349 -0.223197,0 -1.653034,1.007711 -3.17742,2.239358 -1.524401,1.231662 -2.960794,2.239373 -3.191993,2.239373 -0.231199,0 -0.525815,0.274841 -0.65471,0.610745 -0.128957,0.335904 -0.433114,0.61073 -0.67604,0.61073 -0.242925,0 -1.704663,1.007726 -3.248315,2.239373 -1.543652,1.231647 -2.993187,2.239373 -3.221201,2.239373 -0.228013,0 -0.610683,0.366435 -0.850377,0.814322 -0.239694,0.447872 -0.613361,0.814306 -0.830357,0.814306 -0.375483,0 -5.49997,3.698757 -7.00744,5.057838 -0.391891,0.353308 -0.831073,0.642384 -0.975963,0.642384 -0.144884,0 -1.1068,0.675347 -2.13758,1.500779 -1.030781,0.825432 -1.934046,1.541882 -2.007256,1.592096 -0.200952,0.137882 1.22915,5.189425 1.610625,5.689249 0.182761,0.239463 0.626419,1.703632 0.985907,3.253717 0.35949,1.550084 0.806203,3.003158 0.992698,3.229049 0.186495,0.22589 0.646675,1.601636 1.022621,3.057234 0.375945,1.455583 0.833999,2.829744 1.017895,3.05368 0.183896,0.223935 0.641951,1.598097 1.017896,3.053695 0.375946,1.455582 0.836126,2.831344 1.022621,3.057234 0.186495,0.22589 0.62489,1.643094 0.974214,3.149336 0.349323,1.506257 0.816815,3.062035 1.038858,3.457293 0.49019,0.872568 1.697031,5.079151 1.510643,5.265538 -0.07325,0.07325 -1.446041,-0.873983 -3.050588,-2.10503 -1.604548,-1.231047 -3.094907,-2.23825 -3.311913,-2.23825 -0.217005,0 -0.59067,-0.36645 -0.830363,-0.814322 -0.239696,-0.447871 -0.638965,-0.814322 -0.887266,-0.814322 -0.248302,0 -1.57021,-0.828694 -2.937574,-1.841561 -1.367362,-1.012866 -4.08078,-3.028288 -6.029814,-4.478746 -1.949035,-1.450443 -3.735442,-2.63717 -3.969794,-2.63717 -0.234351,0 -0.426094,-0.188973 -0.426094,-0.419941 0,-0.230969 -0.320636,-0.541204 -0.712527,-0.689412 -0.391889,-0.148193 -1.836378,-1.15018 -3.209973,-2.226601 -1.373597,-1.076406 -2.69156,-1.957099 -2.92881,-1.957099 -0.23725,0 -0.670779,-0.332703 -0.963399,-0.739348 -0.889451,-1.236018 -1.842292,-1.338845 -3.065751,-0.330841 -0.62189,0.512381 -1.451348,1.048629 -1.843237,1.191682 -0.391889,0.143115 -0.712527,0.449072 -0.712527,0.680041 0,0.230968 -0.184892,0.419941 -0.410871,0.419941 -0.376365,0 -2.923173,1.818893 -10.25061,7.320847 -1.497043,1.12408 -2.897405,2.043784 -3.111915,2.043784 -0.214512,0 -0.495484,0.274841 -0.624384,0.610745 -0.128896,0.335903 -0.424109,0.61073 -0.65602,0.61073 -0.396132,0 -5.474393,3.651267 -7.034539,5.057837 -0.391889,0.353308 -0.849942,0.644154 -1.017895,0.646339 -0.167953,0.0015 -1.109844,0.643446 -2.093092,1.425052 -2.150654,1.709603 -2.162896,1.711619 -1.837178,0.301417 z"
       id="path1" /></g></svg>
