<?xml version="1.0" encoding="UTF-8" standalone="no"?>
<!-- Created with Inkscape (http://www.inkscape.org/) -->

<svg
   width="100mm"
   height="100mm"
   viewBox="0 0 100 100"
   version="1.1"
   id="svg1"
   xml:space="preserve"
   inkscape:version="1.4.2 (f4327f4, 2025-05-13)"
   sodipodi:docname="medved.svg"
   xmlns:inkscape="http://www.inkscape.org/namespaces/inkscape"
   xmlns:sodipodi="http://sodipodi.sourceforge.net/DTD/sodipodi-0.dtd"
   xmlns="http://www.w3.org/2000/svg"
   xmlns:svg="http://www.w3.org/2000/svg"><sodipodi:namedview
     id="namedview1"
     pagecolor="#ffffff"
     bordercolor="#000000"
     borderopacity="0.25"
     inkscape:showpageshadow="2"
     inkscape:pageopacity="0.0"
     inkscape:pagecheckerboard="0"
     inkscape:deskcolor="#d1d1d1"
     inkscape:document-units="mm"
     inkscape:zoom="0.52221046"
     inkscape:cx="237.45216"
     inkscape:cy="614.6947"
     inkscape:window-width="958"
     inkscape:window-height="1000"
     inkscape:window-x="2873"
     inkscape:window-y="0"
     inkscape:window-maximized="0"
     inkscape:current-layer="layer1" /><defs
     id="defs1" /><g
     inkscape:label="Vrstva 1"
     inkscape:groupmode="layer"
     id="layer1"><path
       style="fill:#000000;stroke-width:1.96034"
       d="m 46.930664,91.835136 c -0.176313,-0.28527 -1.532147,-0.52588 -3.012979,-0.5347 -4.428786,-0.0263 -10.061545,-0.92714 -12.413724,-1.98523 -1.214494,-0.54633 -2.955067,-1.15243 -3.867935,-1.34691 -1.866274,-0.39758 -11.923122,-5.38923 -13.436527,-6.66913 -3.721253,-3.14711 -7.9846493,-7.36725 -7.9846493,-7.90364 0,-0.35217 -0.300659,-0.75569 -0.668132,-0.89669 -1.483611,-0.5693 -4.066,-6.66558 -4.372572,-10.32236 -0.164609,-1.96346 -0.49820599,-3.69285 -0.74132899,-3.84311 -0.57869803,-0.35764 -0.57630803,-11.99725 0.0025,-12.35499 0.244517,-0.15114 0.74016299,-1.74037 1.10143199,-3.53165 0.361271,-1.79129 1.169512,-4.07379 1.796093,-5.07223 1.824105,-2.90669 1.879422,-3.41721 0.509688,-4.70401 -4.66136602,-4.37912 -1.245361,-22.266994 4.252278,-22.266994 0.364003,0 0.848473,-0.29841 1.0766016,-0.6631503 1.8463887,-2.9520301 18.3089877,-3.1747101 18.3089877,-0.24765 0,0.2298 0.58949,0.6419403 1.309975,0.9158503 0.720485,0.27394 1.46202,0.91001 1.647854,1.413531 0.18584,0.50349 0.476356,1.03215 0.645606,1.17479 0.169256,0.14271 0.600154,0.924081 0.957567,1.736541 0.397952,0.904641 0.926175,1.371181 1.362748,1.203651 0.392099,-0.15055 2.375777,-0.43741 4.408174,-0.63768 2.032394,-0.200271 3.82056,-0.566871 3.973699,-0.814651 0.373615,-0.60451 11.401984,-0.5785 12.542734,0.0296 2.870494,1.530161 14.126795,1.576621 14.126795,0.0582 0,-7.4266524 24.241367,-9.8028124 26.860647,-2.632891 0.16029,0.43878 0.55968,0.96143 0.88751,1.16142 0.32783,0.20001 0.91916,1.367021 1.31404,2.593372 0.39489,1.226351 0.9168,2.368851 1.1598,2.538871 0.735536,0.51467 0.727476,8.62433 -0.009,9.36272 -0.35658,0.35735 -0.64834,1.02784 -0.64834,1.48999 0,0.46213 -0.78525,1.75764 -1.745,2.87889 -1.65702,1.93586 -1.91367,4.37215 -0.46058,4.37215 0.23166,0 0.87407,1.167 1.42758,2.59337 0.5535,1.42634 1.14804,2.59337 1.3212,2.59337 1.301976,0 1.930304,12.56624 0.977136,19.54235 -1.461486,10.69647 -13.223276,23.27022 -25.379279,27.13134 -1.283716,0.40775 -2.450728,0.8797 -2.593365,1.04876 -0.558561,0.66211 -6.223472,1.62408 -11.299462,1.91878 -2.934099,0.17035 -5.456954,0.50749 -5.606343,0.7492 -0.383515,0.62055 -7.342751,0.54927 -7.731153,-0.0792 z"
       id="path1" /></g></svg>
