<?xml version="1.0" encoding="UTF-8" standalone="no"?>
<!-- Created with Inkscape (http://www.inkscape.org/) -->

<svg
   width="100mm"
   height="100mm"
   viewBox="0 0 100 100"
   version="1.1"
   id="svg1"
   xml:space="preserve"
   inkscape:version="1.4.2 (f4327f4, 2025-05-13)"
   sodipodi:docname="srdce.svg"
   xmlns:inkscape="http://www.inkscape.org/namespaces/inkscape"
   xmlns:sodipodi="http://sodipodi.sourceforge.net/DTD/sodipodi-0.dtd"
   xmlns="http://www.w3.org/2000/svg"
   xmlns:svg="http://www.w3.org/2000/svg"><sodipodi:namedview
     id="namedview1"
     pagecolor="#ffffff"
     bordercolor="#000000"
     borderopacity="0.25"
     inkscape:showpageshadow="2"
     inkscape:pageopacity="0.0"
     inkscape:pagecheckerboard="0"
     inkscape:deskcolor="#d1d1d1"
     inkscape:document-units="mm"
     inkscape:zoom="0.52221046"
     inkscape:cx="237.45216"
     inkscape:cy="614.6947"
     inkscape:window-width="958"
     inkscape:window-height="1000"
     inkscape:window-x="2873"
     inkscape:window-y="0"
     inkscape:window-maximized="0"
     inkscape:current-layer="layer1" /><defs
     id="defs1" /><g
     inkscape:label="Vrstva 1"
     inkscape:groupmode="layer"
     id="layer1"><path
       style="fill:#000000;stroke-width:0.910658"
       d="m 49.144197,99.87269 c -0.364099,-0.135255 -0.661996,-0.333494 -0.661996,-0.44053 0,-0.107023 -0.143427,-0.194601 -0.318715,-0.194601 -0.175299,0 -0.851997,-0.379833 -1.503777,-0.844071 -0.651787,-0.464245 -1.267591,-0.844079 -1.368455,-0.844079 -0.100879,0 -0.632026,-0.325564 -1.180348,-0.72349 -0.548312,-0.397917 -1.14318,-0.723489 -1.321918,-0.723489 -0.178728,0 -0.324966,-0.11193 -0.324966,-0.248726 0,-0.136805 -0.189574,-0.318373 -0.421267,-0.403496 -0.231698,-0.08513 -1.205577,-0.787112 -2.16417,-1.559995 -0.958594,-0.772874 -1.826241,-1.405235 -1.928097,-1.405235 -0.10186,0 -0.320498,-0.217042 -0.48587,-0.48232 -0.165371,-0.265279 -0.41755,-0.48233 -0.560403,-0.48233 -0.142853,0 -1.222701,-0.813928 -2.399664,-1.808721 -1.176954,-0.994802 -2.205086,-1.80873 -2.284733,-1.80873 -0.07961,0 -0.561131,-0.434094 -1.069975,-0.96465 -0.508833,-0.530565 -0.996824,-0.964659 -1.084413,-0.964659 -0.760933,0 -13.144481,-12.471747 -14.025738,-14.125633 -0.167983,-0.315265 -0.520044,-0.688271 -0.782358,-0.828913 -0.262316,-0.140642 -0.476937,-0.362744 -0.476937,-0.493568 0,-0.130817 -0.541643,-0.928319 -1.203638,-1.772226 -0.662006,-0.843905 -1.20364,-1.654588 -1.20364,-1.801511 0,-0.146921 -0.21665,-0.402675 -0.481448,-0.568346 C 11.626864,66.2177 11.409613,65.972601 11.408867,65.838714 11.40813,65.704817 10.812333,64.848286 10.084875,63.935309 9.3574069,63.02233 8.7622109,62.205477 8.7622109,62.120088 c 0,-0.08541 -0.4210171,-0.716589 -0.9355924,-1.402673 C 6.7501015,59.282121 4.4257009,54.644063 3.8051186,52.693024 3.5730743,51.963509 3.2540224,51.149581 3.0961132,50.884303 2.9382049,50.619026 2.6719817,49.886483 2.5045065,49.256449 2.3370322,48.626412 2.1205834,48.110923 2.0235085,48.110923 c -0.097075,0 -0.3640888,-0.949584 -0.5933645,-2.110185 -0.2292766,-1.160593 -0.49949953,-2.218697 -0.60049677,-2.351336 -1.1267618,-1.479784 -1.09616221,-20.860641 0.0329361,-20.860641 0.10799735,0 0.19635877,-0.22851 0.19635877,-0.507806 0,-0.595044 0.6422417,-3.255546 0.9544226,-3.953715 0.1186181,-0.265279 0.3368902,-0.916415 0.4850495,-1.446981 0.1481586,-0.530555 0.5513192,-1.561526 0.8959111,-2.29105 0.344592,-0.729515 0.8538004,-1.814754 1.131573,-2.41163 0.2777736,-0.596886 0.8029424,-1.538887 1.1670474,-2.093342 0.364098,-0.554465 0.6619962,-1.111727 0.6619962,-1.2383786 0,-0.1266409 0.2708216,-0.4080338 0.6018196,-0.6253051 0.3309981,-0.2172701 0.6018195,-0.5333 0.6018195,-0.70228 0,-0.3867598 1.7254568,-2.0932765 2.1165131,-2.0932765 0.1599127,0 0.2907561,-0.092101 0.2907561,-0.204682 0,-0.3279522 3.8788178,-2.8466823 4.9349098,-3.2045127 0.529597,-0.1794436 1.017068,-0.3904161 1.083267,-0.468822 0.191722,-0.2270776 3.277591,-0.94524426 4.061596,-0.94524426 0.392057,0 0.75591,-0.12946694 0.808552,-0.28770139 0.127796,-0.38407169 7.422554,-0.43252613 7.9115,-0.0525041 0.185898,0.14446127 1.181103,0.45642467 2.211572,0.69324614 1.030471,0.23683101 2.27205,0.63411931 2.759076,0.88287271 0.487025,0.2487437 1.035456,0.4522694 1.218734,0.4522694 0.183277,0 0.620761,0.1544511 0.972185,0.3432188 0.351434,0.1887773 1.153117,0.541476 1.781521,0.7837842 0.628396,0.2423094 1.142954,0.5219523 1.143455,0.6214318 4.91e-4,0.099478 0.135365,0.1808747 0.299726,0.1808747 0.164353,0 0.895561,0.3978268 1.624903,0.8840662 0.72935,0.4862406 1.737326,1.1556242 2.239954,1.4875228 2.308063,1.5240466 6.094969,6.2310029 6.586726,8.1870019 0.156811,0.623682 0.781003,0.08923 0.796833,-0.682209 0.02266,-1.105493 5.076654,-7.2235906 5.967182,-7.2235906 0.172969,0 0.376845,-0.1627819 0.453052,-0.361741 0.07625,-0.1989578 0.247876,-0.3617493 0.381468,-0.3617493 0.133599,0 0.744891,-0.3585142 1.358429,-0.7967093 0.613538,-0.4381868 1.873815,-1.1555702 2.800609,-1.5941673 0.926804,-0.4386054 1.955909,-0.9318189 2.286917,-1.0960307 0.330998,-0.1642226 1.116367,-0.437659 1.745264,-0.6076502 0.628905,-0.1699828 1.143462,-0.3830233 1.143462,-0.4734066 0,-0.090422 0.893695,-0.3634443 1.985998,-0.60678292 1.092293,-0.24333979 2.138095,-0.56224017 2.323983,-0.70866989 0.481594,-0.37936827 7.632781,-0.33589074 8.016712,0.0487615 0.158075,0.1583616 0.567965,0.28792931 0.910873,0.28792931 1.352097,0 4.584141,1.0569555 6.261331,2.047611 0.331008,0.1955043 0.95389,0.5216332 1.384188,0.7247294 0.430297,0.2030879 0.782357,0.476324 0.782357,0.6071848 0,0.1308536 0.156773,0.237925 0.348385,0.237925 0.508179,0 4.293508,3.8393698 4.886066,4.955818 0.2781,0.5239759 0.703621,1.3325168 0.9456,1.7967538 0.241971,0.464236 0.497108,0.89833 0.566965,0.964659 0.06988,0.06636 0.337685,0.608935 0.595177,1.205811 0.257484,0.596886 0.541506,1.139501 0.631153,1.205821 0.08962,0.06636 0.352898,0.717456 0.585005,1.44698 0.232118,0.729515 0.505405,1.435869 0.607298,1.569665 0.101896,0.133798 0.359166,0.994466 0.571704,1.912594 0.212546,0.918129 0.480866,1.785369 0.596269,1.927195 0.287407,0.353228 0.980566,6.239453 0.980566,8.326821 0,0.971341 0.103034,1.698177 0.240724,1.698177 0.286203,0 0.338803,7.152593 0.0535,7.275097 -0.102974,0.0442 -0.382504,1.436325 -0.621182,3.093585 -0.238667,1.657259 -0.521818,3.122323 -0.629224,3.25571 -0.107404,0.133378 -0.325274,0.893646 -0.484141,1.689489 -0.158875,0.795835 -0.422763,1.664023 -0.586416,1.929301 -0.163652,0.265287 -0.48476,1.079206 -0.713583,1.80873 -0.743728,2.371151 -4.872768,10.832819 -5.381539,11.028405 -0.166983,0.06416 -0.303603,0.222575 -0.303603,0.351961 0,0.129384 -0.649959,1.076963 -1.444368,2.105718 -0.794395,1.028755 -1.444364,1.948351 -1.444364,2.043537 0,0.09517 -0.541634,0.843669 -1.20363,1.663312 -0.662005,0.819634 -1.203639,1.623653 -1.203639,1.786708 0,0.163056 -0.21665,0.41262 -0.481458,0.554592 -0.264799,0.141972 -0.481448,0.377701 -0.481448,0.523839 0,0.274912 -1.707788,2.253361 -5.370731,6.221915 -1.166499,1.263836 -2.737247,2.96851 -3.490545,3.788179 -0.753298,0.81966 -1.457084,1.497941 -1.563961,1.507265 -0.106878,0.0094 -1.694278,1.373515 -3.52755,3.031513 -1.833272,1.657997 -3.420817,3.014541 -3.527877,3.014541 -0.107057,0 -0.469557,0.277728 -0.805541,0.617184 -0.335983,0.339445 -1.639996,1.416891 -2.897789,2.394321 -1.257802,0.977438 -2.534473,2.001982 -2.837039,2.276786 -0.302575,0.274794 -0.608379,0.49963 -0.679573,0.49963 -0.07115,0 -0.890902,0.596876 -1.821572,1.3264 -0.930672,0.729514 -1.806242,1.326399 -1.94571,1.326399 -0.13946,0 -0.608463,0.271176 -1.042207,0.60261 -0.433756,0.331433 -1.066855,0.708587 -1.406907,0.8381 -0.340051,0.129522 -0.618268,0.346701 -0.618268,0.48263 0,0.13592 -0.110482,0.247131 -0.24551,0.247131 -0.13503,0 -0.681931,0.275997 -1.215331,0.613328 -1.376463,0.870494 -1.936903,1.025676 -2.691702,0.745293 z"
       id="path1" /></g></svg>
