<?xml version="1.0" encoding="UTF-8" standalone="no"?>
<svg
   width="1000"
   height="1000"
   viewBox="0 0 1000 1000"
   version="1.1"
   id="svg5"
   sodipodi:docname="stirt.svg"
   inkscape:version="1.4.2 (f4327f4, 2025-05-13)"
   xmlns:inkscape="http://www.inkscape.org/namespaces/inkscape"
   xmlns:sodipodi="http://sodipodi.sourceforge.net/DTD/sodipodi-0.dtd"
   xmlns="http://www.w3.org/2000/svg"
   xmlns:svg="http://www.w3.org/2000/svg">
  <defs
     id="defs5" />
  <sodipodi:namedview
     id="namedview5"
     pagecolor="#ffffff"
     bordercolor="#000000"
     borderopacity="0.25"
     inkscape:showpageshadow="2"
     inkscape:pageopacity="0.0"
     inkscape:pagecheckerboard="0"
     inkscape:deskcolor="#d1d1d1"
     inkscape:zoom="0.4145"
     inkscape:cx="458.38359"
     inkscape:cy="689.98794"
     inkscape:window-width="958"
     inkscape:window-height="1000"
     inkscape:window-x="1913"
     inkscape:window-y="0"
     inkscape:window-maximized="0"
     inkscape:current-layer="svg5" />
  <path
     fill="#FEFEFE"
     transform="scale(0.976562 0.976562)"
     d="M409.809 99.6091C415.816 102.424 422.993 106.699 429.391 109.838C442.536 116.232 456.334 121.187 470.544 124.616C513.57 135.428 548.117 131.872 589.395 115.822C597.783 112.648 605.6 108.149 613.672 104.334C619.13 101.754 625.301 95.2511 631.028 98.5956L633.374 99.8664C637.17 101.586 651.601 110.53 654.406 113.177C658.633 115.541 680.612 126.712 682.82 128.965C689.545 131.174 699.205 136.491 706.481 139.401L742.583 153.96C762.142 161.7 783.587 169.722 800.707 182.23C815.8 193.257 823.483 219.742 829.669 236.989L846.182 282.211C856.147 309.624 867.012 336.702 878.759 363.401C885.088 377.442 891.99 390.323 898.698 404.01C901.296 406.963 904.473 412.126 906.719 415.541C891.202 447.518 778.917 495.682 741.276 500.127C739.564 500.329 736.333 499.198 734.728 498.41C733.717 497.907 732.718 497.382 731.73 496.834C730.1 503.118 729.248 509.556 728.207 515.958C722.607 550.388 718.636 585.395 718.748 620.312C718.813 640.269 721.473 660.351 723.475 680.193C727.829 705.371 731.668 729.906 736.949 754.971C745.015 793.247 754.619 831.034 764.679 868.839C765.716 872.739 767.902 878.204 766.338 882.107C760.929 886.244 724.964 895.556 716.825 897.512C681.169 906.365 644.969 912.857 608.46 916.947C602.769 917.639 596.772 919.203 591.007 919.78C577.445 921.136 563.692 922.347 550.123 923.581C537.866 924.696 525.663 924.245 513.453 924.222C481.67 924.431 449.914 922.326 418.438 917.922C370.949 911.571 323.989 903.82 278.107 889.668C273.831 888.349 263.813 886.405 261.26 882.88C259.199 880.034 276.197 811.816 278.712 803.825C278.73 803.767 278.758 803.712 278.781 803.655C279.657 795 284.218 777.714 286.565 768.921C287.031 762.62 291.222 751.803 291.949 744.783C292.938 739.833 292.831 733.952 293.726 729.083C304.662 669.602 310.525 611.022 301.969 550.788C299.452 533.067 300.111 515.154 293.992 497.503C284.776 499.729 280.513 499.104 271.236 496.815C236.481 488.239 138.714 445.678 121.067 416.374C122.05 411.142 127.01 401.866 130.178 397.461C140.755 374.189 152.837 351.166 162.667 327.338C176.9 292.835 190.467 258.082 204.224 223.387C208.924 211.533 216.106 193.587 225.154 184.43C249.471 159.819 292.819 148.55 324.549 136.179C339.506 130.347 353.517 124.442 367.926 118.235L368.109 117.947C376.779 113.36 401.47 101.246 409.809 99.6091Z"
     id="path1"
     style="fill:#f5f5f5;fill-opacity:1" />
  <path
     fill="#DAD9D9"
     transform="scale(0.976562 0.976562)"
     d="M723.475 680.193C721.622 678.006 722.641 672.699 720.396 668.824C717.796 668.621 714.03 679.778 712.812 682.423L703.904 701.55C692.328 726.223 677.153 750.842 659.577 771.722C657.389 774.321 652.424 781.03 649.011 780.24C647.922 777.131 653.156 765.671 654.342 762.091C659.972 745.382 665.395 728.604 670.61 711.761C675.098 696.893 679.267 681.93 683.114 666.884C692.548 631.03 700.842 593.669 709.344 557.506C713.778 538.634 718.054 519.724 722.17 500.78C728.95 470.561 735.742 440.095 738.322 409.138C738.882 402.419 738.221 393.372 738.138 386.51C738.105 377.009 738.295 367.508 738.709 358.015C741.039 308.408 751.437 250.299 774.872 205.766C775.975 203.67 780.441 195.887 782.489 195.306L782.386 196.249C760.44 219.671 751.644 326.824 753.266 359.986C760.002 340.009 767.062 319.794 776.972 301.13C779.446 296.471 787.773 282.25 792.312 279.479L792.928 279.729C793.234 283.931 786.618 303.17 785.143 308.406C777.905 334.084 768.197 359.09 760.793 384.727C757.971 394.5 753.448 406.887 751.375 416.49L751.19 417.366C756.739 407.123 786.345 348.978 793.073 346.809L793.838 347.287C797.295 359.266 750.18 470.812 742.95 487.649C777.451 453.539 852.473 406.313 903.354 413.549C901.46 410.593 899.618 407.406 898.698 404.01C901.296 406.963 904.473 412.126 906.719 415.541C891.202 447.518 778.917 495.682 741.276 500.127C739.564 500.329 736.333 499.198 734.728 498.41C733.717 497.907 732.718 497.382 731.73 496.834C730.1 503.118 729.248 509.556 728.207 515.958C722.607 550.388 718.636 585.395 718.748 620.312C718.813 640.269 721.473 660.351 723.475 680.193Z"
     id="path2" />
  <path
     fill="#DAD9D9"
     transform="scale(0.976562 0.976562)"
     d="M271.679 359.26C273.539 326.314 272.035 293.264 267.19 260.623C266.348 254.624 265.46 248.662 264.49 242.68C262.239 228.811 257.489 215.452 252.444 202.367L252.802 202.381C263.424 218.646 272.064 250.219 277.475 269.085C290.159 313.301 285.703 360.884 286.444 406.103C287.237 454.454 299.454 505.966 310.123 552.977C318.232 590.077 327.026 627.024 336.501 663.8C343.436 690.56 351.225 717.092 359.855 743.355C363.909 755.855 368.379 768.188 373.146 780.432C373.774 782.045 374.127 783.92 372.525 784.923C369.257 784.656 365.606 780.253 363.492 777.91C342.381 754.51 327.16 726.983 314.086 698.499C312.878 695.867 311.002 692.67 309.181 690.345C306.224 699.647 305.041 707.91 302.611 716.899C297.315 736.486 292.879 757.979 286.435 777.046C285.332 781.045 280.234 800.994 278.781 803.655C279.657 795 284.218 777.714 286.565 768.921C287.031 762.62 291.222 751.803 291.949 744.783C292.938 739.833 292.831 733.952 293.726 729.083C304.662 669.602 310.525 611.022 301.969 550.788C299.452 533.067 300.111 515.154 293.992 497.503C284.776 499.729 280.513 499.104 271.236 496.815C236.481 488.239 138.714 445.678 121.067 416.374C122.05 411.142 127.01 401.866 130.178 397.461C130.387 400.151 124.669 410.041 123.01 413.042C168.323 407.183 217.302 435.627 252.97 461.043C263.089 468.254 272.152 478.193 281.778 485.903C273.323 465.819 225.922 362.444 229.971 347.616L230.735 346.773C237.004 347.506 267.702 407.247 273.445 415.386C270.757 403.714 267.652 392.142 264.139 380.691C255.051 350.455 244.447 320.378 236.163 289.895C235.219 286.423 232.786 281.686 233.729 278.184L234.334 277.924C240.876 281.848 258.167 320.349 261.458 329.41C264.448 337.641 268.649 350.574 271.679 359.26Z"
     id="path3" />
  <path
     fill="#DAD9D9"
     transform="scale(0.976562 0.976562)"
     d="M409.809 99.6091C415.816 102.424 422.993 106.699 429.391 109.838C442.536 116.232 456.334 121.187 470.544 124.616C513.57 135.428 548.117 131.872 589.395 115.822C597.783 112.648 605.6 108.149 613.672 104.334C619.13 101.754 625.301 95.2511 631.028 98.5956L629.89 99.3122C629.923 102.357 630.956 110.852 630.278 113.248C617.942 156.832 560.491 177.463 519.702 177.486C485.086 177.505 450.226 166.387 425.399 142.244C415.813 132.772 407.566 118.814 407.574 104.991C407.58 103.547 407.606 102.102 407.654 100.658C400.625 103.618 389.115 108.875 382.661 112.567C385.336 154.776 431.722 185.292 468.28 197.085C473.678 198.826 477.979 200.724 483.664 201.709L483.545 202.203C479.496 202.065 473.125 200.796 468.916 200.128C442.4 195.919 415.754 185.411 397.047 165.548C388.455 156.425 379.97 142.939 378.252 130.325C377.63 125.762 377.797 119.456 377.91 114.754C375.358 115.85 370.484 118.282 367.926 118.235L368.109 117.947C376.779 113.36 401.47 101.246 409.809 99.6091Z"
     id="path4" />
  <path
     fill="#DAD9D9"
     transform="scale(0.976562 0.976562)"
     d="M633.374 99.8664C637.17 101.586 651.601 110.53 654.406 113.177C658.633 115.541 680.612 126.712 682.82 128.965C677.729 128.569 661.123 117.892 655.207 115.339C655.221 116.143 655.189 116.961 655.21 117.75C656.564 167.48 599.366 193.148 557.65 200.17C553.633 200.846 546.464 202.252 542.487 202.109C542.891 201.781 557.628 197.627 559.923 196.832C595.904 184.365 647.547 155.353 652.677 113.838C648.245 109.722 635.34 102.515 633.374 99.8664Z"
     id="path5" />
</svg>
