<?xml version="1.0" encoding="UTF-8" standalone="no"?>
<!-- Created with Inkscape (http://www.inkscape.org/) -->

<svg
   width="210mm"
   height="297mm"
   viewBox="0 0 210 297"
   version="1.1"
   id="svg1"
   inkscape:version="1.4.2 (f4327f4, 2025-05-13)"
   sodipodi:docname="tricko.svg"
   xmlns:inkscape="http://www.inkscape.org/namespaces/inkscape"
   xmlns:sodipodi="http://sodipodi.sourceforge.net/DTD/sodipodi-0.dtd"
   xmlns="http://www.w3.org/2000/svg"
   xmlns:svg="http://www.w3.org/2000/svg">
  <sodipodi:namedview
     id="namedview1"
     pagecolor="#ffffff"
     bordercolor="#000000"
     borderopacity="0.25"
     inkscape:showpageshadow="2"
     inkscape:pageopacity="0.0"
     inkscape:pagecheckerboard="0"
     inkscape:deskcolor="#d1d1d1"
     inkscape:document-units="mm"
     inkscape:zoom="0.36925856"
     inkscape:cx="4.0621943"
     inkscape:cy="708.17587"
     inkscape:window-width="1920"
     inkscape:window-height="1009"
     inkscape:window-x="1912"
     inkscape:window-y="-8"
     inkscape:window-maximized="1"
     inkscape:current-layer="layer1" />
  <defs
     id="defs1">
    <pattern
       id="EMFhbasepattern"
       patternUnits="userSpaceOnUse"
       width="6"
       height="6"
       x="0"
       y="0" />
  </defs>
  <g
     inkscape:label="Vrstva 1"
     inkscape:groupmode="layer"
     id="layer1">
    <path
       style="fill:#000000;stroke-width:0.91965"
       d="M 95.720121,261.01818 C 69.96204,260.22643 49.475755,257.63335 42.864038,254.32786 l -1.406968,-0.70341 -0.477375,-0.78293 -0.477375,-0.78293 -0.0025,-0.97303 c -0.0042,-1.63794 1.178857,-7.68426 2.296244,-11.73508 l 0.351691,-1.27497 0.374651,-4.44159 c 0.206058,-2.44289 0.44598,-5.2721 0.53316,-6.28714 l 0.158508,-1.84553 -0.506567,-1.35393 c -0.278612,-0.74465 -0.68584,-2.31064 -0.904951,-3.47996 l -0.398385,-2.12604 0.172836,-1.72899 c 0.208369,-2.08445 0.521107,-3.34654 1.949213,-7.86631 l 1.09372,-3.46148 -0.63445,-2.49835 -0.63445,-2.49835 -0.19494,-2.61957 -0.194939,-2.61956 0.213182,-1.90545 0.213181,-1.90546 0.601607,-2.07602 c 0.330885,-1.14181 1.044696,-3.1882 1.586247,-4.54752 l 0.984639,-2.47148 -0.845134,-3.33364 c -0.464823,-1.8335 -1.029242,-4.42829 -1.254263,-5.76622 l -0.409131,-2.43257 0.148641,-5.35169 0.14864,-5.35168 -0.716666,-8.3924 c -0.394166,-4.61583 -0.936905,-10.03441 -1.206087,-12.04129 -0.269182,-2.00687 -0.497797,-3.81307 -0.508032,-4.01376 -0.01024,-0.20069 -0.368068,0.72978 -0.795182,2.06769 l -0.776571,2.43259 -0.868962,0.42643 -0.868963,0.42643 -2.793826,-0.22771 -2.793827,-0.22772 -3.376832,-0.77219 -3.376832,-0.7722 -2.809489,-0.96667 C 17.256958,135.56869 6.3148811,130.211 1.9548972,127.02798 l -1.32719205,-0.96893 -0.3048696,-0.56966 -0.3048695,-0.56965 0.3774722,-1.38052 C 0.89739895,121.70327 6.5448745,104.24647 9.4986684,95.400297 16.444772,74.597744 17.754723,70.981762 20.016175,66.36782 l 1.145295,-2.336696 1.053656,-1.065626 1.053657,-1.065626 2.716846,-1.270405 c 3.128693,-1.462985 4.167776,-1.87565 13.420211,-5.329749 12.363674,-4.615583 23.699395,-9.226288 27.354967,-11.126394 l 2.299367,-1.195173 h 0.556311 0.556312 l 2.795218,-1.613162 2.795218,-1.613162 1.160334,0.154856 c 0.638184,0.08517 2.280924,0.531952 3.650533,0.992846 l 2.490201,0.837991 2.983105,0.612362 c 1.640721,0.336799 4.406182,0.799074 6.14547,1.027277 l 3.162364,0.414917 8.27078,0.01874 8.27079,0.01874 3.40561,-0.428617 c 4.54084,-0.571491 8.53931,-1.422196 12.38854,-2.635759 l 3.1724,-1.000172 1.23399,0.102332 1.23399,0.102331 1.44564,0.834553 c 0.79511,0.459003 2.36876,1.24858 3.49699,1.754615 1.12825,0.506035 2.19932,1.042867 2.38018,1.192962 0.89801,0.745284 12.67033,5.753292 18.19149,7.738759 1.07034,0.384904 3.86173,1.426312 6.20309,2.31424 2.34137,0.887929 6.22741,2.32263 8.63567,3.188226 6.61819,2.378763 8.15032,2.966485 9.58299,3.676018 l 1.31221,0.649873 0.7722,0.795112 0.7722,0.795113 1.2339,2.37986 c 1.73711,3.35043 2.89578,6.515999 8.35025,22.813549 4.8741,14.563459 9.44052,27.934449 11.0492,32.353349 0.48705,1.33792 0.98258,2.86348 1.10115,3.39012 l 0.21559,0.95755 -0.32579,0.77975 -0.32581,0.77975 -2.27355,1.4994 -2.27355,1.4994 -3.52928,1.78905 c -9.30355,4.71614 -25.06461,9.61703 -30.92788,9.61703 h -1.40631 l -0.27753,-0.51854 c -0.15263,-0.2852 -0.47282,-1.07883 -0.71152,-1.76362 l -0.43401,-1.24508 -0.12442,0.36489 c -0.28109,0.82433 -1.76073,16.93379 -1.99971,21.77161 -0.0859,1.7393 -0.36933,5.13275 -0.6298,7.541 -0.26048,2.40825 -0.53629,5.52805 -0.61293,6.93286 l -0.13933,2.55422 0.51363,4.98679 0.51363,4.9868 0.78696,4.25702 0.78695,4.25701 -0.0205,2.43259 -0.0205,2.43258 -0.91267,2.76375 -0.91268,2.76375 0.60159,1.85816 c 0.33089,1.02198 1.05189,3.02798 1.60224,4.45779 l 1.00063,2.59965 0.36478,1.7341 0.36477,1.73408 v 2.28633 c 0,1.25748 -0.11988,3.35756 -0.2664,4.66682 l -0.26641,2.38049 1.01279,6.08145 c 1.00343,6.02517 2.45979,14.00639 2.91884,15.99585 0.13099,0.56773 0.24084,1.53171 0.24411,2.14218 l 0.006,1.10997 -0.66897,0.64075 c -3.48596,3.33898 -25.4919,6.69391 -52.2397,7.96423 l -5.10843,0.24261 -7.29774,-0.0491 c -4.01377,-0.027 -8.228217,-0.0778 -9.365457,-0.11271 z m 10.581749,-1.0537 -1.94608,-0.15404 4.50028,-0.0465 c 6.69379,-0.0693 15.44308,-0.27683 17.5146,-0.41554 7.84642,-0.52536 19.01335,-1.65727 24.20419,-2.45342 7.97182,-1.22267 9.53341,-1.52493 13.20519,-2.55595 2.79649,-0.78523 4.5499,-1.5856 5.28245,-2.41126 l 0.48651,-0.54834 -0.29457,-0.10319 -0.29458,-0.10319 0.15011,-0.7505 0.1501,-0.75049 -0.30725,0.18988 -0.30724,0.18989 0.17365,-0.79065 0.17366,-0.79064 -0.31061,0.19197 -0.31061,0.19197 0.16275,-0.42413 0.16276,-0.42412 -0.14779,-0.58882 c -0.1671,-0.66577 -0.39965,-0.73597 -0.87228,-0.26334 -0.38729,0.3873 -3.03315,1.47048 -4.64481,1.90154 -0.63026,0.16856 -1.14592,0.38299 -1.14592,0.47651 v 0.17004 l -0.48652,-0.12724 -0.48652,-0.12722 v 0.21994 0.21994 l -0.99442,0.0396 -0.99442,0.0396 -0.3404,0.28251 -0.3404,0.28251 -0.36799,-0.14121 -0.36798,-0.14121 v 0.25495 0.25495 l -0.72978,-0.16029 -0.72977,-0.16027 v 0.26721 0.26722 l -0.60815,-0.15263 -0.60814,-0.15264 v 0.28896 0.28896 l -0.70663,-0.1552 -0.70661,-0.1552 -0.13898,0.22487 -0.13898,0.22489 -0.61395,-0.11737 -0.61395,-0.11736 v 0.25432 0.25432 l -0.91222,0.008 c -0.50173,0.005 -1.26186,0.0127 -1.6892,0.0185 l -0.77699,0.0106 -0.15421,0.24951 -0.15419,0.2495 -0.80458,-0.15093 -0.80458,-0.15094 -0.16845,0.27256 -0.16847,0.27258 -0.83509,-0.15667 -0.8351,-0.15666 -0.30141,0.23367 -0.3014,0.23367 -2.01531,0.0331 -2.0153,0.0331 -0.49711,0.26604 -0.4971,0.26604 -0.33082,-0.12695 -0.33083,-0.12695 -2.14356,0.23361 c -4.16273,0.45367 -8.83261,0.78309 -14.91462,1.05213 -4.03313,0.1784 -25.076474,0.23852 -25.542129,0.0729 -0.200686,-0.0714 -2.663675,-0.19678 -5.473307,-0.27874 -13.312004,-0.3883 -31.933838,-2.38439 -39.964339,-4.28379 -2.774357,-0.65621 -5.891246,-1.71146 -6.52489,-2.20906 l -0.270161,-0.21215 -0.277169,1.38012 c -0.152444,0.75908 -0.277171,1.72593 -0.277171,2.14856 v 0.76844 l 0.568184,0.53378 0.568183,0.53378 2.851778,1.20591 c 1.568477,0.66326 3.28649,1.32297 3.817805,1.46604 l 0.966028,0.26013 -0.12023,0.19454 -0.120229,0.19453 1.685327,0.318 c 0.926931,0.1749 1.646419,0.38328 1.598862,0.46307 l -0.08647,0.14508 1.716291,0.056 c 0.94396,0.0308 2.656163,0.22122 3.804895,0.42318 2.054638,0.36124 8.133625,0.94665 12.670339,1.22017 1.271025,0.0766 2.803552,0.18814 3.405616,0.24778 0.602064,0.0597 2.408256,0.17856 4.013761,0.26427 1.605508,0.0857 2.973827,0.18578 3.040732,0.22241 0.06686,0.0366 2.201486,0.14536 4.743528,0.24167 2.54205,0.0963 6.263902,0.25557 8.270781,0.35392 2.006888,0.0984 5.509805,0.1758 7.784265,0.17211 l 4.13539,-0.006 z m 15.93559,-6.69427 c 7.72884,-0.38508 14.1668,-0.9299 23.22899,-1.96577 l 5.35167,-0.61174 4.62191,-0.84588 4.62191,-0.84588 2.50912,-0.72439 c 2.54211,-0.73392 4.40268,-1.53353 4.71894,-2.02802 0.0955,-0.14927 0.3052,-0.2714 0.46606,-0.2714 h 0.2925 l 0.0893,-0.66711 0.0893,-0.6671 -0.85548,0.58054 c -0.47051,0.3193 -1.34946,0.7837 -1.95322,1.03199 -0.60376,0.2483 -1.09817,0.53012 -1.09866,0.62627 l -9.1e-4,0.1748 -0.36489,-0.14001 -0.36489,-0.14003 v 0.28568 0.28568 l -0.48652,-0.15442 -0.48652,-0.15441 v 0.25201 0.25203 l -0.36488,-0.14003 -0.36489,-0.14002 v 0.29565 0.29566 l -0.60814,-0.15263 -0.60815,-0.15264 v 0.25253 0.25253 l -0.60815,-0.15264 -0.60814,-0.15263 v 0.27426 0.27426 l -0.60815,-0.15263 -0.60815,-0.15264 v 0.30004 0.30004 l -0.74186,-0.14837 -0.74187,-0.14838 0.17155,0.27757 0.17154,0.27757 -0.76759,-0.15353 -0.76761,-0.15351 v 0.269 0.26901 l -0.85684,-0.13905 -0.85686,-0.13905 0.1649,0.26682 0.1649,0.26681 -0.88922,-0.1443 -0.88923,-0.1443 v 0.25504 0.25503 l -0.87535,-0.16422 -0.87535,-0.16421 0.18339,0.29673 0.1834,0.29675 -0.88923,-0.14431 -0.88922,-0.1443 v 0.25906 0.25905 l -0.99094,-0.15845 -0.99093,-0.15846 0.17678,0.28604 0.17679,0.28605 -1.02819,-0.16442 -1.02819,-0.16441 0.17627,0.28521 0.17627,0.2852 -1.27431,-0.16904 -1.2743,-0.16904 0.18023,0.29163 0.18024,0.29163 -1.49699,-0.13574 -1.49698,-0.13575 0.15954,0.25814 0.15954,0.25813 -1.43654,-0.16115 -1.43654,-0.16116 0.36489,0.26321 0.36489,0.2632 -1.63888,-0.11172 -1.63889,-0.11172 0.15676,0.25364 0.15676,0.25365 -1.51067,-0.15789 -1.51068,-0.1579 0.17294,0.27982 0.17294,0.27982 -1.87599,-0.15859 -1.87599,-0.15857 0.17193,0.27818 0.17194,0.27819 -1.88347,-0.17067 -1.88346,-0.17068 0.17832,0.28853 0.17831,0.28852 -3.258,-0.13882 -3.25802,-0.13882 0.72978,0.17621 0.72977,0.1762 -13.50084,0.003 -13.500829,0.003 0.608146,-0.18525 0.608146,-0.18523 -3.101547,0.14095 -3.101539,0.14096 v -0.29606 -0.29605 l -2.919098,0.10914 -2.919098,0.10914 v -0.20723 -0.20723 h -1.300974 c -7.302612,0 -27.092939,-2.38048 -33.335037,-4.00969 l -2.40429,-0.62753 -1.852729,-0.85598 -1.85273,-0.85597 0.304073,0.30414 c 0.16724,0.16727 0.304073,0.47484 0.304073,0.68348 v 0.37936 l 0.522146,0.32608 c 4.953904,3.09376 25.810703,5.70038 53.481189,6.68391 1.00344,0.0357 5.328338,0.0866 9.610888,0.11318 l 7.78645,0.0484 z m -2.25232,-2.06563 2.4934,0.0472 v -0.29179 -0.29179 l 2.4033,0.17201 2.40331,0.17202 0.15912,-0.25749 0.15914,-0.25748 1.57295,0.14688 1.57296,0.14689 v -0.30986 -0.30985 l 1.39873,0.14307 1.39874,0.14308 1.7028,-0.24769 c 0.93655,-0.13622 2.26825,-0.23667 2.95934,-0.2232 l 1.25651,0.0245 0.16119,-0.2608 0.16118,-0.2608 0.83061,0.15583 0.8306,0.15581 0.42753,-0.19769 c 0.23514,-0.10872 0.92013,-0.22141 1.5222,-0.25042 0.60206,-0.029 1.53252,-0.10461 2.0677,-0.168 0.53516,-0.0634 1.6821,-0.18816 2.54876,-0.27724 l 1.57573,-0.16196 0.16178,-0.26177 0.16178,-0.26177 0.61935,0.15545 0.61934,0.15544 0.1597,-0.25839 0.1597,-0.25839 0.68346,0.15011 0.68345,0.15012 0.16795,-0.27175 0.16794,-0.27174 0.68346,0.15011 0.68346,0.15011 0.15969,-0.25839 0.1597,-0.25839 0.59324,0.14889 0.59324,0.14889 8e-5,-0.20881 9e-5,-0.20882 1.22463,-0.0517 c 0.67354,-0.0284 1.35766,-0.13515 1.52027,-0.23719 0.16261,-0.10204 0.48722,-0.15401 0.72136,-0.11549 l 0.4257,0.0701 v -0.26319 -0.26318 l 0.60814,0.15263 0.60815,0.15264 v -0.28602 -0.28603 l 0.48652,0.15442 0.48651,0.15441 v -0.27401 -0.274 l 0.26181,0.16181 0.2618,0.1618 1.79253,-0.65377 1.79252,-0.65377 0.62151,-0.62151 0.62152,-0.62152 0.004,-0.75741 c 0.002,-0.41659 0.0738,-1.02083 0.15995,-1.34279 l 0.15662,-0.58537 -0.31954,0.1975 -0.31955,0.19748 0.15926,-0.82841 0.15926,-0.82841 -0.23919,0.36489 -0.23919,0.36489 -0.004,-0.77624 -0.004,-0.77623 -0.21794,-0.1347 -0.21793,-0.13468 0.19469,-0.86319 0.19468,-0.86318 -0.37673,0.31265 -0.37673,0.31265 0.14517,-0.48461 c 0.0798,-0.26654 0.22107,-0.80197 0.31382,-1.18985 l 0.16867,-0.70524 -0.31671,0.19574 -0.31671,0.19572 0.15593,-0.77968 0.15595,-0.77969 -0.27757,0.17154 -0.27757,0.17155 0.15594,-0.7797 0.15593,-0.77968 -0.27756,0.17154 -0.27756,0.17155 0.15593,-0.7797 0.15594,-0.77969 -0.26335,0.16276 -0.26335,0.16276 0.0577,-0.94125 c 0.0317,-0.51769 0.0313,-1.43385 -9.2e-4,-2.03592 l -0.0589,-1.09466 -0.22217,0.8514 -0.22217,0.8514 -0.0285,3.64887 -0.0285,3.64888 -0.22709,-1.09466 -0.2271,-1.09467 0.12825,-3.7705 c 0.0705,-2.07377 0.20277,-4.04416 0.29386,-4.37865 l 0.1656,-0.60814 -2.40616,2.31797 c -1.32338,1.27489 -2.78929,2.6445 -3.25756,3.04357 -0.46827,0.39908 -1.39873,1.36273 -2.0677,2.14145 l -1.21629,1.41586 -2.31095,1.88218 c -1.27102,1.0352 -2.44653,1.96237 -2.61224,2.06037 l -0.30129,0.17819 0.12903,-0.31671 c 0.071,-0.17419 0.64441,-0.69985 1.27432,-1.16811 0.62991,-0.46828 3.69928,-3.39257 6.82081,-6.49842 l 5.67551,-5.64701 -0.15574,-0.252 -0.15575,-0.252 h 0.28364 0.28364 l -0.14002,-0.36489 -0.14002,-0.36488 h 0.24998 0.24998 l -0.15078,-0.24398 -0.15079,-0.24397 0.16773,-1.11848 0.16772,-1.11848 0.15115,0.24508 0.15114,0.24507 v -2.409 -2.409 l -0.20881,-8.7e-4 -0.20882,-8.6e-4 0.15776,-0.62854 0.15775,-0.62852 -0.22892,0.14148 -0.22891,0.14148 0.0246,-0.86725 0.0246,-0.86725 -0.3231,-0.19968 -0.3231,-0.19969 0.19038,-0.30803 0.19038,-0.30805 -0.31917,0.19725 -0.31916,0.19726 0.13727,-0.52489 0.13725,-0.5249 -0.2619,0.16188 -0.26192,0.16187 0.16018,-0.41743 0.16019,-0.41742 -0.27879,0.17229 -0.27879,0.17231 0.13725,-0.52489 0.13727,-0.52489 -0.20306,0.12549 -0.20306,0.1255 -0.15484,-0.48788 -0.15485,-0.48786 0.17492,-0.28302 0.17492,-0.28303 -0.24419,0.15092 -0.24418,0.1509 -0.26297,-0.53902 c -0.14463,-0.29647 -0.39004,-0.95405 -0.54535,-1.46128 l -0.28239,-0.92225 0.14102,-0.36749 0.14102,-0.36749 -0.20367,0.12588 -0.20366,0.12587 0.0479,-1.39035 0.0479,-1.39034 0.28014,-0.6848 c 0.15408,-0.37664 0.27244,-0.8145 0.26304,-0.97303 l -0.0171,-0.28824 -0.228,0.48652 -0.228,0.48651 0.10872,-0.72977 c 0.0598,-0.40138 0.1857,-1.04561 0.27975,-1.43164 l 0.17102,-0.70185 -0.82523,0.58023 c -0.45388,0.31913 -1.23606,0.93599 -1.73816,1.37082 -0.50211,0.43482 -1.02744,0.79059 -1.16741,0.79059 -0.29255,0 -5.20012,3.6309 -7.37741,5.45822 -0.80696,0.67726 -1.92429,1.55977 -2.48295,1.96116 -0.55867,0.40137 -1.63934,1.20474 -2.40151,1.78525 -0.76217,0.58052 -1.44218,0.99908 -1.51111,0.93014 -0.069,-0.069 0.29868,-0.43445 0.81696,-0.81223 0.94611,-0.68964 1.54059,-1.16911 5.40456,-4.35895 2.16139,-1.7843 8.02594,-6.2183 10.05954,-7.60569 l 1.15752,-0.78971 0.24121,0.14908 0.24122,0.14908 0.004,-0.44006 0.004,-0.44005 0.2392,0.36488 0.23919,0.36489 -0.14234,-0.8514 c -0.0783,-0.46828 -0.18787,-1.01561 -0.24351,-1.2163 l -0.10118,-0.36488 0.30467,0.38903 0.30467,0.38903 v -1.39966 -1.39964 l -0.16683,0.10311 -0.16684,0.1031 -0.16227,-1.08209 -0.16227,-1.0821 0.18425,-0.29811 0.18424,-0.29812 -0.28084,0.17357 -0.28084,0.17357 v -0.37924 c 0,-0.20859 -0.19157,-0.58216 -0.42571,-0.83016 -1.31707,-1.39507 -3.73853,-5.19884 -4.55225,-7.15091 -0.59708,-1.43236 -0.24108,-1.07015 0.71724,0.72978 0.48083,0.9031 1.53301,2.57246 2.33817,3.70969 l 1.46394,2.06769 -0.16796,-0.72977 c -0.276,-1.1992 -0.78306,-2.29692 -2.01616,-4.36468 -1.14268,-1.91614 -1.58061,-2.81144 -1.37519,-2.81144 0.12939,0 2.16497,3.13944 2.67466,4.12506 0.21049,0.40706 0.48937,0.7401 0.61972,0.7401 h 0.23702 v -0.37924 -0.37924 l -0.2803,0.17323 -0.28031,0.17325 0.16441,-1.02819 0.16442,-1.0282 -0.22098,0.13658 -0.22097,0.13657 -0.1581,-1.63904 c -0.30289,-3.1402 -0.68851,-6.27956 -1.11266,-9.0584 l -0.42701,-2.79747 -1.22435,-3.89213 c -1.61276,-5.12689 -1.86666,-6.05341 -2.5695,-9.3767 l -0.59402,-2.80873 -1.0229,-2.90783 c -0.56259,-1.59932 -1.6693,-4.27617 -2.45936,-5.94858 l -1.43646,-3.04073 0.47975,0.60815 c 0.58255,0.73846 2.82267,5.79708 4.02913,9.09855 l 0.88031,2.40895 0.32567,1.85237 c 0.56722,3.22622 3.25535,12.49077 3.77499,13.01041 0.33521,0.33521 0.3308,0.30707 -0.47963,-3.05966 -0.84386,-3.50562 -1.22427,-6.33678 -1.22427,-9.11167 v -1.9905 l 0.48302,0.12632 0.48302,0.12631 0.85491,0.94628 c 0.47018,0.52045 0.85489,1.0695 0.85489,1.22012 v 0.27384 l -0.94877,-1.06513 -0.94879,-1.06513 -0.20389,0.19991 -0.20391,0.19993 0.0646,1.9894 c 0.0355,1.09417 0.23717,3.02934 0.44816,4.30036 l 0.38359,2.31095 0.20435,0.0765 0.20435,0.0765 -0.13747,0.35823 -0.13747,0.35822 0.4239,0.4684 0.42389,0.4684 -0.14349,0.37394 -0.1435,0.37395 0.13948,0.36349 0.13949,0.3635 0.18589,-0.1149 0.18589,-0.11488 0.15661,-2.01222 c 0.0862,-1.10673 0.34072,-3.70185 0.56574,-5.76694 l 0.40914,-3.75472 -0.29061,-0.0969 c -0.15983,-0.0532 -0.29061,-0.1782 -0.29061,-0.2776 0,-0.0994 -0.87753,-1.70492 -1.95008,-3.5678 l -1.95007,-3.38704 -0.73923,-1.91233 c -0.40658,-1.05178 -0.68102,-1.97054 -0.60987,-2.0417 0.0712,-0.0712 0.20293,0.0779 0.29284,0.33115 0.82277,2.31794 3.22406,6.94574 4.71985,9.09619 0.23266,0.33448 0.46871,0.82708 0.52457,1.09467 l 0.10155,0.48651 0.17416,-2.55421 c 0.34825,-5.10735 0.88449,-12.30489 0.97868,-13.13595 0.0531,-0.46827 0.0488,-0.6051 -0.009,-0.30407 l -0.10583,0.54734 h -0.21564 -0.21564 l 0.14321,-1.20921 0.14322,-1.2092 -0.29892,-1.51934 -0.29891,-1.51936 -0.61141,-1.22439 c -0.33628,-0.67342 -1.3249,-2.46053 -2.19695,-3.97136 -0.87204,-1.51084 -1.53661,-2.7959 -1.47681,-2.85569 0.14712,-0.14712 3.69961,5.7942 4.34096,7.26 l 0.5123,1.17084 0.29373,1.59151 0.29374,1.5915 0.32994,-1.85695 0.32995,-1.85696 -0.16857,-0.16857 -0.16856,-0.16856 -0.22631,0.35784 -0.22631,0.35784 -0.004,-0.61913 c -0.002,-0.34053 0.45173,-2.36565 1.00839,-4.50028 l 1.01211,-3.88114 -0.0213,-0.97304 -0.0213,-0.97303 0.21022,0.48652 0.21023,0.48651 -0.11074,-1.21628 -0.11073,-1.2163 0.21108,0.48563 0.2111,0.48564 0.17648,-1.17689 c 0.1988,-1.32569 0.045,-1.81252 -0.19449,-0.61538 -0.0855,0.42739 -0.20642,0.72608 -0.26876,0.66373 -0.0624,-0.0623 0.006,-0.5438 0.15077,-1.06992 l 0.26413,-0.95658 -0.12828,-1.94884 c -0.0705,-1.07186 -0.20726,-2.22251 -0.3038,-2.55699 l -0.17555,-0.60814 0.29354,0.27259 c 0.16143,0.14992 0.436,0.80673 0.61012,1.45955 l 0.3166,1.18696 -0.0136,-2.53019 -0.0136,-2.53019 -0.20299,0.46249 -0.20299,0.4625 0.11821,-0.95793 0.1182,-0.95792 -0.49718,-2.20443 -0.49718,-2.20444 -0.13413,-3.89213 -0.13414,-3.89213 0.18518,0.1744 0.18519,0.17441 0.19573,3.71772 0.19573,3.71773 0.62124,2.9191 0.62123,2.91909 0.002,1.99443 0.002,1.99442 -0.36152,2.75787 c -0.19885,1.51683 -0.59058,3.62966 -0.87054,4.69518 -0.27995,1.06552 -0.71744,2.78468 -0.97219,3.82035 l -0.46317,1.88304 0.26933,0.5911 0.26931,0.59111 0.29257,-0.11227 0.29256,-0.11226 0.44468,1.94698 0.44468,1.94699 0.18283,-0.113 0.18283,-0.113 -0.13727,0.52489 -0.13725,0.5249 0.32291,-0.19958 0.32292,-0.19957 -0.16573,0.43188 -0.16572,0.43187 0.37685,-0.1446 0.37686,-0.14462 0.12461,0.32474 0.12461,0.32474 1.66489,-0.0247 1.66489,-0.0247 -0.11026,-0.18244 -0.11026,-0.18245 h 0.50087 0.50087 v -0.24789 -0.24789 l 0.66897,0.14594 0.66896,0.14594 -0.36489,-0.25922 -0.36489,-0.2592 0.4058,-0.004 c 0.2232,-0.002 0.60633,-0.0688 0.85141,-0.1483 l 0.4456,-0.14458 -0.36488,0.28916 -0.36489,0.28914 0.44559,-0.14457 c 0.24508,-0.0796 0.62822,-0.15227 0.85141,-0.16167 l 0.4058,-0.0171 -0.48651,-0.22877 -0.48652,-0.22877 0.97303,0.13327 0.97304,0.13326 -0.36489,-0.24855 -0.36489,-0.24856 0.48652,-0.007 0.48651,-0.007 -0.30625,-0.19442 -0.30625,-0.19442 1.3401,-0.42243 1.3401,-0.42243 v -0.24519 -0.24518 l 0.21717,0.13422 0.21716,0.13421 3.12763,-1.12545 c 1.72021,-0.61899 4.82437,-1.88778 6.89814,-2.81953 2.07378,-0.93174 5.0092,-2.23249 6.52315,-2.89055 1.51397,-0.65805 3.32016,-1.48681 4.01377,-1.84169 0.69361,-0.35487 2.57471,-1.16568 4.1802,-1.8018 l 2.91911,-1.15656 0.0397,-0.74972 0.0397,-0.74972 -0.24821,0.15341 -0.24821,0.15339 0.17375,-0.54744 0.17376,-0.54744 -0.29538,0.18255 -0.29539,0.18256 0.17375,-0.54745 0.17375,-0.54744 -0.31065,0.192 -0.31066,0.19199 0.15534,-0.40478 0.15532,-0.40479 h -0.26165 -0.26165 l 0.14003,-0.36489 0.14002,-0.36489 h -0.22799 -0.22799 l 0.15533,-0.40479 0.15533,-0.4048 -0.32593,0.20144 -0.32593,0.20144 0.13623,-0.35504 0.13625,-0.35504 -0.47285,-0.0356 -0.47284,-0.0356 -0.13407,0.34936 -0.13406,0.34935 -0.21777,-0.13459 -0.21777,-0.13459 v 0.25412 0.25411 l -1.46921,0.74166 -1.46922,0.74166 -0.27117,-0.1676 -0.27118,-0.16759 0.17357,0.28084 0.17357,0.28084 -0.31843,0.0288 c -0.17514,0.0158 -0.40217,0.0153 -0.50453,-9.2e-4 -0.10235,-0.0166 -0.92334,0.33885 -1.82444,0.7897 -1.39923,0.7001 -3.82637,1.7933 -8.20631,3.69617 -0.53516,0.2325 -1.19196,0.46465 -1.45955,0.51588 -0.26758,0.0512 -0.52322,0.20014 -0.5681,0.33089 l -0.0816,0.23774 -0.22248,-0.1375 -0.22248,-0.1375 v 0.24998 0.24998 l -0.36489,-0.14003 -0.36488,-0.14001 v 0.21751 0.21753 l -0.42571,0.0341 c -0.23413,0.0188 -1.44088,0.42262 -2.68165,0.89742 -3.00246,1.14894 -12.2667,4.06942 -12.42061,3.91551 -0.0669,-0.067 0.0334,-0.12333 0.22297,-0.12537 l 0.34461,-0.004 -0.36488,-0.24692 -0.36489,-0.24693 0.72977,0.1487 0.72978,0.14869 -0.33747,-0.2371 -0.33745,-0.23712 3.96481,-1.26236 c 2.18065,-0.6943 6.81506,-2.35392 10.29869,-3.68806 l 6.33389,-2.4257 5.20927,-2.46426 c 2.86509,-1.35536 5.3571,-2.61211 5.53778,-2.7928 0.18069,-0.18069 0.35981,-0.31755 0.39804,-0.30413 0.23535,0.0826 0.90584,-0.34668 1.0245,-0.65593 l 0.14123,-0.36803 -0.1311,-0.21213 -0.13111,-0.21213 -0.59945,0.27312 c -0.32971,0.15023 -0.59947,0.3715 -0.59947,0.4917 v 0.21858 l -0.24325,-0.15035 -0.24326,-0.15034 v 0.27198 0.27196 l -0.21265,-0.13142 -0.21266,-0.13143 -0.66747,0.61859 -0.66748,0.6186 -0.31602,-0.12128 -0.31604,-0.12127 -0.14381,0.37476 -0.14381,0.37477 -0.3558,-0.13653 -0.35579,-0.13653 -0.34298,0.34296 -0.34296,0.34297 -0.15059,-0.15058 -0.15059,-0.1506 v 0.29816 0.29816 l -0.22365,-0.13822 -0.22364,-0.13822 -0.35554,0.35553 -0.35554,0.35555 -0.15059,-0.15059 -0.15059,-0.15059 v 0.29815 0.29816 l -0.21562,-0.13326 -0.21562,-0.13326 -1.66963,0.75382 c -0.9183,0.4146 -1.70407,0.84509 -1.74616,0.95664 l -0.0765,0.20282 -0.38908,-0.1493 -0.38908,-0.1493 0.20144,0.32594 0.20144,0.32593 -0.39775,-0.15263 -0.39775,-0.15263 -0.37006,0.37006 -0.37007,0.37007 -0.24512,-0.15151 -0.24513,-0.15149 v 0.27198 0.27196 l -0.24325,-0.15034 -0.24326,-0.15035 v 0.27198 0.27197 l -0.24326,-0.15034 -0.24325,-0.15034 v 0.24998 0.24998 l -0.4048,-0.15534 -0.40479,-0.15533 0.20144,0.32594 0.20144,0.32593 -0.40479,-0.15533 -0.4048,-0.15534 v 0.24999 0.24998 l -0.24325,-0.15035 -0.24327,-0.15034 v 0.28364 0.28365 l -0.36488,-0.14003 -0.36489,-0.14002 v 0.24998 0.24998 l -0.24325,-0.15034 -0.24326,-0.15034 v 0.28364 0.28364 l -0.36489,-0.14002 -0.36489,-0.14002 v 0.22799 0.22799 l -0.40479,-0.15534 -0.4048,-0.15533 0.19913,0.32218 0.19912,0.32218 -0.25455,-0.15731 -0.25454,-0.15732 -1.12096,0.41546 -1.12096,0.41546 v 0.20514 0.20515 l -0.21557,-0.13322 -0.21557,-0.13323 -5.0013,1.69506 -5.00131,1.69507 -1.04703,0.1286 -1.04703,0.12859 0.97304,-0.34136 0.97303,-0.34137 -0.36489,-0.0397 -0.36489,-0.0397 2.48041,-0.81777 2.48041,-0.81778 0.56032,0.12336 0.56032,0.12336 -0.30256,-0.21697 -0.30256,-0.21697 1.67873,-0.54066 1.67872,-0.54067 0.25899,-0.90546 0.25897,-0.90546 -0.0742,0.80103 -0.0742,0.80104 0.3851,-0.15316 c 0.21181,-0.0842 1.38906,-0.51895 2.61612,-0.96605 5.81641,-2.11928 17.61775,-7.42101 18.6892,-8.39609 0.26759,-0.24351 0.65032,-0.47831 0.85052,-0.52179 0.2002,-0.0435 0.50935,-0.24322 0.687,-0.44391 l 0.32299,-0.36488 -0.17867,0.36488 -0.17867,0.36489 0.20613,-0.1874 c 0.11338,-0.10307 0.22172,-0.39903 0.24078,-0.65768 l 0.0347,-0.47028 -0.22785,0.14082 -0.22783,0.14081 0.17375,-0.54745 0.17376,-0.54744 -0.30764,0.19012 -0.30764,0.19014 0.13726,-0.52489 0.13726,-0.52489 -0.20306,0.1255 -0.20306,0.12549 -0.15484,-0.48787 -0.15484,-0.48787 0.17492,-0.28302 0.17491,-0.28302 -0.31916,0.19725 -0.31916,0.19725 0.13725,-0.52489 0.13727,-0.52489 -0.25889,0.16001 -0.25889,0.16 0.13726,-0.52489 0.13726,-0.52489 -0.24664,0.15242 -0.24663,0.15243 0.17375,-0.54744 0.17376,-0.54744 -0.30764,0.19013 -0.30764,0.19013 0.13726,-0.52489 0.13726,-0.52489 -0.25889,0.16 -0.25889,0.16 0.13727,-0.52489 0.13725,-0.52489 -0.20097,0.12421 -0.20096,0.12421 -0.28504,-0.86368 -0.28504,-0.86368 0.14102,-0.36749 0.14102,-0.36749 -0.27879,0.17231 -0.2788,0.17229 0.13727,-0.52489 0.13726,-0.52489 -0.25889,0.16 -0.25889,0.16001 0.13726,-0.52489 0.13726,-0.52489 -0.25889,0.16 -0.25889,0.16001 0.13727,-0.5249 0.13726,-0.52489 -0.2589,0.16001 -0.25889,0.16001 0.13726,-0.5249 0.13727,-0.52488 -0.26192,0.16186 -0.2619,0.16187 0.16018,-0.41743 0.16018,-0.41742 -0.2788,0.1723 -0.27878,0.1723 0.13726,-0.52489 0.13727,-0.52489 -0.2589,0.16 -0.2589,0.16 0.13727,-0.52489 0.13726,-0.52489 -0.25889,0.16001 -0.25889,0.16001 0.13726,-0.5249 0.13726,-0.52489 -0.25889,0.16001 -0.25889,0.16 0.13718,-0.52455 0.13717,-0.52456 h -0.24651 -0.24651 l 0.14002,-0.36488 0.14002,-0.36489 h -0.26165 -0.26165 l 0.14487,-0.37753 0.14487,-0.377518 -0.2788,0.1723 -0.27878,0.172305 0.13726,-0.524894 0.13726,-0.52489 -0.25889,0.160001 -0.25889,0.160001 0.13726,-0.524891 0.13726,-0.52489 -0.21344,0.131915 -0.21344,0.131914 -0.15166,-0.604265 -0.15166,-0.604275 0.18212,-0.294665 0.18211,-0.294669 -0.23705,0.146508 -0.23706,0.146508 -0.53445,-1.659409 -0.53445,-1.659409 0.14872,-0.456394 0.14872,-0.456394 -0.28588,0.364887 -0.28588,0.364888 0.15106,-0.689342 0.15105,-0.689343 -0.29435,0.181917 -0.29435,0.181917 0.15533,-0.404794 0.15534,-0.404792 h -0.26399 -0.264 l 0.12732,-0.486852 0.12731,-0.486852 -0.2589,0.160003 -0.25889,0.160004 0.13727,-0.524891 0.13726,-0.524891 -0.25889,0.160004 -0.25889,0.160003 0.13726,-0.52489 0.13726,-0.524891 -0.25889,0.160003 -0.25889,0.160004 0.13727,-0.524891 0.13726,-0.524891 -0.26191,0.161871 -0.26192,0.161869 0.15534,-0.404792 0.15533,-0.404793 h -0.26165 -0.26165 l 0.14487,-0.377521 0.14487,-0.377522 -0.2788,0.172302 -0.27878,0.172303 0.13726,-0.524892 0.13726,-0.524891 -0.21127,0.130575 -0.21128,0.130574 -0.39522,-1.359525 -0.39522,-1.359525 0.13987,-0.364526 0.13988,-0.364527 -0.21975,0.135819 -0.21976,0.135818 -0.41515,-1.087044 -0.41514,-1.087045 0.14838,-0.386695 0.1484,-0.386693 -0.23335,0.144212 -0.23334,0.144212 -0.15166,-0.604268 -0.15166,-0.604269 0.18212,-0.29467 0.18211,-0.294668 -0.31917,0.197253 -0.31915,0.197253 0.13726,-0.524891 0.13726,-0.524891 -0.25889,0.160004 -0.2589,0.160003 0.13727,-0.52489 0.13726,-0.524891 -0.25889,0.160003 -0.25889,0.160004 0.13726,-0.524892 0.13726,-0.52489 -0.25889,0.160004 -0.25889,0.160003 0.13727,-0.524891 0.13725,-0.52489 -0.24663,0.152427 -0.24663,0.152428 0.17375,-0.547443 0.17375,-0.547442 -0.30764,0.190131 -0.30763,0.190131 0.13717,-0.524556 0.13718,-0.524554 h -0.21286 -0.21285 l 0.14003,-0.364888 0.14001,-0.364888 h -0.28364 -0.28363 l 0.13995,-0.226449 0.13995,-0.226449 -0.24723,-0.152794 -0.24722,-0.152795 v 0.198407 c 0,0.109123 0.10304,0.557674 0.22897,0.996778 l 0.22897,0.798373 -0.20232,1.024458 -0.20232,1.024457 -0.0353,-0.973032 c -0.067,-1.846187 -0.83537,-4.229695 -2.72161,-8.442653 l -0.73043,-1.631421 0.28175,-0.526444 0.28173,-0.526443 -0.25532,0.157799 -0.25532,0.157798 -0.26671,-0.498358 -0.26672,-0.498356 0.13149,-0.212742 0.13148,-0.212741 -0.38339,-0.147119 c -0.21086,-0.08091 -0.4956,-0.147118 -0.63277,-0.147118 h -0.24939 l 0.14003,0.364887 0.14001,0.364887 h -0.18182 -0.18182 l -0.59827,2.128509 c -0.32905,1.170681 -0.56739,2.265343 -0.52965,2.432582 l 0.0686,0.304074 h -0.21541 -0.21542 l -0.33322,1.033847 c -0.18326,0.568616 -0.33742,1.143314 -0.34257,1.277105 -0.006,0.133793 -0.0788,0.297992 -0.16369,0.364888 -0.19811,0.156148 -2.17342,6.312101 -3.99532,12.45123 l -1.4211,4.788597 -0.17186,-0.106212 -0.17185,-0.106211 0.13725,0.524891 0.13727,0.52489 -0.30764,-0.19013 -0.30764,-0.190131 0.15759,0.496507 0.15758,0.496508 -0.23032,0.142343 -0.23031,0.142344 0.13711,0.524313 0.13711,0.524312 -0.31989,-0.197706 -0.3199,-0.197707 0.13711,0.524313 0.13711,0.524313 -0.19284,0.119184 c -0.22841,0.141163 -0.51863,1.531544 -0.62526,2.995463 l -0.0762,1.046467 -1.14616,3.697072 c -0.63039,2.03338 -1.25219,3.80653 -1.38178,3.94032 l -0.23561,0.24326 0.13742,-0.48652 c 0.0756,-0.26758 0.20042,-0.81491 0.27741,-1.21629 l 0.14,-0.72977 -0.72237,1.82443 c -1.28727,3.25113 -0.82858,1.43602 1.44463,-5.716565 l 1.23697,-3.89213 0.0475,-0.789499 0.0474,-0.789497 0.21081,-0.0011 0.21081,-0.0011 -0.12716,-0.486274 -0.12716,-0.486274 0.23032,-0.142342 0.23031,-0.142344 -0.14792,-0.466045 -0.14791,-0.466044 h 0.28568 0.28568 l -0.13704,-0.357098 -0.13703,-0.357096 0.24922,-0.154025 0.24921,-0.154026 -0.13057,-0.340281 -0.13058,-0.340282 h 0.264 0.26399 l -0.12722,-0.486516 -0.12723,-0.486517 h 0.2465 0.24652 l -0.15589,-0.406253 -0.1559,-0.406253 0.29204,-0.180492 0.29204,-0.18049 v -0.751804 -0.751176 h 0.22874 0.22875 l -0.14003,-0.364887 -0.14002,-0.364888 h 0.26165 0.26165 l -0.14002,-0.364887 -0.14002,-0.364888 h 0.25202 0.25201 l -0.16408,-0.516979 -0.16409,-0.51698 0.29539,0.182556 0.29538,0.182555 -0.16408,-0.51698 -0.16409,-0.516979 h 0.25202 0.25201 l -0.14001,-0.364887 -0.14003,-0.364888 h 0.26165 0.26165 l -0.14002,-0.364887 -0.14002,-0.364887 h 0.29766 0.29766 l -0.12723,-0.486516 -0.12723,-0.486517 h 0.21285 0.21285 l -0.14002,-0.364887 -0.14002,-0.364888 h 0.24502 0.24503 l 0.32607,-1.277105 c 0.17935,-0.702409 0.31189,-1.413939 0.29455,-1.581178 l -0.0315,-0.304074 h 0.23261 0.23263 l -0.15442,-0.486516 -0.15441,-0.486517 h 0.274 0.27401 l -0.13995,-0.226449 -0.13995,-0.22645 0.2366,-0.146228 0.2366,-0.146228 -0.15235,-0.397002 -0.15234,-0.397003 0.32594,0.201441 0.32593,0.201439 -0.15533,-0.404792 -0.15534,-0.404793 h 0.26165 0.26165 l -0.14001,-0.364887 -0.14002,-0.364888 h 0.26165 0.26165 l -0.13704,-0.357097 -0.13703,-0.357097 0.2366,-0.146228 0.23661,-0.146228 -0.13995,-0.226449 -0.13996,-0.22645 h 0.24998 0.24998 l -0.14002,-0.364887 -0.14002,-0.364888 h 0.28364 0.28364 l -0.13995,-0.226449 -0.13996,-0.22645 0.23661,-0.146228 0.2366,-0.146228 -0.13703,-0.357097 -0.13704,-0.357097 h 0.26165 0.26165 l -0.14001,-0.364888 -0.14003,-0.364886 h 0.26165 0.26165 l -0.14002,-0.364888 -0.14001,-0.364887 h 0.26165 0.26165 l -0.14003,-0.364888 -0.14002,-0.364887 h 0.23227 0.23226 l 0.0218,-0.766829 0.0218,-0.766828 0.26672,-0.164838 0.2667,-0.164838 -0.15589,-0.406254 -0.1559,-0.406253 h 0.22483 0.22483 l -0.13799,-1.030658 -0.13798,-1.030657 -0.382,-0.07343 -0.382,-0.07343 -0.27651,0.900962 -0.27651,0.900961 0.12553,0.203121 0.12554,0.20312 h -0.23055 -0.23053 l -0.19888,0.912218 c -0.10937,0.50172 -0.18845,1.049051 -0.17572,1.216291 l 0.0232,0.304073 h -0.24225 -0.24226 l 0.13703,0.357096 0.13703,0.357098 -0.22201,0.13721 -0.22201,0.13721 0.13703,0.357096 0.13704,0.357098 h -0.29531 -0.29532 l 0.14003,0.364886 0.14001,0.364888 h -0.25201 -0.25202 l 0.15442,0.486516 0.15441,0.486517 h -0.25201 -0.25203 l 0.14003,0.364887 0.14002,0.364888 h -0.29531 -0.29531 l 0.14002,0.364887 0.14002,0.364887 h -0.26165 -0.26165 l 0.14002,0.364888 0.14002,0.364887 h -0.25202 -0.25201 l 0.15441,0.486516 0.15442,0.486517 h -0.25202 -0.25201 l 0.14001,0.364887 0.14002,0.364887 h -0.29531 -0.29531 l 0.14003,0.364888 0.14002,0.364887 h -0.18873 -0.18873 l -0.4726,1.763622 c -0.25992,0.969992 -0.44652,1.955188 -0.41465,2.189324 l 0.0579,0.425702 h -0.25105 -0.25106 l 0.0497,0.304072 c 0.0273,0.167241 -0.0836,0.62869 -0.24649,1.025442 -0.1629,0.396753 -0.31729,1.05355 -0.34309,1.459549 -0.0258,0.405999 -0.10267,0.792915 -0.17081,0.85981 -0.0682,0.0669 -0.49769,1.599423 -0.95453,3.405615 -1.22044,4.825162 -2.84806,10.507274 -3.28149,11.455929 l -0.3786,0.828614 0.14428,-0.608147 0.14429,-0.608147 -0.38231,0.486514 c -0.21028,0.267582 -0.39671,0.705455 -0.4143,0.973036 l -0.032,0.486514 -0.19476,-0.608147 c -0.10712,-0.334476 -0.204,-0.827078 -0.21529,-1.094659 l -0.0205,-0.486516 0.21716,0.343043 0.21715,0.343046 0.17017,-1.437707 c 0.0936,-0.790738 0.25686,-1.820838 0.36283,-2.28911 l 0.19265,-0.851403 0.0462,1.21629 0.0462,1.216292 0.3394,-1.216292 c 0.18667,-0.66896 0.2925,-1.346051 0.23518,-1.504647 l -0.10424,-0.288357 0.20353,-0.07653 0.20354,-0.07653 0.88152,-3.361458 0.88153,-3.361457 -0.12966,-0.209792 -0.12966,-0.209793 0.26381,-0.163044 0.26381,-0.163043 -0.13058,-0.340281 -0.13058,-0.340282 h 0.264 0.26399 l -0.12716,-0.486274 -0.12716,-0.486274 0.237,-0.146477 0.237,-0.146478 -0.12758,-0.332491 -0.12759,-0.332491 0.24921,-0.154025 0.24923,-0.154026 -0.1276,-0.332491 -0.12759,-0.332491 0.23909,-0.147763 c 0.13149,-0.08127 0.21863,-0.276341 0.19363,-0.433492 -0.025,-0.157151 0.084,-0.600174 0.24211,-0.984493 0.15817,-0.38432 0.32525,-0.986385 0.37127,-1.33792 0.0461,-0.351537 0.21576,-0.967555 0.37716,-1.368932 0.16141,-0.401375 0.30221,-1.030806 0.3129,-1.398734 l 0.0194,-0.66896 h 0.23227 0.23225 l -0.14001,-0.364888 -0.14002,-0.364887 h 0.26165 0.26165 l -0.13704,-0.357097 -0.13703,-0.357096 0.22202,-0.13721 0.222,-0.13721 -0.13703,-0.357098 -0.13703,-0.357096 h 0.26165 0.26165 l -0.14002,-0.364888 -0.14002,-0.364887 h 0.29531 0.29531 l -0.13703,-0.357097 -0.13704,-0.357097 0.22202,-0.13721 0.22201,-0.137209 -0.13704,-0.357098 -0.13703,-0.357096 h 0.26165 0.26165 l -0.14001,-0.364888 -0.14003,-0.364887 h 0.28568 0.28568 l -0.15442,-0.486517 -0.15441,-0.486516 h 0.25202 0.25201 l -0.14002,-0.364888 -0.14002,-0.364886 h 0.26165 0.26165 l -0.14002,-0.364888 -0.14002,-0.364887 h 0.29531 0.29531 l -0.13703,-0.357097 -0.13704,-0.357098 0.24923,-0.154025 0.24921,-0.154024 -0.13058,-0.340282 -0.13058,-0.340282 h 0.26165 0.26165 l -0.14002,-0.364887 -0.14001,-0.364887 h 0.25201 0.25202 l -0.15442,-0.486517 -0.15441,-0.486516 h 0.28567 0.28568 l -0.14002,-0.364888 -0.14002,-0.364887 0.29644,-0.0192 0.29644,-0.0192 -0.30559,-0.123202 -0.30559,-0.123201 0.11824,-0.19131 0.11823,-0.191311 -1.63708,-0.546854 c -0.9004,-0.30077 -1.80129,-0.639866 -2.00198,-0.753548 l -0.36489,-0.206695 0.40987,-0.0074 c 0.22543,-0.004 0.70848,0.106136 1.07347,0.2449 l 0.66359,0.252297 0.26446,-0.266709 0.26446,-0.26671 -0.4656,0.17738 -0.46561,0.177381 0.16186,-0.261912 0.16187,-0.261911 -0.52489,0.137262 -0.52489,0.137262 0.17231,-0.278791 0.1723,-0.278791 -0.36749,0.141019 -0.36749,0.141019 -0.86367,-0.285039 -0.86368,-0.285039 0.1365,-0.220867 0.1365,-0.220868 -0.32206,0.123588 -0.32206,0.123587 -1.69745,-0.601671 -1.69746,-0.601671 0.0406,-0.193663 0.0406,-0.193662 -0.77032,-0.03869 c -1.3992,-0.07029 -2.64043,-0.286089 -3.36016,-0.584211 -1.03811,-0.429999 -0.69159,-0.5351 0.44366,-0.134563 l 0.97044,0.34239 V 56.951321 56.62223 l -0.2049,0.12663 c -0.11269,0.06965 -0.42443,0.05695 -0.69276,-0.02821 l -0.48788,-0.154844 0.16275,-0.26333 0.16275,-0.263329 -0.2856,0.17651 -0.2856,0.176509 -0.84888,-0.280157 -0.8489,-0.280159 0.12421,-0.200967 0.1242,-0.200969 -0.44905,0.117428 -0.44903,0.117429 -1.80143,-0.536799 c -0.99079,-0.295239 -2.594,-0.912745 -3.56267,-1.372233 l -1.76125,-0.835435 -0.30645,0.184153 -0.30645,0.184152 0.29476,-0.364479 0.29477,-0.364481 -0.96498,0.04927 -0.96498,0.04927 -0.13474,-0.218001 c -0.0741,-0.119901 -0.2918,-0.218002 -0.48379,-0.218002 -0.39296,0 -6.24368,-2.411184 -12.75817,-5.257875 -0.86965,-0.380017 -1.66872,-0.83025 -1.77571,-1.000518 -0.10699,-0.170268 -0.28658,-0.309579 -0.39908,-0.309579 h -0.20456 l -0.12104,0.79059 c -1.0317,6.739295 -2.69379,11.167546 -5.5243,14.718172 l -1.01892,1.278156 -0.19417,-0.120001 -0.19417,-0.120001 -0.33163,0.423024 -0.33164,0.423023 0.4257,-0.333859 0.42571,-0.333858 -0.004,0.212229 c -0.002,0.116727 -0.79899,1.035652 -1.77096,2.042057 l -1.76723,1.829828 -2.30361,1.604369 c -1.26699,0.882404 -3.12118,2.015437 -4.12043,2.517852 -2.03137,1.021363 -7.13444,3.043114 -7.68106,3.043114 -0.19474,0 -0.35408,0.08601 -0.35408,0.191132 0,0.105122 -0.19156,0.196609 -0.4257,0.203304 -0.23414,0.0067 -1.54117,0.249033 -2.9045,0.538528 -1.36335,0.289495 -3.33374,0.651607 -4.37866,0.804694 l -1.89984,0.278341 -3.49043,0.05504 -3.490434,0.05504 0.328066,-0.228976 0.328078,-0.228976 -1.181449,0.157772 -1.181456,0.157774 0.182772,-0.295729 0.182771,-0.295728 -0.88657,0.166322 -0.886571,0.166321 v -0.27361 -0.273608 l -0.729779,0.160285 -0.72977,0.160285 v -0.281914 -0.281915 l -0.729779,0.160286 -0.72977,0.160285 v -0.290958 -0.290958 l -0.474852,0.124178 -0.474852,0.124176 -0.07247,-0.213248 -0.07247,-0.213249 -0.791552,-0.08623 C 91.21062,73.990143 90.78942,73.886338 90.709971,73.806889 l -0.144449,-0.144452 -0.341107,0.130894 -0.341108,0.130894 V 73.67427 73.424313 L 89.092721,73.23746 C 88.657892,73.134691 88.15431,73.078581 87.973645,73.112772 l -0.328481,0.06217 0.185944,-0.300867 0.185944,-0.300866 -0.389076,0.149302 -0.389077,0.149303 -0.07652,-0.19111 c -0.04299,-0.105296 -0.982598,-0.580593 -2.088946,-1.056401 -1.106349,-0.475807 -2.814148,-1.324321 -3.795109,-1.885584 l -1.784084,-1.020527 -1.788088,-1.49872 -1.788088,-1.49872 -1.646954,-1.945044 c -0.905825,-1.069775 -1.650006,-2.033605 -1.653737,-2.141845 l -0.0068,-0.196801 0.304073,0.174987 0.304072,0.174985 -0.202714,-0.221443 C 72.90451,61.443796 72.6947,61.344146 72.549758,61.344146 c -0.144941,0 -0.306215,-0.128056 -0.358385,-0.284569 l -0.09486,-0.28457 0.395146,0.05799 0.395146,0.05799 0.58291,0.713091 c 0.3206,0.3922 0.586846,0.808594 0.591657,0.92532 l 0.0087,0.212229 -0.425701,-0.333858 -0.425703,-0.333859 0.338738,0.431581 c 0.186305,0.237369 0.396354,0.373963 0.466776,0.303542 0.164061,-0.164061 1.018923,0.60239 1.018923,0.913543 v 0.235342 l -0.425701,-0.333858 -0.425703,-0.333858 0.338738,0.43158 0.338737,0.431581 0.13342,-0.133421 0.133421,-0.133421 1.158909,1.141483 1.158909,1.141484 -0.114671,0.185541 -0.11467,0.185541 0.284811,0.176023 0.284812,0.176024 -0.173571,-0.280844 -0.173571,-0.280844 h 0.219913 c 0.120951,0 0.401317,0.200449 0.623033,0.445443 l 0.40312,0.445443 -0.138344,0.138344 -0.138345,0.138343 0.297029,0.183575 0.297028,0.183573 -0.173572,-0.280844 -0.173571,-0.280844 h 0.22783 c 0.125305,0 0.349748,0.146904 0.498762,0.326455 l 0.270934,0.326455 -0.135736,0.135735 -0.135736,0.135736 0.441919,-0.03649 0.441919,-0.03649 -0.06684,0.322153 -0.06684,0.322155 0.244257,-0.15096 0.244258,-0.15096 0.498358,0.266713 0.498356,0.266712 -0.166024,0.268639 -0.166031,0.268639 0.27077,-0.167346 0.270772,-0.167345 1.652069,0.829149 c 5.043103,2.531067 11.586028,4.217637 18.072007,4.658425 l 2.31095,0.157053 3.01601,-0.263315 3.01602,-0.263315 3.18707,-0.704332 3.18708,-0.704333 2.3404,-0.851644 c 3.38346,-1.231204 5.76161,-2.378228 8.12544,-3.919042 2.17674,-1.418876 2.44618,-1.550028 2.15894,-1.050894 -0.0962,0.16724 -0.11182,0.249339 -0.0347,0.182444 0.0772,-0.0669 0.15879,-0.231095 0.18131,-0.364888 0.0599,-0.355771 0.51018,-0.851404 0.77351,-0.851404 h 0.22782 l -0.17498,0.304074 -0.17499,0.304072 0.22144,-0.202715 c 0.1218,-0.111494 0.22145,-0.294649 0.22145,-0.407011 0,-0.112363 0.67913,-0.907658 1.50917,-1.767323 0.83005,-0.859665 2.27555,-2.583593 3.21224,-3.830951 l 1.70307,-2.267923 0.84903,-1.976324 c 0.46696,-1.086978 1.13832,-2.956479 1.49191,-4.154446 l 0.6429,-2.178124 0.0394,-2.594505 0.0394,-2.594506 -0.43602,-0.272282 -0.43601,-0.272282 0.0272,1.042351 c 0.015,0.573293 -0.094,1.644415 -0.24205,2.380271 -0.14811,0.735857 -0.29941,1.561484 -0.33623,1.834727 -0.0368,0.273244 -0.14864,0.629009 -0.24849,0.790589 l -0.18157,0.293783 0.15033,0.243258 0.15035,0.243258 h -0.27401 -0.274 l 0.15441,0.486517 0.15442,0.486516 h -0.25202 -0.25202 l 0.15533,0.404793 0.15534,0.404792 -0.32594,-0.201439 -0.32594,-0.20144 0.15533,0.404792 0.15534,0.404793 h -0.26165 -0.26165 l 0.14002,0.364887 0.14003,0.364888 h -0.24998 -0.24998 l 0.15033,0.243258 0.15035,0.243258 h -0.28364 -0.28364 l 0.14486,0.377522 0.14488,0.377522 -0.28181,-0.174169 -0.28182,-0.174169 0.15534,0.404793 0.15533,0.404792 h -0.21013 c -0.11557,0 -0.49632,0.547331 -0.84611,1.216291 -0.34979,0.668961 -0.57177,1.216292 -0.4933,1.216292 0.0785,0 -0.19203,0.334714 -0.60113,0.743808 -0.40909,0.409095 -0.71854,0.82824 -0.68767,0.931433 0.0309,0.103193 -1.09326,1.339157 -2.49807,2.746587 l -2.55422,2.558963 -1.27604,0.84877 -1.27604,0.848769 0.18138,0.181384 0.18138,0.181382 -0.24326,-0.07425 c -0.13379,-0.04084 -0.95479,0.325066 -1.82443,0.813127 -0.86965,0.48806 -2.04642,1.07157 -2.61503,1.296688 -0.56862,0.225117 -1.03385,0.50345 -1.03385,0.618516 v 0.20921 l -0.36489,-0.14002 -0.36488,-0.14002 v 0.28364 0.283641 l -0.24326,-0.150342 -0.24326,-0.150342 v 0.24998 0.24998 l -0.36488,-0.14002 -0.36489,-0.14002 v 0.28364 0.28364 l -0.24326,-0.150341 -0.24326,-0.150343 v 0.24998 0.24998 l -0.36489,-0.14002 -0.36489,-0.14002 v 0.261649 0.26165 l -0.36489,-0.14002 -0.36489,-0.140021 v 0.29531 0.29531 l -0.36488,-0.140021 -0.36489,-0.14002 v 0.252016 0.252017 l -0.48651,-0.154414 -0.48652,-0.154415 v 0.276043 0.276044 l -0.48651,-0.154415 -0.48652,-0.154414 v 0.276043 0.276044 l -0.48652,-0.154414 -0.48651,-0.154415 v 0.264285 0.264286 l -0.60815,-0.152635 -0.60815,-0.152635 v 0.274265 0.274263 l -0.5816,-0.145974 -0.58162,-0.145974 -0.15759,0.255001 -0.1576,0.255001 -0.72034,-0.144069 -0.72035,-0.144069 v 0.25609 0.256089 l -1.33793,-0.138085 -1.33791,-0.138086 v 0.277291 0.277291 h -3.29835 -3.298341 l 0.170623,-0.276073 0.170622,-0.276072 -1.155277,0.173243 -1.155274,0.173245 0.185429,-0.300031 0.185429,-0.300031 -0.758168,0.151633 -0.758169,0.151634 -0.154216,-0.249533 -0.154226,-0.249532 -0.706613,0.155199 -0.706613,0.1552 v -0.288604 -0.288613 l -0.3571,0.137032 -0.3571,0.13703 -0.149885,-0.242529 -0.149894,-0.242529 -0.466041,0.147916 -0.466051,0.147917 v -0.276043 -0.276043 l -0.486514,0.154413 -0.486513,0.154415 v -0.276044 -0.276043 l -0.516981,0.164083 -0.516982,0.164083 0.190129,-0.307638 0.190137,-0.307639 -0.524559,0.137175 -0.524559,0.137174 v -0.24651 -0.246511 l -0.36488,0.140021 -0.36489,0.14002 v -0.261649 -0.26165 l -0.36489,0.14002 -0.364889,0.140021 v -0.211827 c 0,-0.116505 -0.34097,-0.33069 -0.757718,-0.475969 l -0.757709,-0.264141 -0.276134,0.157716 -0.276134,0.157716 0.174733,-0.193463 0.174743,-0.193463 -1.460211,-0.69057 C 83.60644,68.334172 80.853575,66.559204 79.271272,65.215799 l -1.245098,-1.057112 -0.192637,0.173908 -0.192637,0.173908 0.154893,-0.271562 0.154893,-0.271562 -0.480781,-0.4351 c -0.264314,-0.239305 -0.480666,-0.346435 -0.480666,-0.238066 v 0.197032 l -0.476861,-0.431553 c -0.262274,-0.237356 -0.45384,-0.502979 -0.425702,-0.590276 0.07412,-0.229947 -1.432588,-2.232276 -1.573617,-2.091248 -0.06521,0.06521 -0.120962,-0.01825 -0.12388,-0.185498 -0.0058,-0.329994 -2.522332,-4.390645 -2.79877,-4.515994 l -0.168778,-0.07653 0.149302,-0.389076 0.149303,-0.389077 -0.322182,0.19912 -0.322183,0.19912 0.158038,-0.255711 0.158039,-0.255713 -0.319118,-0.758957 -0.319117,-0.758958 -0.17908,0.17908 -0.17908,0.17908 0.160512,-0.418287 0.160512,-0.418287 h -0.217158 -0.217157 l -0.02476,-0.425702 c -0.05022,-0.863529 -0.916884,-4.320473 -1.102784,-4.39878 l -0.192167,-0.08095 0.154135,-0.614123 0.154136,-0.614123 -0.26311,-0.162611 -0.26311,-0.162611 -0.06009,-1.018338 -0.06009,-1.018338 -0.317874,0.263812 -0.317873,0.263811 v 2.022006 2.022006 l 0.353558,1.657896 c 0.194456,0.911843 0.634489,2.478893 0.977852,3.482333 l 0.624294,1.824437 1.333102,2.380134 c 1.514342,2.703724 1.470282,2.583745 0.919104,2.502848 l -0.413997,-0.06076 -1.167347,-2.036534 -1.167349,-2.036534 0.147857,-0.465854 0.147856,-0.465854 -0.24383,0.150695 -0.24383,0.150694 -0.13048,-0.340027 -0.130481,-0.340027 0.14331,-0.548018 0.14331,-0.548018 -0.278791,0.172302 -0.27879,0.172302 0.160181,-0.417427 0.160181,-0.417426 -0.294346,0.181916 -0.294348,0.181917 0.151055,-0.689343 0.151054,-0.689342 -0.270323,0.364887 -0.270322,0.364888 0.148693,-0.729775 0.148695,-0.729775 -0.277694,0.364888 -0.277694,0.364887 0.151149,-0.851403 0.151148,-0.851404 -0.221278,0.319796 -0.221277,0.319796 -0.279998,-1.394214 C 67.384905,49.362605 67.258907,48.151401 67.258907,47.437859 V 46.14051 h -0.371825 c -0.204503,0 -0.998133,0.31381 -1.763622,0.697355 -1.268437,0.635544 -9.454995,3.882703 -13.919599,5.52114 -1.003439,0.368246 -2.392119,0.925924 -3.085955,1.239283 -0.693835,0.313359 -1.329006,0.569743 -1.411491,0.569743 -0.290546,0 -7.807898,2.885675 -9.463585,3.632772 -2.081045,0.939031 -5.643849,2.206688 -6.187971,2.2017 l -0.40632,-0.0037 0.364888,-0.235809 c 0.763461,-0.493387 -0.111719,-0.204196 -2.6791,0.88527 l -2.659434,1.128527 0.152641,0.246978 0.152641,0.246979 -0.2737,-0.169156 -0.2737,-0.169156 -0.736919,0.381075 c -0.405305,0.209591 -0.736919,0.439458 -0.736919,0.510814 0,0.07136 0.109466,0.06209 0.243259,-0.0206 l 0.243258,-0.150341 v 0.208962 c 0,0.11493 -0.114792,0.323756 -0.255094,0.464057 l -0.255094,0.255093 0.708385,2.165327 c 0.389611,1.190928 1.748457,5.230378 3.019657,8.976555 4.99397,14.717029 5.871575,17.520219 9.519732,30.407282 0.87112,3.07722 1.589483,5.43074 1.596365,5.23005 0.0069,-0.20068 -0.146162,-0.96112 -0.340095,-1.68984 -0.193934,-0.72873 -0.474519,-2.1518 -0.623523,-3.16237 -0.149003,-1.01056 -0.48163,-2.67662 -0.739168,-3.70235 -0.257539,-1.02573 -0.46093,-2.120405 -0.451979,-2.432589 l 0.01627,-0.567617 0.343953,1.094663 c 0.189175,0.602063 0.741894,3.103313 1.228266,5.558333 l 0.884312,4.46367 -0.232155,0.76638 -0.232155,0.76638 -0.670864,-2.18932 c -1.217452,-3.97308 -2.305103,-7.73398 -3.30646,-11.433142 l -0.98774,-3.648922 -4.671765,-13.9276 c -2.569471,-7.66018 -4.705843,-13.825367 -4.747494,-13.700414 -0.04165,0.124952 0.597115,2.232657 1.419479,4.683787 2.623017,7.818142 3.858435,11.703241 3.651306,11.4825 -0.294219,-0.313555 -1.665074,-4.084935 -3.74753,-10.309884 l -1.831006,-5.47331 -0.297995,-1.641993 -0.297994,-1.641993 h -0.183555 c -0.100955,0 -0.3959,0.269954 -0.655433,0.599896 -0.259533,0.329943 -0.541144,0.548876 -0.625801,0.486517 l -0.153923,-0.11338 0.11307,0.153614 c 0.06219,0.08449 -0.01046,0.385519 -0.161455,0.66896 l -0.274526,0.515346 0.44454,-0.364887 0.44454,-0.364887 -0.29529,0.554144 -0.295289,0.554144 -0.188254,-0.116347 -0.188255,-0.116348 0.01802,0.535236 0.01802,0.535237 -0.322154,-0.06684 -0.322153,-0.06684 0.140499,0.227333 0.1405,0.227333 -0.147909,0.385443 -0.147908,0.385442 -0.195082,-0.120568 -0.195083,-0.120567 0.11164,0.426909 0.111639,0.42691 -1.08092,2.674968 c -0.594512,1.471252 -1.480993,3.957869 -1.969964,5.525835 l -0.889039,2.850848 -0.241812,0.149448 -0.241813,0.149447 0.136975,-0.689342 0.136974,-0.689342 -0.249325,0.569797 -0.249325,0.569796 0.135509,0.219257 0.135508,0.219258 -1.110116,3.589594 c -0.610564,1.974276 -1.505447,4.655241 -1.988629,5.957699 l -0.878511,2.368105 -0.214104,-0.132323 -0.214104,-0.132323 -0.03832,0.440058 c -0.02108,0.242032 -0.03324,0.576891 -0.02703,0.744131 l 0.01129,0.304073 h -0.232622 -0.232622 l 0.164083,0.516979 0.164083,0.51698 -0.20926,-0.12933 -0.209259,-0.129329 -0.04048,1.046129 -0.04048,1.046129 -0.384461,0.743462 c -0.211453,0.408904 -0.38446,0.996064 -0.38446,1.30479 0,0.757691 -1.4389916,5.754957 -2.6472243,9.193167 -0.540688,1.53861 -1.2635422,3.94686 -1.6063427,5.35168 -0.3428005,1.40481 -0.7354865,2.90524 -0.8726358,3.33427 -0.1371483,0.42904 -0.29122,0.99743 -0.3423802,1.26308 l -0.093019,0.48301 0.3881236,-0.14894 0.3881227,-0.14894 -0.1991199,0.32219 -0.1991199,0.32218 0.2428778,-0.15011 0.2428768,-0.1501 3.1395099,1.42818 c 3.881437,1.76569 8.506162,3.56106 13.599614,5.27952 2.140672,0.72224 4.685433,1.59521 5.655023,1.93994 l 1.76289,0.62678 -0.15136,0.2449 -0.151361,0.24491 0.547443,-0.17375 0.547443,-0.17375 -0.150483,0.24348 -0.150482,0.24349 0.545721,-0.0189 c 0.300146,-0.0104 1.665582,0.34361 3.034302,0.78663 l 2.488581,0.80547 -0.117149,0.18955 -0.117148,0.18955 0.52489,-0.13727 0.524892,-0.13725 -0.190132,0.30764 -0.19013,0.30763 0.577794,-0.16362 0.577794,-0.16363 -0.364887,0.27824 -0.364888,0.27824 0.661599,-0.10554 0.661599,-0.10553 -0.116391,0.18833 -0.11639,0.18832 0.792712,0.17792 0.792712,0.17793 -0.297639,0.10325 -0.297639,0.10326 -3.594493,-1.13427 c -1.976971,-0.62385 -5.259345,-1.72496 -7.294163,-2.44692 l -3.69967,-1.31265 -0.374906,0.14387 -0.374906,0.14386 v -0.29531 -0.29531 l -0.418287,0.16051 -0.418287,0.16051 0.189129,-0.18912 0.189129,-0.18914 -2.358224,-0.79061 -2.358224,-0.79062 -0.270903,0.15449 -0.270902,0.15448 0.184126,-0.20285 0.184125,-0.20285 -2.092769,-0.80908 -2.092768,-0.80908 -0.219867,0.13588 -0.219866,0.13589 v -0.28364 -0.28365 l -0.377522,0.14488 -0.377522,0.14486 0.174169,-0.28181 0.174169,-0.28181 -0.404792,0.15533 -0.404793,0.15534 v -0.19873 c 0,-0.10929 -0.452968,-0.37665 -1.006594,-0.59412 l -1.006595,-0.3954 -0.270511,0.15424 -0.2705117,0.15424 0.1747347,-0.19345 0.174733,-0.19347 -1.4504664,-0.68596 c -0.797756,-0.37728 -1.6426505,-0.71827 -1.8775421,-0.75776 -0.2348915,-0.0395 -0.4818083,-0.1323 -0.5487037,-0.20626 -0.066895,-0.0739 -0.5153342,-0.37354 -0.9965291,-0.66574 l -0.8749,-0.53126 -0.1589477,0.15894 c -0.087422,0.0875 -0.1589477,0.3021 -0.1589477,0.47705 v 0.3181 l 0.7377286,0.38149 0.7377277,0.3815 -0.1671676,0.27048 -0.1671685,0.27049 0.2693269,-0.16646 0.2693278,-0.16646 2.3832844,1.12052 c 2.6909084,1.26514 3.7509674,1.68408 9.9242904,3.92206 4.039917,1.46457 20.52064,7.12363 20.79858,7.1417 0.06689,0.005 -0.05648,0.11196 -0.274167,0.23912 l -0.395796,0.23122 -1.302642,-0.44279 -1.302642,-0.44278 0.360518,-0.16217 0.360518,-0.16217 -0.729775,0.13048 -0.729775,0.13047 0.364887,-0.27032 0.364888,-0.27033 -0.729775,0.14869 -0.729775,0.1487 0.364888,-0.27032 0.364887,-0.27033 -0.729775,0.1487 -0.729774,0.1487 0.364887,-0.27034 0.364887,-0.27032 -0.729774,0.1487 -0.729775,0.14869 0.364887,-0.27032 0.364888,-0.27032 -0.729775,0.14869 -0.729774,0.14869 0.364886,-0.24691 0.364888,-0.24693 -0.311708,-0.004 -0.311707,-0.004 -0.127271,0.33167 -0.127273,0.33166 0.74886,1.27007 c 0.411871,0.69853 1.539875,2.26219 2.506673,3.47479 0.966799,1.2126 1.731781,2.29402 1.699961,2.40316 l -0.05786,0.19842 1.005322,0.3012 1.005321,0.3012 -0.24624,0.082 c -0.272359,0.0908 -1.491479,-0.30574 -11.257392,-3.66159 -7.949508,-2.73167 -9.055116,-3.15093 -19.0957733,-7.24142 -2.0068807,-0.81759 -3.8324027,-1.49954 -4.0567164,-1.51544 l -0.4078419,-0.029 0.1436742,-0.23247 0.1436751,-0.23247 -0.4174273,0.16019 -0.4174265,0.16017 0.1308653,-0.21174 0.1308653,-0.21175 -0.9677027,-0.24563 -0.9677018,-0.24562 0.1244672,0.20139 c 0.2032905,0.32893 3.3530462,2.34837 3.9462425,2.5301 l 0.5473316,0.16767 v 0.24123 0.24122 l 0.2432585,-0.15034 0.2432576,-0.15034 v 0.27197 0.27197 l 0.2432585,-0.15034 0.2432585,-0.15034 v 0.27197 0.27197 l 0.2449764,-0.15141 0.2449764,-0.1514 0.1454003,0.37891 0.1454013,0.37891 0.2177686,-0.13459 0.2177686,-0.13459 v 0.25761 c 0,0.14169 0.082097,0.2316 0.1824429,0.19978 0.100344,-0.0318 0.5368182,0.0904 0.9699412,0.27149 l 0.7874979,0.32933 -0.156123,0.25261 -0.156123,0.25261 0.262616,-0.1623 0.262614,-0.16231 0.626374,0.2854 c 0.344507,0.15696 0.626375,0.36904 0.626375,0.47126 v 0.18587 l 0.836741,-0.10378 0.836741,-0.10378 0.136628,0.22107 0.136628,0.22106 -0.547668,-0.10076 -0.547666,-0.10075 1.40786,0.68192 1.40786,0.68192 -0.184154,0.18416 -0.184155,0.18415 0.458193,-0.17583 0.458193,-0.17582 -0.19912,0.32218 -0.19912,0.32218 0.262615,-0.1623 0.262616,-0.1623 0.626373,0.28539 c 0.344507,0.15697 0.626375,0.37386 0.626375,0.48197 v 0.19658 l 0.404792,-0.15533 0.404793,-0.15534 -0.158916,0.25713 -0.158917,0.25714 0.301455,-0.0109 c 0.1658,-0.006 0.499482,0.006 0.741513,0.0275 l 0.440058,0.0384 -0.148619,0.24047 -0.14862,0.24047 0.417427,-0.16017 0.417427,-0.16019 -0.174169,0.28181 -0.174169,0.28181 0.377522,-0.14486 0.377522,-0.14488 v 0.25042 0.25042 l 0.912218,0.31144 c 0.50172,0.17129 1.049052,0.28444 1.216292,0.25146 l 0.304072,-0.06 v 0.24629 0.24629 l 0.404793,-0.15534 0.404793,-0.15533 -0.16187,0.26191 -0.16187,0.26191 0.524891,-0.13726 0.52489,-0.13726 -0.172302,0.27879 -0.172302,0.27879 0.377522,-0.14487 0.377521,-0.14486 v 0.26165 0.26164 l 0.364888,-0.14002 0.364888,-0.14002 v 0.30982 0.30983 l 0.160061,-0.16006 0.160061,-0.16006 0.326455,0.27093 0.326456,0.27094 v -0.1812 -0.18121 l 0.35423,0.294 0.354232,0.29398 0.237105,-0.14654 0.237106,-0.14654 0.163043,0.26381 0.163044,0.26381 0.332491,-0.12759 0.332492,-0.12758 0.13721,0.22201 0.137209,0.222 0.332492,-0.12758 0.332491,-0.12759 0.146477,0.237 0.146477,0.237 0.486275,-0.12716 0.486274,-0.12716 v 0.28599 0.28598 l 0.253914,-0.15693 0.253914,-0.15693 0.293417,0.23634 c 0.161379,0.12999 1.090344,0.36879 2.064366,0.53068 l 1.770948,0.29433 0.370195,-0.14206 0.370196,-0.14206 -0.126995,0.20549 -0.126996,0.20548 2.023646,0.0265 2.023646,0.0265 0.503403,-0.46898 0.503404,-0.469 0.404433,-1.40779 c 0.222439,-0.77429 0.587156,-2.03707 0.810484,-2.80619 l 0.40605,-1.3984 0.425702,-3.4e-4 0.425702,-3.4e-4 0.02693,0.42571 c 0.01481,0.23413 0.0053,0.68429 -0.02099,1.00036 l -0.04791,0.57466 0.238759,-0.14757 0.23876,-0.14755 0.147118,0.38338 c 0.08092,0.21087 0.147119,0.92294 0.147119,1.58241 0,0.65945 0.169944,2.25512 0.377654,3.54591 l 0.377655,2.3469 -0.31684,0.20097 -0.31684,0.20096 0.335709,0.004 0.335709,0.004 -0.127081,1.12746 -0.127082,1.12748 0.213349,-0.33688 0.21335,-0.33688 0.0025,0.97303 c 0.0014,0.53517 0.138418,2.39609 0.304515,4.13539 l 0.301994,3.16235 0.128795,-0.8514 0.128795,-0.8514 0.50523,4.86517 0.505231,4.86516 0.873793,1.88525 c 1.050646,2.26682 0.978551,2.47761 -0.124796,0.36488 l -0.793993,-1.52035 -0.141649,1.45955 -0.141649,1.45955 -0.06951,-1.94608 -0.06951,-1.94606 -0.207115,1.21629 -0.207115,1.2163 0.07943,4.68858 0.07943,4.6886 0.156298,0.1563 0.156299,0.1563 0.03673,-4.11512 0.03673,-4.11511 0.199981,2.67584 c 0.10999,1.4717 0.250012,3.85953 0.311161,5.30627 l 0.11118,2.63045 0.272065,0.3278 0.272064,0.32782 -0.25507,0.15765 -0.255071,0.15764 v -0.29815 c 0,-0.164 -0.0494,-0.24876 -0.109788,-0.18838 -0.06038,0.0604 0.0393,0.65333 0.221507,1.31765 l 0.331294,1.20786 0.0484,-0.8514 0.0484,-0.85141 0.220899,1.09466 0.220899,1.09467 -0.129654,0.60814 -0.129655,0.60815 0.368619,-0.4722 c 0.202741,-0.25971 0.368619,-0.56719 0.368619,-0.68332 v -0.21111 l 0.225745,0.13952 0.225744,0.13951 0.169372,-0.55086 c 0.09315,-0.30297 0.605978,-1.42659 1.139606,-2.49692 0.533629,-1.07035 1.120342,-2.36539 1.30381,-2.87788 l 0.333577,-0.9318 -0.361007,-0.69811 c -0.484158,-0.93626 -0.44511,-1.27847 0.04301,-0.37694 l 0.384537,0.71022 1.102065,-2.65628 c 0.606136,-1.46096 2.162186,-5.17401 3.457889,-8.25123 1.295703,-3.07721 2.7729,-6.60978 3.282661,-7.85015 0.50976,-1.24037 0.973926,-2.20814 1.031479,-2.15057 0.05755,0.0576 -0.215662,0.85346 -0.607147,1.76869 -0.391486,0.91523 -0.853023,2.04719 -1.025637,2.51546 -0.172615,0.46828 -0.895638,2.21973 -1.606719,3.89213 -0.711081,1.67241 -2.240829,5.44899 -3.399441,8.39242 -1.158611,2.94342 -2.708841,6.72 -3.444956,8.3924 -1.317179,2.99254 -2.557465,6.34619 -2.403839,6.4998 0.115676,0.11569 1.699144,-3.21402 3.438086,-7.22958 2.26321,-5.22618 2.690058,-6.16054 4.308106,-9.43029 0.812142,-1.64117 1.522565,-2.93801 1.578718,-2.88185 0.05615,0.0562 -0.115268,0.52816 -0.380936,1.04891 -0.529704,1.03831 -3.549542,7.85067 -5.10069,11.5065 -0.539289,1.27102 -1.737422,3.95294 -2.662518,5.95982 -1.567238,3.39993 -2.606095,6.18501 -3.175799,8.51404 l -0.238015,0.97303 -0.02887,-0.48651 c -0.01587,-0.26759 -0.143827,-0.65072 -0.284335,-0.85141 l -0.255468,-0.36488 0.163625,0.57779 0.163625,0.57779 -0.306904,-0.18967 -0.306905,-0.18968 0.182329,0.29501 0.182328,0.29502 -0.255525,1.9927 c -0.140538,1.096 -0.318444,3.08738 -0.395345,4.4253 l -0.139821,2.43258 0.213415,-0.31907 0.213414,-0.31907 0.645334,1.95257 c 0.354933,1.07391 0.645742,2.14796 0.646242,2.38677 5.01e-4,0.2388 0.219432,0.7926 0.486516,1.23065 0.539887,0.88551 0.605469,1.13077 0.242349,0.90635 l -0.243227,-0.15026 v 0.14761 c 0,0.0812 0.301032,0.43394 0.66896,0.78392 0.367928,0.34997 0.504761,0.54266 0.304073,0.4282 l -0.364888,-0.20811 0.364888,0.46907 c 0.200688,0.25799 0.545385,0.63477 0.765993,0.83729 0.220608,0.20252 0.60374,0.69238 0.851404,1.08857 l 0.450298,0.72037 -0.364887,-0.19107 -0.364888,-0.19108 0.472196,0.38293 c 0.259708,0.2106 0.390351,0.38293 0.29032,0.38293 h -0.181876 l 0.423274,0.71654 c 0.232801,0.3941 0.494411,0.67258 0.581356,0.61885 0.08694,-0.0537 0.159097,0.0343 0.160339,0.19567 0.0013,0.16135 0.367644,0.88492 0.814225,1.60793 l 0.811966,1.31454 0.105538,1.27266 0.105539,1.27266 -0.453518,0.40297 c -0.766098,0.68071 -2.985014,2.3285 -3.13555,2.3285 -0.07817,0 -0.80136,0.44768 -1.607082,0.99483 -0.805723,0.54716 -1.514226,0.94556 -1.574453,0.88533 -0.146448,-0.14645 1.239037,-1.18957 2.811321,-2.11662 0.70118,-0.41344 1.756883,-1.1546 2.346004,-1.64705 l 1.071129,-0.89535 v -0.93121 -0.93121 l -0.490731,-0.96192 c -0.269902,-0.52905 -1.397874,-2.35825 -2.506605,-4.06488 -1.10873,-1.70663 -2.364407,-3.6503 -2.790393,-4.31926 l -0.77452,-1.2163 -0.0029,0.80495 -0.0029,0.80495 0.217768,-0.13459 0.217769,-0.13459 0.147118,0.38339 c 0.08091,0.21086 0.147119,0.49561 0.147119,0.63277 v 0.24939 l -0.304524,-0.11686 -0.304525,-0.11686 -0.07864,2.70387 c -0.08356,2.87279 -0.282815,3.88697 -0.289067,1.47129 l -0.0038,-1.43928 -0.246923,-0.36489 -0.246922,-0.36489 0.148694,0.72978 0.148694,0.72977 -0.278869,-0.36488 -0.278869,-0.36489 0.150548,0.53659 0.150547,0.53659 -0.297343,0.99244 -0.297343,0.99244 -0.218091,-0.31274 -0.218093,-0.31274 0.147392,0.52664 0.14739,0.52665 -0.163628,0.65195 -0.163628,0.65195 -0.173252,-0.28033 -0.173251,-0.28033 0.0748,3.23712 c 0.04115,1.78042 0.119701,3.78897 0.174571,4.46345 l 0.09976,1.22632 0.522313,1.02382 0.522313,1.02382 h 0.230681 0.230679 l -0.155333,0.40479 -0.155334,0.40479 0.316156,-0.1954 0.316155,-0.19538 -0.119811,0.33792 -0.119811,0.33794 0.337758,0.66896 c 0.185767,0.36792 0.362314,0.66921 0.392326,0.66952 0.03001,3.2e-4 0.01941,-0.79602 -0.02355,-1.76963 l -0.07811,-1.7702 0.516902,-0.65714 c 0.284295,-0.36142 1.687775,-1.55355 3.118844,-2.64918 1.431069,-1.09562 2.902976,-2.26811 3.270904,-2.60553 l 0.66896,-0.61349 v 0.26182 c 0,0.44246 -0.764103,1.16333 -2.919099,2.75393 -1.137232,0.83938 -2.480585,1.91759 -2.985229,2.396 l -0.917533,0.86984 -0.234556,0.87108 -0.234556,0.87107 0.222609,0.7762 c 0.326371,1.13799 1.080057,2.08608 2.468644,3.10539 l 1.230884,0.90355 3.204782,1.58491 c 1.76263,0.8717 4.080512,1.94621 5.150848,2.3878 1.070337,0.44159 1.811733,0.80764 1.647547,0.81346 -0.551183,0.0195 -3.321666,-1.13132 -7.120857,-2.95794 l -3.770503,-1.81281 -1.544354,-1.28705 -1.544354,-1.28704 0.267159,0.49918 c 0.610777,1.14125 3.052058,4.1622 4.82008,5.96459 l 1.893601,1.9304 -0.546336,-0.28415 c -1.354623,-0.70454 -5.058459,-4.8456 -6.667704,-7.45478 l -1.056741,-1.71338 -0.08108,3.14956 -0.08108,3.14955 -0.235475,0.61935 -0.235474,0.61934 0.118223,1.95824 0.118223,1.95823 -0.337004,-1.94607 -0.337005,-1.94606 0.103353,1.82444 0.103354,1.82443 -0.184305,-0.43981 -0.184307,-0.43983 -0.02488,1.65612 c -0.01368,0.91086 -0.09063,2.72894 -0.171002,4.04019 l -0.14612,2.38408 0.239951,-0.1483 0.239951,-0.1483 v 0.2281 0.2281 l 0.726682,0.30101 0.726683,0.301 -0.156122,0.25261 -0.156123,0.25262 0.290974,-0.17984 0.290972,-0.17983 1.631864,0.48453 c 1.998435,0.59336 4.965312,1.25951 5.609609,1.25951 h 0.47609 l 0.733716,-1.30007 0.733716,-1.30007 0.781537,-0.65763 c 0.94335,-0.79377 2.603558,-1.66763 2.949312,-1.55238 l 0.25033,0.0834 -1.211567,0.65941 c -1.450439,0.78943 -2.603307,1.91156 -3.246429,3.15988 l -0.47244,0.91701 0.311465,0.0994 c 0.814981,0.26002 8.769156,1.39862 13.56904,1.94235 6.369101,0.7215 15.649687,1.22402 31.258683,1.69256 1.471712,0.0442 6.124022,0.0297 10.338482,-0.0323 4.21444,-0.0619 8.78466,-0.0913 10.15602,-0.0654 z m -7.60182,-16.90767 c 1.07034,-0.17078 3.1502,-0.37746 4.6219,-0.45928 l 2.67585,-0.14877 10.58173,0.20693 10.58173,0.20694 -12.40617,0.037 -12.40616,0.037 -2.18933,0.24015 c -1.20413,0.13209 -2.46299,0.22903 -2.79747,0.2154 l -0.60814,-0.0247 z m 41.59716,-5.71274 c 0.0827,-0.1338 0.30705,-0.24326 0.49858,-0.24326 1.34287,0 8.01959,-3.08707 9.02984,-4.17506 l 0.52786,-0.56847 0.30453,-1.48713 0.30453,-1.48712 -0.47611,-0.81522 -0.47611,-0.81523 -0.83285,-0.4864 -0.83284,-0.4864 -2.3209,-0.006 -2.32091,-0.006 -1.70281,0.4281 c -4.06763,1.0226 -12.0207,2.82143 -13.13594,2.97108 -0.66896,0.0898 -1.54469,0.2541 -1.94607,0.36521 -0.40138,0.11109 -1.66024,0.25796 -2.79747,0.32636 l -2.06769,0.12437 0.60814,-0.20018 c 0.33448,-0.11011 1.06532,-0.2111 1.62411,-0.22444 1.30248,-0.0311 4.71538,-0.7079 9.93065,-1.96938 2.27447,-0.55014 5.42711,-1.27322 7.00586,-1.60683 l 2.87046,-0.60657 1.87307,-0.0181 1.87308,-0.0181 1.01609,0.27755 1.01608,0.27755 0.62598,0.74394 c 0.34428,0.40916 0.69669,1.02568 0.78312,1.37004 l 0.15715,0.62613 -0.27885,0.77114 c -0.15337,0.42412 -0.27884,1.05599 -0.27884,1.40415 v 0.63303 l -0.57952,0.68762 -0.57951,0.68763 -1.91388,1.00961 -1.91389,1.00962 -2.73216,0.87564 c -1.50269,0.4816 -2.79538,0.87563 -2.87263,0.87563 h -0.14049 z M 93.774058,225.4351 c 0.869649,-0.1084 2.566376,-0.26707 3.770501,-0.35261 3.241691,-0.23028 6.956021,-0.59886 9.973591,-0.98968 1.47171,-0.19061 3.49684,-0.4189 4.50028,-0.50729 1.00344,-0.0884 1.88902,-0.19962 1.96793,-0.24717 0.30733,-0.18512 10.7413,-1.07087 13.96549,-1.18554 l 3.40562,-0.12112 -0.97304,0.22149 c -0.53517,0.12182 -1.60906,0.22781 -2.38644,0.23552 -0.77737,0.007 -3.24036,0.17785 -5.47331,0.37809 -3.92703,0.35215 -5.63973,0.54444 -14.10316,1.58334 -4.59127,0.56358 -9.455016,0.95814 -13.431169,1.08958 l -2.797475,0.0925 z m 66.021182,-2.02084 1.43611,-1.32357 -0.19057,-0.30835 -0.19057,-0.30836 -1.44518,0.16351 -1.44517,0.1635 -3.57088,1.16491 c -1.96396,0.64071 -4.00872,1.2318 -4.54389,1.31355 l -0.97303,0.14862 4.6219,-1.5658 4.62191,-1.56581 1.64199,-0.005 1.642,-0.005 -0.004,0.54733 c -0.005,0.73659 -0.14637,0.90107 -1.69909,1.97699 l -1.33791,0.92708 z M 49.025218,201.5326 c -0.01676,-0.65106 1.844762,-4.70569 2.861097,-6.23182 0.505791,-0.7595 1.265031,-2.04242 1.6872,-2.85094 0.422169,-0.80851 1.128998,-2.09007 1.570733,-2.84791 0.441733,-0.75783 1.490558,-2.55931 2.33072,-4.00328 0.840162,-1.44397 1.750604,-2.89906 2.023207,-3.23354 l 0.49564,-0.60815 -0.296499,0.60032 c -0.163075,0.33017 -0.643857,1.15116 -1.068406,1.82443 -0.42455,0.67327 -1.29873,2.20932 -1.942624,3.41345 -0.643894,1.20413 -1.702985,3.08025 -2.353536,4.16918 -0.65055,1.08891 -1.18282,2.06317 -1.18282,2.16502 0,0.10185 -0.531734,1.0171 -1.181633,2.03391 -1.139844,1.78335 -1.932638,3.34231 -2.610198,5.13272 l -0.322204,0.8514 z m -0.04023,-8.52832 1.065106,-0.54395 1.096152,-1.2163 c 1.946614,-2.15996 4.066902,-5.00753 7.245166,-9.73033 l 3.110369,-4.6219 2.296352,-4.74354 c 2.788913,-5.76101 4.496601,-9.65307 5.895977,-13.43776 1.298545,-3.51199 1.547961,-3.62775 0.344809,-0.16004 -1.600325,4.61244 -2.676609,7.07986 -6.992435,16.03039 l -1.11431,2.31095 -2.140981,3.29337 c -1.177539,1.81135 -3.071444,4.59278 -4.208676,6.18093 l -2.067695,2.88756 -1.677182,1.79773 -1.677184,1.79772 -0.682504,0.35294 c -0.375378,0.19411 -0.879508,0.35142 -1.120288,0.34956 l -0.437782,-0.004 z m -6.327169,-69.31347 -0.332876,-2.50514 0.02194,-9.36544 0.02194,-9.36544 0.558543,-4.135395 c 0.307199,-2.274464 0.703189,-5.065852 0.87998,-6.203084 l 0.321438,-2.067695 -0.110818,2.067695 c -0.06094,1.137232 -0.343878,3.545489 -0.628727,5.351681 l -0.517909,3.283988 -0.116351,9.2843 -0.11635,9.28431 0.277822,3.33588 c 0.33241,3.99133 0.203031,4.50874 -0.258639,1.03434 z M 168.14222,115.4691 c 0.0779,-1.00344 0.13471,-2.31703 0.1262,-2.9191 l -0.0154,-1.09466 0.22493,0.48651 0.22494,0.48652 -0.13327,-0.97303 -0.13326,-0.97304 0.25799,0.36489 0.25799,0.36489 -0.11812,-1.33792 -0.11813,-1.33792 0.18636,0.72977 0.18637,0.72978 0.20062,-2.31095 c 0.11034,-1.27103 0.22654,-3.07721 0.25823,-4.01376 0.0317,-0.93654 0.14415,-2.13033 0.24992,-2.65285 l 0.19231,-0.95003 -0.28696,0.17734 -0.28696,0.17736 0.14806,-0.930123 0.14807,-0.930125 -0.3856,-4.421845 c -0.21208,-2.432016 -0.36807,-4.949739 -0.34666,-5.594939 l 0.0389,-1.173093 0.0827,0.851404 c 0.0455,0.468272 0.3147,3.022216 0.59827,5.67543 l 0.51557,4.824028 -0.13695,3.690003 c -0.16931,4.56148 -0.4403,6.87476 -1.23645,10.55457 -0.34103,1.57618 -0.66982,3.19417 -0.73066,3.59556 -0.0609,0.40137 -0.0469,-0.0912 0.031,-1.09467 z m 1.77168,1.36841 c 0,-0.0501 0.54733,-1.36672 1.21629,-2.92576 0.66896,-1.55904 1.21629,-2.88287 1.21629,-2.94186 0,-0.47901 3.59239,-7.09183 5.1544,-9.48814 l 1.10995,-1.702802 0.7879,-1.897849 c 0.43335,-1.043821 0.83789,-1.847867 0.89899,-1.786775 0.0611,0.06109 -0.2171,0.930638 -0.61819,1.932319 l -0.72926,1.821251 -1.63706,2.641366 c -1.60362,2.58741 -4.97161,9.10131 -5.32764,10.30399 -0.40473,1.36717 -2.07167,4.62131 -2.07167,4.04426 z M 38.551959,113.1071 c -0.570377,-1.30984 -1.733824,-3.60155 -2.585437,-5.09267 C 31.2752,99.80022 25.21944,85.647184 23.023087,77.764076 22.39998,75.527632 21.761858,71.659025 21.79927,70.3447 l 0.0277,-0.973033 0.321361,2.347647 c 0.666657,4.870144 2.35013,10.145324 6.315595,19.789985 l 2.00081,4.866298 2.317121,4.620773 c 1.274417,2.54143 2.920078,5.63761 3.657024,6.88042 l 1.339903,2.25963 1.026682,2.55454 c 1.307489,3.25323 1.11763,3.56489 -0.253505,0.41614 z m -14.536515,-6.31766 c -0.663981,-1.7151 -1.822877,-4.97929 -2.575326,-7.253752 L 20.072029,95.400297 19.586714,93.089343 C 19.31979,91.81832 19.106837,90.504725 19.113485,90.170245 l 0.01208,-0.608145 0.562908,2.70932 0.562908,2.709322 1.772557,5.318208 c 0.974907,2.92501 2.135145,6.24189 2.578308,7.37086 0.443163,1.12896 0.764054,2.09437 0.71309,2.14532 -0.05097,0.051 -0.635918,-1.3106 -1.299899,-3.02569 z m 20.269499,1.50354 c 0.05705,-0.53517 0.219909,-3.09303 0.361901,-5.68412 l 0.258167,-4.711097 0.591979,-1.85688 0.591981,-1.856877 1.117606,-1.398735 c 0.614683,-0.769305 1.234187,-1.398735 1.376676,-1.398735 h 0.259071 l -0.582852,0.573848 c -1.462932,1.440331 -2.200841,2.860156 -2.748117,5.287702 l -0.3512,1.557823 -0.291269,4.865171 -0.291269,4.86516 -0.198204,0.36489 -0.198205,0.36488 z m 136.094587,-0.0309 c -0.006,-0.26928 1.22554,-2.94178 4.24354,-9.212906 l 1.52189,-3.162352 0.81236,-2.484971 c 0.4468,-1.366736 0.85587,-2.441466 0.90905,-2.38829 0.0532,0.05317 -0.25346,1.226147 -0.68141,2.606602 l -0.7781,2.509918 -2.14739,4.621909 c -2.24236,4.82627 -3.87052,7.97778 -3.87994,7.51009 z m 16.80829,-3.07198 c -0.54779,-2.81728 -1.09379,-4.85597 -3.37106,-12.587264 -1.24781,-4.236256 -1.5276,-5.425554 -1.50305,-6.389019 l 0.02,-0.787098 0.59202,2.554212 c 0.32562,1.404816 1.24933,4.700829 2.05268,7.324474 1.54718,5.052875 2.55205,9.145575 2.81404,11.461205 0.25409,2.24586 0.0197,1.63482 -0.60469,-1.57651 z m -157.417093,0.63842 c 0,-0.12903 -0.280919,-1.54297 -0.624265,-3.14208 -0.343345,-1.59912 -0.834384,-4.111612 -1.091198,-5.583327 -0.256815,-1.471712 -0.67628,-3.606303 -0.932146,-4.743535 -1.170965,-5.204512 -3.063279,-13.429692 -3.32991,-14.473864 l -0.124232,-0.486517 0.35892,0.608147 0.358921,0.608145 0.743162,3.040727 c 1.345233,5.504169 2.659809,11.500156 3.279953,14.960381 1.356592,7.569383 1.616205,9.191113 1.491344,9.315973 -0.0718,0.0718 -0.130549,0.025 -0.130549,-0.10405 z m 134.416793,-1.06277 c 0.0956,-0.33449 0.97424,-2.25014 1.95255,-4.25702 l 1.77874,-3.648875 0.71773,-2.189324 c 0.39476,-1.204128 1.28682,-3.557651 1.98237,-5.230051 1.89609,-4.559041 3.72496,-9.161349 4.3833,-11.030496 0.32256,-0.91578 0.61907,-1.567278 0.6589,-1.447772 0.0934,0.280273 -2.81011,8.186928 -3.82304,10.410572 -1.08639,2.384916 -1.59277,3.690024 -2.7843,7.176118 l -1.03931,3.040723 -2.00037,3.892135 c -1.1002,2.14067 -1.92216,3.61847 -1.82657,3.28399 z m 16.54801,-4.74354 c 0.0673,-1.204125 0.23678,-3.065052 0.37658,-4.135388 0.13981,-1.070336 0.40139,-3.916457 0.58129,-6.324713 l 0.3271,-4.378648 -0.0797,4.01376 -0.0797,4.013761 -0.51846,4.135387 c -0.61996,4.944911 -0.77121,5.611551 -0.6071,2.675841 z m -154.351772,-2.606619 -0.335575,-1.390322 -0.183737,0.113556 -0.183737,0.113556 0.127314,-0.486852 0.127315,-0.486852 h -0.285986 -0.285986 l 0.14187,-0.229551 0.14187,-0.229552 -0.887117,-2.750362 C 34.272074,90.556504 33.77312,89.255356 33.651203,89.177763 l -0.221669,-0.141077 0.155894,-0.406253 0.155894,-0.406254 h -0.261649 -0.261649 l 0.14002,-0.364887 0.14002,-0.364887 h -0.285677 -0.285676 l 0.164083,-0.51698 0.164083,-0.516979 -0.295381,0.182555 -0.29538,0.182555 0.173751,-0.547442 0.173751,-0.547443 -0.304797,0.188375 -0.304797,0.188374 0.166857,-0.66481 0.166857,-0.664811 -0.27907,0.172475 -0.279069,0.172474 0.164083,-0.516979 0.164083,-0.51698 h -0.276044 -0.276043 l 0.164083,-0.516979 0.164083,-0.51698 -0.304797,0.188375 -0.304797,0.188376 0.166857,-0.664812 0.166856,-0.66481 -0.279069,0.172475 -0.27907,0.172475 0.173751,-0.547443 0.173752,-0.547443 -0.295381,0.182555 -0.29538,0.182556 0.164083,-0.51698 0.164083,-0.51698 -0.198837,-5.54e-4 -0.198836,-5.55e-4 -0.02844,-0.779241 -0.02844,-0.77924 -0.249815,-0.08328 -0.249817,-0.08327 0.124178,-0.474853 0.124176,-0.474852 h -0.263995 -0.263995 l 0.14002,-0.364888 0.140021,-0.364887 h -0.26165 -0.26165 l 0.140021,-0.364887 0.14002,-0.364888 h -0.261649 -0.26165 l 0.14002,-0.364887 0.140021,-0.364888 H 29.85018 29.607924 l 0.02654,-0.304072 c 0.04265,-0.488449 -0.625356,-2.371767 -0.841247,-2.371767 h -0.197118 l 0.14002,-0.364888 0.14002,-0.364888 H 28.61449 28.35284 l 0.14002,-0.364887 0.140021,-0.364887 h -0.242247 -0.242256 l 0.01129,-0.304073 c 0.0063,-0.16724 -0.006,-0.502099 -0.02703,-0.744131 l -0.03832,-0.440058 -0.280844,0.173571 -0.280843,0.17357 0.16796,-0.271765 0.167961,-0.271767 -0.864498,-2.851711 c -0.475473,-1.56844 -0.903363,-3.241884 -0.950866,-3.718764 l -0.08637,-0.867056 0.112803,0.465137 0.112804,0.465136 0.235931,-0.343507 0.235932,-0.343507 -0.151149,0.851404 -0.151148,0.851404 0.225846,-0.327188 0.225845,-0.327188 0.153585,0.611931 0.153584,0.61193 -0.162751,0.424123 -0.162752,0.424122 0.230347,-0.142362 0.230347,-0.142361 2.40666,7.13037 2.40666,7.130371 0.01936,0.853816 0.01936,0.853815 0.220762,-0.135505 0.220763,-0.135506 -0.137175,0.524556 -0.137175,0.524554 h 0.236877 0.236878 l -0.154414,0.486517 -0.154414,0.486516 h 0.285676 0.285677 l -0.140021,0.364888 -0.14002,0.364887 h 0.252016 0.252017 l -0.154414,0.486517 -0.154415,0.486516 h 0.285676 0.285678 l -0.140021,0.364888 -0.14002,0.364886 h 0.252016 0.252016 l -0.154414,0.486517 -0.154415,0.486516 0.198837,4.84e-4 0.198836,4.83e-4 0.05566,0.788387 0.05566,0.788387 0.234748,0.07825 0.234749,0.07825 -0.13399,0.349171 -0.133989,0.349171 h 0.28364 0.283641 l -0.136692,0.221171 -0.13669,0.221171 0.843351,2.689831 c 1.131476,3.60879 1.633224,5.591404 1.537567,6.075563 l -0.07922,0.400959 z m 138.896912,0.227006 c -0.031,-0.391099 1.53777,-4.241426 2.30119,-5.647906 l 0.79223,-1.45955 0.89752,-2.797469 c 0.49363,-1.538608 1.21314,-3.727932 1.59892,-4.865164 0.93691,-2.761952 2.17129,-7.230319 2.21244,-8.008894 l 0.0331,-0.626773 0.10474,0.54219 0.10475,0.542189 -0.76254,2.985055 c -0.41941,1.64178 -1.36578,4.900712 -2.10304,7.242074 l -1.34049,4.257018 -1.40208,2.919099 c -0.77115,1.605504 -1.6315,3.411696 -1.91188,4.01376 -0.28039,0.602064 -0.51659,1.009027 -0.52489,0.904371 z m -36.34756,-39.820838 0.27791,-0.293084 10.1822,-0.115448 10.1822,-0.115447 2.67585,0.198746 2.67584,0.198747 -12.58267,0.04253 -12.58265,0.04253 -0.55329,0.167254 -0.55329,0.167254 z M 36.334082,137.91159 c -0.183622,-0.23307 -1.001109,-1.21515 -1.816638,-2.18239 l -1.48278,-1.75862 -0.803712,-1.52729 c -0.442042,-0.84001 -0.833415,-1.56423 -0.86972,-1.60938 -0.0363,-0.0452 -1.63457,-0.60541 -3.551705,-1.24502 -3.203185,-1.06868 -13.182805,-4.6652 -16.188795,-5.83422 -0.698477,-0.27164 -2.8166817,-1.25592 -4.707121,-2.18728 l -3.4371619,-1.69339 -0.3174963,-0.4342 -0.3174964,-0.43421 0.1176812,0.72516 0.1176821,0.72514 -0.2782374,-0.36488 -0.2782383,-0.36489 0.1539568,0.54733 0.1539568,0.54733 H 2.5913806 2.3545035 l 0.1371741,0.52456 0.1371741,0.52455 -0.2588907,-0.16 -0.2588916,-0.16 0.1372624,0.52489 0.1372624,0.52489 -0.3076386,-0.19014 -0.3076386,-0.19013 0.164083,0.51698 0.1640831,0.51698 H 1.8652028 1.6319234 l -0.1621628,0.64611 -0.1621637,0.64611 0.3182357,0.31222 c 0.1750296,0.17171 1.7215546,0.92263 3.4367214,1.66872 l 3.1184857,1.35652 0.2871304,-0.16452 0.2871295,-0.16451 -0.1938779,0.21261 -0.1938778,0.21261 2.2207081,0.80144 2.220709,0.80146 0.260894,-0.16124 0.260893,-0.16124 -0.189678,0.3069 -0.189677,0.30691 0.547442,-0.17375 0.547443,-0.17375 -0.191997,0.31066 -0.191998,0.31065 0.417427,-0.16018 0.417427,-0.16019 -0.148619,0.24048 -0.14862,0.24047 0.257614,0.0365 c 0.141689,0.02 0.394448,0.0475 0.561688,0.0608 0.167239,0.0134 0.45502,0.16746 0.639511,0.34239 l 0.335438,0.31807 0.333522,-0.12799 0.333522,-0.12799 v 0.21183 c 0,0.11651 0.340973,0.33069 0.757717,0.47597 l 0.757718,0.26414 0.27613,-0.15771 0.27613,-0.15772 -0.187472,0.2062 -0.187473,0.2062 1.160506,0.44287 c 0.638277,0.24357 3.568762,1.26693 6.512187,2.27413 2.943424,1.0072 6.501076,2.25268 7.905893,2.76773 1.404816,0.51505 2.594981,0.94898 2.644812,0.96428 0.04983,0.0153 -0.05964,-0.16288 -0.243259,-0.39596 z m 145.050538,-0.6596 0.88899,-0.0113 -0.13644,-0.22076 -0.13644,-0.22076 0.52489,0.13726 0.52489,0.13726 -0.11401,-0.18447 -0.114,-0.18446 1.51241,-0.44229 c 3.02997,-0.88608 14.01143,-5.47409 14.66383,-6.1265 0.19218,-0.19217 0.34941,-0.28404 0.34941,-0.20415 0,0.0799 0.33161,-0.0262 0.73691,-0.23583 l 0.73692,-0.38107 0.29694,0.17056 0.29692,0.17058 -0.18548,-0.20421 -0.18548,-0.20421 1.60488,-0.93104 1.60486,-0.93104 0.22863,0.14129 0.22863,0.1413 -0.0669,-0.32215 -0.0669,-0.32215 0.42309,0.0334 0.42308,0.0334 -0.12412,-0.20084 -0.12414,-0.20084 0.4288,-0.23996 0.42878,-0.23997 -0.21371,-0.20069 -0.21372,-0.20069 -0.10405,0.29041 -0.10404,0.2904 -0.40998,-0.13091 -0.40999,-0.13091 0.30644,0.22121 0.30643,0.22121 -1.88761,0.80627 c -1.03819,0.44345 -3.28092,1.44889 -4.98385,2.23432 -1.70292,0.78543 -3.16256,1.42805 -3.24364,1.42805 -0.0811,0 -1.53389,0.6439 -3.22848,1.43089 -1.69459,0.787 -3.48575,1.57315 -3.98034,1.747 l -0.89927,0.3161 0.14858,0.24041 0.14858,0.24041 -0.41742,-0.16018 -0.41743,-0.16018 0.17417,0.28181 0.17417,0.28181 -0.41743,-0.16018 -0.41742,-0.16018 0.16472,0.26653 0.16473,0.26653 -0.54744,-0.17375 -0.54744,-0.17376 0.18967,0.30691 0.18968,0.30691 -0.2551,-0.15766 -0.2551,-0.15766 -3.00566,1.10097 c -1.65311,0.60555 -2.67725,1.02042 -2.27588,0.92196 0.40138,-0.0985 1.12982,-0.18411 1.61877,-0.19032 z m -75.20439,-65.178842 3.04073,-0.112457 2.55421,-0.517062 2.55421,-0.517061 2.88214,-0.959511 2.88214,-0.959509 0.25699,0.15883 0.25699,0.158831 -0.15612,-0.252612 -0.15613,-0.252612 0.712,-0.29492 0.71201,-0.294921 0.29553,0.182646 0.29552,0.182645 -0.16717,-0.270484 -0.16716,-0.270484 0.75967,-0.392848 0.75969,-0.392847 0.34001,0.130475 0.34002,0.130475 -0.0579,-0.216183 -0.0579,-0.216182 1.78308,-1.234613 c 1.87575,-1.298769 2.12578,-1.425141 1.84115,-0.930539 -0.0962,0.16724 -0.11182,0.24934 -0.0346,0.182443 0.0772,-0.06689 0.15611,-0.231095 0.17536,-0.364886 0.0475,-0.329867 1.01082,-1.337921 1.27859,-1.337921 h 0.21522 l -0.17521,0.304073 c -0.0964,0.16724 0.11567,0.03909 0.4712,-0.28476 0.35552,-0.323859 0.59187,-0.643374 0.52521,-0.710035 -0.0667,-0.06666 0.0579,-0.319068 0.27672,-0.560906 l 0.39793,-0.439706 0.18319,0.113213 0.18318,0.113215 0.33164,-0.408904 0.33163,-0.408904 -0.30407,0.18268 c -0.53162,0.319389 -0.33415,-0.0499 0.8245,-1.541912 l 1.12857,-1.453276 0.24694,0.152615 0.24693,0.152614 -0.158,-0.255657 -0.15801,-0.255658 1.07835,-2.032067 1.07834,-2.032066 0.64141,-1.946066 c 0.35278,-1.070336 0.65494,-2.301831 0.67147,-2.736655 l 0.0301,-0.790589 h 0.19968 0.19968 l -0.16174,-0.644429 -0.16174,-0.644427 0.29753,0.183887 0.29754,0.183888 -0.16805,-1.120638 -0.16805,-1.120638 h 0.28703 0.28705 l -0.077,-0.647154 -0.077,-0.647155 -1.82444,-1.015849 -1.82443,-1.01585 0.0579,-0.274307 0.0579,-0.274307 -0.40187,0.154213 -0.40188,0.154214 0.17417,-0.281811 0.17416,-0.281811 -0.40772,0.156463 -0.40774,0.156462 0.11243,2.527995 0.11243,2.527995 -0.21861,-0.315476 -0.21861,-0.315476 0.16241,0.821021 0.1624,0.821023 -0.26927,-0.166418 -0.26927,-0.166418 v 0.243257 c 0,0.133793 0.10041,0.305312 0.22312,0.381156 l 0.22312,0.137897 -0.2395,0.910306 c -0.13173,0.500669 -0.7723,2.004969 -1.42348,3.34289 l -1.18398,2.432582 -1.4002,1.702807 c -1.16068,1.411512 -2.45751,2.665897 -5.0331,4.868318 -0.73725,0.630432 -2.61345,1.708443 -5.51822,3.170624 l -2.06769,1.040819 -2.55422,0.660833 c -1.40481,0.363458 -3.04681,0.773959 -3.64887,0.912224 l -1.09467,0.25139 -5.4733,0.02121 -5.473314,0.02121 -2.444669,-0.654178 -2.444669,-0.654178 -3.06192,-1.320479 -3.06192,-1.32048 -2.204435,-1.509873 -2.204466,-1.509866 -1.532761,-1.626729 c -1.994153,-2.116408 -3.525154,-4.299666 -4.768568,-6.800135 l -1.002854,-2.01671 -0.14739,-0.902389 c -0.08107,-0.496313 -0.306993,-1.648119 -0.50206,-2.559567 l -0.354669,-1.65718 0.166547,-1.255491 0.166547,-1.255491 0.148472,0.423262 0.148472,0.42326 0.263956,-1.137684 0.263955,-1.137684 -0.29259,0.40014 -0.292591,0.400142 -0.197391,-0.178663 -0.197392,-0.178663 0.160268,0.280259 0.160268,0.280258 -0.886195,0.522868 -0.886194,0.522867 -0.326817,-0.125411 -0.326817,-0.125412 0.0579,0.210844 0.0579,0.210844 -0.923021,0.631806 c -0.507662,0.347493 -1.020918,0.631805 -1.140571,0.631805 H 70.20789 l -0.144265,1.155477 c -0.07935,0.635512 -0.197073,1.593341 -0.261616,2.128509 l -0.11735,0.973033 0.255735,-0.364887 0.255736,-0.364888 -0.148855,0.973033 -0.148856,0.973033 0.28194,-0.364887 0.28194,-0.364887 -0.141769,0.851403 -0.14177,0.851404 0.261962,-0.364887 0.261964,-0.364887 -0.105534,0.661598 -0.105533,0.661598 0.246436,-0.152306 0.246437,-0.152306 -0.137261,0.52489 -0.137263,0.524891 0.246634,-0.152427 0.246634,-0.152428 -0.173752,0.547443 -0.173752,0.547442 0.243831,-0.150695 0.243829,-0.150695 0.152845,0.398307 c 0.08407,0.219069 0.09553,0.455618 0.02549,0.525663 -0.07005,0.07005 -0.127355,-0.0186 -0.127355,-0.196989 0,-0.17839 -0.05731,-0.267035 -0.127355,-0.19699 -0.07005,0.07005 -0.05857,0.306594 0.02549,0.525662 l 0.152845,0.398307 0.173478,-0.107214 0.173477,-0.107216 0.657315,1.340239 0.657316,1.34024 -0.130477,0.211114 -0.130475,0.211113 0.284812,0.176023 0.284812,0.176023 -0.196801,-0.318429 -0.196799,-0.318428 0.297427,0.183819 0.297427,0.183821 -0.135426,0.352915 -0.135426,0.352917 0.228266,-0.141077 0.228267,-0.141076 0.266713,0.498356 0.266712,0.498358 -0.15096,0.244257 -0.150959,0.244258 0.322154,-0.06684 0.322154,-0.06684 0.0031,0.408532 c 0.0017,0.224694 0.101357,0.49836 0.221445,0.608147 l 0.218341,0.199612 -0.198215,-0.341659 -0.198215,-0.341657 0.287295,0.177558 0.287295,0.177557 -0.06726,0.330593 -0.06726,0.330591 0.243258,0.03664 c 0.352378,0.05307 0.851404,0.503908 0.851404,0.769183 v 0.227829 l -0.24323,-0.150343 c -0.435437,-0.269115 -0.256561,0.03487 0.299881,0.509629 l 0.543139,0.463404 -0.347472,-0.486517 c -0.191109,-0.267584 0.270953,0.106816 1.026804,0.831998 l 1.374276,1.318515 -0.104657,0.169338 c -0.05756,0.09314 0.137174,0.375535 0.432745,0.627552 l 0.537403,0.458212 -0.329667,-0.425701 -0.329666,-0.425703 h 0.230641 c 0.126852,0 0.469655,0.254421 0.761785,0.565378 l 0.531144,0.565378 -0.140037,0.140038 -0.140039,0.140038 0.297028,0.183574 0.297028,0.183573 -0.173571,-0.280843 c -0.268642,-0.434672 0.0231,-0.337579 1.07266,0.356987 l 0.963821,0.63783 -0.155218,0.251159 -0.155228,0.251158 0.275822,-0.170464 0.275812,-0.170463 0.498358,0.266712 0.498359,0.266712 -0.141075,0.228268 -0.141083,0.228266 0.417429,-0.160182 0.417429,-0.160181 -0.174172,0.28181 -0.174164,0.281811 0.41742,-0.160181 0.417429,-0.160182 -0.199122,0.322183 -0.199114,0.322182 0.262616,-0.162305 0.262615,-0.162304 0.61874,0.281919 0.61875,0.28192 -0.126636,0.204901 -0.126635,0.2049 0.334844,-0.128491 0.334845,-0.128492 1.09992,0.471479 c 0.604946,0.259314 2.332683,0.820668 3.839401,1.247454 l 2.73949,0.775975 0.460285,-0.120369 0.460294,-0.12037 v 0.193072 0.193074 l 2.493402,0.289751 c 1.371364,0.159363 2.712324,0.313815 2.979914,0.343227 0.26758,0.02941 0.86965,0.02453 1.33792,-0.01085 0.46828,-0.03538 2.21973,-0.114929 3.89213,-0.17678 z m 3.46849,-5.880057 2.13057,-0.364347 2.24808,-0.734124 2.24808,-0.734123 2.78129,-1.460235 2.78129,-1.460234 1.59736,-1.247075 c 1.9551,-1.52637 3.33435,-2.935266 4.92736,-5.033292 l 1.21469,-1.599778 1.08196,-2.248375 1.08196,-2.248375 0.47701,-1.865112 0.47701,-1.865112 v -1.558258 -1.558259 l -0.26486,-0.494904 -0.26486,-0.494905 -1.04491,0.156693 c -0.5747,0.08618 -1.63227,0.378384 -2.35016,0.649339 -0.71789,0.270956 -1.74312,0.654814 -2.27829,0.853019 -2.99026,1.10747 -7.86884,1.958994 -14.47387,2.526318 l -3.28399,0.28207 -7.05449,-0.130905 -7.054489,-0.130905 -4.013757,-0.604348 C 84.444649,43.899297 82.036233,43.26607 77.542389,41.391655 l -1.02803,-0.428799 -0.349332,0.289921 -0.349334,0.289921 -0.287203,1.197196 -0.287203,1.197197 0.166166,1.040894 c 0.09139,0.572492 0.43107,1.971357 0.754843,3.108589 l 0.588679,2.067695 0.842552,1.775489 c 0.463405,0.97652 1.397733,2.578586 2.076286,3.560147 l 1.233732,1.784656 1.509276,1.442361 c 4.226206,4.038829 11.118128,7.107117 17.641149,7.853852 l 1.86924,0.213984 2.79747,-0.113661 2.79747,-0.113659 z m -16.237197,-5.926232 -0.970672,-0.139004 -0.07624,-0.486516 -0.07624,-0.486516 0.244388,0.359903 0.244378,0.359903 8.343543,-0.05954 c 4.58896,-0.03275 9.52032,-0.126689 10.95859,-0.208756 l 2.61502,-0.149213 v -3.982463 -3.982465 l -1.15547,0.0037 -1.15548,0.0038 0.36489,0.234264 0.36488,0.234264 -6.20309,-0.118783 c -3.41169,-0.06533 -7.922798,-0.169324 -10.024668,-0.231097 l -3.821587,-0.112314 -0.128963,0.783697 c -0.0709,0.431033 -0.172057,1.166829 -0.224726,1.635101 l -0.09577,0.851403 0.03256,-1.885817 0.03256,-1.885818 -0.182449,5.67e-4 -0.18244,5.66e-4 -0.02878,0.912218 -0.02878,0.912218 -0.154916,-0.729774 -0.154905,-0.729775 -1.093418,-0.135821 -1.093409,-0.13582 0.72977,-0.13446 0.729779,-0.134459 -0.912219,0.03345 -0.91222,0.03345 v -0.155377 c 0,-0.08546 -0.580216,-0.223573 -1.289358,-0.306919 -0.709152,-0.08335 -2.517322,-0.428734 -4.018154,-0.767528 l -2.728811,-0.61599 -1.759227,-0.706045 c -1.936685,-0.777268 -3.340405,-1.454716 -3.340405,-1.612111 0,-0.05594 0.738897,0.181407 1.641993,0.527454 5.834288,2.235574 10.044667,3.024255 18.795579,3.520755 l 4.982914,0.282716 5.35168,-0.156536 c 2.94343,-0.0861 6.19695,-0.224131 7.23004,-0.306746 l 1.87835,-0.150212 -0.15254,-0.246794 -0.15252,-0.246795 1.37572,0.16169 1.37573,0.161689 v -0.271755 -0.271754 l 0.59634,0.149673 0.59635,0.149674 2.89567,-0.611382 c 2.31146,-0.488039 5.92884,-1.497228 8.75614,-2.442825 l 0.31671,-0.105924 -0.13888,0.224724 c -0.31763,0.513934 -5.53098,2.195288 -8.38229,2.703366 l -1.80632,0.321867 0.34677,0.116554 0.34675,0.116553 -1.33792,0.307203 c -0.73585,0.168963 -2.18628,0.383351 -3.22318,0.476418 l -1.88524,0.169212 v 3.962455 c 0,2.17935 -0.0633,4.127338 -0.14061,4.328863 l -0.1406,0.36641 -0.89325,-0.09983 -0.89324,-0.09983 0.60815,0.194998 0.60815,0.194999 -2.03759,0.174712 -2.03759,0.174713 -8.17927,-0.05169 c -4.498587,-0.02843 -8.616063,-0.114243 -9.149938,-0.190696 z m 9.713967,-2.913787 0.13632,-0.220573 -0.4537,0.118645 -0.4537,0.118645 -0.46477,-0.567032 c -0.25561,-0.311868 -0.60707,-0.597112 -0.781,-0.633874 l -0.31625,-0.06684 0.15522,0.251151 0.15522,0.251152 -0.36303,0.363021 -0.36301,0.363022 H 99.878503 99.380218 L 99.03683,56.783057 c -0.18886,-0.301032 -0.473537,-0.957828 -0.632618,-1.459549 l -0.28923,-0.912218 h -0.224395 -0.224395 v 1.112038 1.112037 l -0.347517,0.347512 c -0.191131,0.191132 -0.515675,0.347512 -0.721208,0.347512 h -0.373709 l -0.251819,-0.470525 -0.251818,-0.470525 v -0.867396 -0.867396 l -0.486514,-0.486516 c -0.58658,-0.586579 -0.604991,-0.819806 -0.104251,-1.320545 l 0.382262,-0.382262 h 1.789409 1.7894 l 0.485078,0.61667 0.485075,0.616671 0.15317,-0.482598 0.15317,-0.482599 0.48598,-0.154245 0.48599,-0.154245 0.62618,0.410292 0.62619,0.410293 -0.16153,-0.261359 -0.16152,-0.261359 0.65225,-0.163706 0.65225,-0.163706 0.6348,0.234942 0.63481,0.234941 -0.0808,0.347335 -0.0808,0.347334 0.58305,-0.547331 0.58304,-0.54733 h 0.75907 c 0.4175,0 1.04647,0.10926 1.3977,0.242802 l 0.63862,0.242802 -0.13742,0.22236 -0.13742,0.222359 0.30687,-0.04504 c 0.16879,-0.02478 0.5768,-0.234095 0.90669,-0.465162 l 0.59981,-0.420121 h 0.69165 c 0.3804,0 0.90644,0.114958 1.16898,0.255463 l 0.47733,0.255463 -0.16602,0.268639 -0.16604,0.268638 0.28131,-0.173852 0.2813,-0.173853 0.24279,0.63862 c 0.13355,0.351241 0.24209,0.932525 0.24121,1.291743 l -0.002,0.653125 -0.4833,0.729774 c -0.26583,0.401376 -0.48572,0.620309 -0.48864,0.486516 l -0.006,-0.243257 -0.22314,0.352724 -0.22315,0.352724 h -0.85569 -0.8557 l -0.49288,-0.44605 -0.49287,-0.446049 0.16258,-0.271562 0.16259,-0.271563 -0.4724,0.364888 c -0.25982,0.200688 -0.58186,0.489034 -0.71565,0.640769 -0.13379,0.151735 -0.56186,0.33148 -0.95127,0.399434 l -0.70801,0.123553 -0.69073,-0.240788 c -0.3799,-0.132433 -0.69073,-0.339545 -0.69073,-0.460249 0,-0.120703 -0.10946,-0.21946 -0.24325,-0.21946 h -0.24326 l 0.0608,0.304072 0.0608,0.304073 -0.53524,-0.01802 -0.53523,-0.01802 0.12388,0.200459 0.1239,0.20046 h -0.51523 -0.51523 z m -3.148346,-7.1477 -0.973036,-0.214129 -2.281642,0.124711 -2.281652,0.12471 -0.39419,-0.202166 C 93.829817,49.927306 92.413427,49.712983 90.899076,49.562225 87.09635,49.18365 82.975619,48.193406 78.571475,46.5998 l -2.088863,-0.755839 0.435757,-0.350838 0.435758,-0.35084 -0.526859,0.144121 -0.52686,0.14412 -0.135177,-0.218722 -0.135178,-0.218723 0.783666,0.0684 c 0.431016,0.03762 1.488554,0.336574 2.350084,0.664334 l 1.566418,0.595927 -0.550902,0.17485 c -0.302996,0.09617 -0.503102,0.22265 -0.444679,0.281074 0.05843,0.05842 0.402668,-0.0064 0.764989,-0.144238 l 0.658764,-0.250461 0.624191,0.156661 0.624185,0.156662 -0.580253,0.347053 -0.580257,0.347054 0.448296,-0.139467 c 0.246568,-0.07671 0.739169,-0.202589 1.094669,-0.279736 l 0.646358,-0.140268 -0.36489,0.28261 -0.36488,0.282609 0.619439,-0.13351 0.61944,-0.133511 0.718477,0.192994 0.718485,0.192994 -0.697665,0.175938 c -0.383714,0.09677 -0.650137,0.223472 -0.592034,0.281569 0.05812,0.05809 0.465362,0.0025 0.905047,-0.12364 l 0.799415,-0.22927 1.860314,0.343803 c 2.265006,0.418596 6.084846,0.841466 7.992992,0.884855 l 1.408324,0.03202 -0.851403,0.150421 -0.851403,0.150421 8.7573,0.0051 8.75729,0.0051 -0.8514,-0.175936 -0.8514,-0.175937 2.67584,0.08646 2.67584,0.08646 -0.60814,-0.176187 -0.60815,-0.176187 1.74687,-0.178206 c 2.37994,-0.242788 6.61758,-1.142575 10.38172,-2.204378 l 3.12804,-0.882366 0.27757,0.22488 c 0.15268,0.123685 0.47493,0.264028 0.71614,0.311873 l 0.43855,0.08699 -0.0143,0.243258 -0.0143,0.243259 -0.78907,0.02231 -0.78906,0.02231 -3.04073,0.903968 c -3.4479,1.025016 -5.43834,1.475932 -8.7573,1.983896 l -2.31095,0.353688 -6.68961,0.25718 c -3.67928,0.141447 -7.12746,0.282733 -7.66264,0.313966 -0.53516,0.03123 -1.41089,-0.03957 -1.946061,-0.157341 z"
       id="path92561" />
  </g>
</svg>
