<?xml version="1.0" encoding="UTF-8" standalone="no"?>
<!-- Created with Inkscape (http://www.inkscape.org/) -->

<svg
   width="100mm"
   height="100mm"
   viewBox="0 0 100 100"
   version="1.1"
   id="svg1"
   xml:space="preserve"
   inkscape:version="1.4.2 (f4327f4, 2025-05-13)"
   sodipodi:docname="zajac.svg"
   xmlns:inkscape="http://www.inkscape.org/namespaces/inkscape"
   xmlns:sodipodi="http://sodipodi.sourceforge.net/DTD/sodipodi-0.dtd"
   xmlns="http://www.w3.org/2000/svg"
   xmlns:svg="http://www.w3.org/2000/svg"><sodipodi:namedview
     id="namedview1"
     pagecolor="#ffffff"
     bordercolor="#000000"
     borderopacity="0.25"
     inkscape:showpageshadow="2"
     inkscape:pageopacity="0.0"
     inkscape:pagecheckerboard="0"
     inkscape:deskcolor="#d1d1d1"
     inkscape:document-units="mm"
     inkscape:zoom="0.52221046"
     inkscape:cx="237.45216"
     inkscape:cy="614.6947"
     inkscape:window-width="958"
     inkscape:window-height="1000"
     inkscape:window-x="2873"
     inkscape:window-y="0"
     inkscape:window-maximized="0"
     inkscape:current-layer="layer1" /><defs
     id="defs1" /><g
     inkscape:label="Vrstva 1"
     inkscape:groupmode="layer"
     id="layer1"><path
       style="fill:#000000;stroke-width:1.63333"
       d="m 41.913197,99.322142 c -3.32191,-0.341562 -6.141704,-0.776372 -6.26621,-0.96623 -0.124509,-0.189875 -0.935984,-0.475627 -1.803285,-0.635023 -1.717884,-0.315707 -6.701837,-2.819197 -8.835536,-4.438188 -0.735488,-0.55806 -1.5152,-1.014658 -1.732696,-1.014658 -0.217497,0 -0.60894,-0.340321 -0.869878,-0.756266 -0.260936,-0.415944 -1.843111,-2.341348 -3.515945,-4.27866 -2.315855,-2.681996 -3.113266,-3.947077 -3.342253,-5.302432 -0.165404,-0.979019 -0.623312,-2.102621 -1.017571,-2.496875 -0.916538,-0.916544 -1.065435,-13.153369 -0.18089,-14.866146 0.294771,-0.570768 0.810362,-2.244819 1.145757,-3.720126 0.335397,-1.47529 1.017947,-3.25554 1.51678,-3.956077 0.498833,-0.700552 0.906968,-1.47712 0.906968,-1.725729 0,-0.248593 0.243403,-0.607518 0.540896,-0.797589 0.297492,-0.190071 0.829483,-0.904588 1.182203,-1.587811 0.944541,-1.829593 6.315929,-6.636129 8.491398,-7.598439 1.603975,-0.70952 2.647953,-2.179225 1.547966,-2.179225 -0.185793,0 -0.600266,-0.92373 -0.92105,-2.052722 -0.320784,-1.129008 -0.839936,-2.636133 -1.153672,-3.34918 -0.721307,-1.639375 -1.908994,-7.987401 -1.908994,-10.203326 0,-0.924483 -0.194469,-1.680862 -0.432154,-1.680862 -0.500626,0 -0.615503,-14.797939 -0.118726,-15.294717 0.172381,-0.172382 0.556874,-1.5069282 0.854428,-2.965657 1.919474,-9.4100009 10.816672,-9.7071693 15.470019,-0.5166719 0.475368,0.9388556 0.966906,1.8042601 1.092308,1.9231014 0.125408,0.1189065 0.606207,1.09118 1.068454,2.1607515 0.462248,1.069587 0.976809,2.044213 1.143473,2.165863 0.386771,0.282305 1.665518,8.837094 1.665518,11.14228 0,0.959844 0.178755,1.809994 0.397235,1.889227 0.218479,0.07922 0.537685,3.313997 0.709343,7.188375 l 0.312107,7.044348 1.775534,-0.12985 1.775533,-0.12985 0.302688,-5.401902 c 0.488095,-8.710755 1.264775,-17.051463 1.609595,-17.285323 0.175862,-0.119233 0.546576,-1.383661 0.823811,-2.809772 0.511645,-2.631902 2.92301,-7.994817 3.594771,-7.994817 0.202123,0 0.367497,-0.2738608 0.367497,-0.6085631 0,-0.8331627 3.698476,-4.5772657 4.521479,-4.5772657 0.365393,0 0.66435,-0.1469999 0.66435,-0.3266664 0,-1.38598014 5.38125,-1.65739091 5.903005,-0.29772375 0.131777,0.34340805 0.486685,0.62439015 0.788677,0.62439015 0.860361,0 1.431268,0.9363891 1.986406,3.2580561 0.281941,1.1791187 0.669829,2.5327915 0.861971,3.0081564 1.528647,3.7819143 1.522769,23.1344973 -0.0077,25.0515713 -0.195561,0.244984 -0.698277,2.049783 -1.117149,4.01068 -0.418871,1.96088 -0.918782,3.565253 -1.11091,3.565253 -0.344057,0 -1.247149,2.727877 -1.25185,3.781327 -0.0013,0.297103 0.214622,0.540192 0.479883,0.540192 0.26526,0 1.409508,0.680642 2.542774,1.51253 1.133267,0.831905 2.195527,1.512547 2.36058,1.512547 0.296319,0 2.741244,2.475217 4.250841,4.303503 0.427551,0.517815 1.108191,1.657424 1.512534,2.532465 0.404343,0.875058 0.837772,1.688228 0.963174,1.80707 0.125407,0.118906 0.606206,1.091196 1.068452,2.160767 0.462248,1.069571 0.976707,2.044148 1.143243,2.165716 3.492037,2.549109 0.93095,22.409494 -3.347721,25.960472 -0.332481,0.275935 -0.604511,0.655097 -0.604511,0.842587 0,0.502119 -4.643141,5.17126 -5.142457,5.17126 -0.234583,0 -0.680628,0.341268 -0.991211,0.758388 -0.310581,0.417104 -1.342569,1.146371 -2.293304,1.620576 -0.950736,0.474189 -1.825845,0.988476 -1.944686,1.142842 -0.118841,0.15435 -1.285654,0.609347 -2.592914,1.011049 -1.307262,0.401702 -2.765775,0.903592 -3.241143,1.115288 -0.868939,0.387002 -12.929395,1.743399 -14.641018,1.646644 -0.504057,-0.02842 -3.634395,-0.331273 -6.956305,-0.672835 z"
       id="path2" /><path
       style="fill:#000000"
       id="path1" /></g></svg>
